<svg width="362" height="451" viewBox="0 0 362 451" fill="none" xmlns="http://www.w3.org/2000/svg">
<g filter="url(#filter0_d_1_40130)">
<path d="M35.5593 79.7066C14.2475 385.284 -24.5157 304.175 232.46 423.607C236.997 425.713 241.932 426.881 246.936 426.981C263.293 427.331 272.208 422.818 279.939 413.864C283.361 409.891 285.809 405.169 287.222 400.108C294.415 374.303 321.328 277.452 339.397 208.632L340.073 205.497C344.968 176.408 341.098 163.011 321.945 147.648L318.194 144.993C243.155 98.7434 136.954 36.3621 125.811 29.8335L124.169 28.8053C121.682 27.1482 112.847 21.488 103.455 18.074C95.8631 15.3088 87.5255 15.3487 79.8743 17.9542C52.7819 27.1582 38.5243 48.6707 35.5693 79.7066H35.5593Z" fill="#FFB505"/>
</g>
<defs>
<filter id="filter0_d_1_40130" x="0" y="0" width="362" height="451" filterUnits="userSpaceOnUse" color-interpolation-filters="sRGB">
<feFlood flood-opacity="0" result="BackgroundImageFix"/>
<feColorMatrix in="SourceAlpha" type="matrix" values="0 0 0 0 0 0 0 0 0 0 0 0 0 0 0 0 0 0 127 0" result="hardAlpha"/>
<feOffset dy="4"/>
<feGaussianBlur stdDeviation="10"/>
<feComposite in2="hardAlpha" operator="out"/>
<feColorMatrix type="matrix" values="0 0 0 0 0 0 0 0 0 0 0 0 0 0 0 0 0 0 0.1 0"/>
<feBlend mode="normal" in2="BackgroundImageFix" result="effect1_dropShadow_1_40130"/>
<feBlend mode="normal" in="SourceGraphic" in2="effect1_dropShadow_1_40130" result="shape"/>
</filter>
</defs>
</svg>
