<svg width="61" height="62" viewBox="0 0 61 62" fill="none" xmlns="http://www.w3.org/2000/svg">
<path d="M36.7037 44.7706L30.9208 38.9877C30.611 38.6876 30.3646 38.3284 30.1964 37.9312C30.0281 37.5341 29.9414 37.1071 29.9414 36.6758C29.9414 36.2445 30.0281 35.8176 30.1964 35.4204C30.3646 35.0233 30.611 34.664 30.9208 34.3639L39.4694 27.6005C40.1016 27.0256 40.9255 26.707 41.78 26.707C42.6346 26.707 43.4584 27.0256 44.0906 27.6005L49.1192 32.6291C50.5569 34.0656 51.6399 35.8175 52.2822 37.7456L53.6123 41.7459L58.8143 46.9454" stroke="#0286C3" stroke-width="1.88571" stroke-linecap="round" stroke-linejoin="round"/>
<path d="M32.779 40.821L31.6878 41.9097C31.2177 42.3797 30.8454 42.9381 30.5924 43.5529C30.3394 44.1676 30.2109 44.8264 30.2142 45.4911C30.2174 46.1559 30.3525 46.8134 30.6115 47.4256C30.8705 48.0378 31.2483 48.5926 31.723 49.0578L33.9256 51.2151L41.3402 54.006L46.5397 59.2055M24.3285 17.2597L30.1114 23.0425C30.4212 23.3426 30.6676 23.7019 30.8358 24.099C31.0041 24.4962 31.0908 24.9231 31.0908 25.3544C31.0908 25.7857 31.0041 26.2127 30.8358 26.6098C30.6676 27.007 30.4212 27.3662 30.1114 27.6663L21.5628 34.4297C20.9306 35.0046 20.1067 35.3232 19.2522 35.3232C18.3976 35.3232 17.5738 35.0046 16.9416 34.4297L11.913 29.4012C10.4805 27.9648 9.40195 26.2148 8.76258 24.2896L7.43253 20.2894L2.23047 15.0898" stroke="#0286C3" stroke-width="1.88571" stroke-linecap="round" stroke-linejoin="round"/>
<path d="M28.2669 21.2109L29.3581 20.1222C29.8283 19.6523 30.2006 19.0938 30.4535 18.4791C30.7065 17.8644 30.8351 17.2056 30.8318 16.5408C30.8285 15.8761 30.6935 15.2186 30.4345 14.6064C30.1755 13.9942 29.7977 13.4394 29.3229 12.9741L27.1204 10.8169L19.7058 8.01595L14.5062 2.81641M46.86 12.245L50.6315 8.47355M39.3172 8.47355V3.44498M50.6315 19.7878H55.66M12.9172 46.1878L9.14576 49.9593M20.46 49.9593V54.9878M9.14576 38.645H4.11719" stroke="#0286C3" stroke-width="1.88571" stroke-linecap="round" stroke-linejoin="round"/>
</svg>
