<?xml version="1.0" encoding="utf-8"?>
<!-- Generator: Adobe Illustrator 28.1.0, SVG Export Plug-In . SVG Version: 6.00 Build 0)  -->
<svg version="1.1" id="Layer_1" xmlns="http://www.w3.org/2000/svg" xmlns:xlink="http://www.w3.org/1999/xlink" x="0px" y="0px"
		viewBox="68 27 162 245" style="enable-background:new 0 0 162 245;" xml:space="preserve">
<style type="text/css">
	.st0{fill:url(#SVGID_1_);}
	.st1{fill:url(#SVGID_00000176732405159718728920000009637730997073681793_);}
	.st2{fill:url(#SVGID_00000144325885334999943970000007861607172649958283_);}
	.st3{fill:url(#SVGID_00000078752666138993825910000000942894116047127742_);}
	.st4{fill:url(#SVGID_00000152979491779499764930000004033524480391824831_);}
	.st5{fill:url(#SVGID_00000075130142487127446730000006189663745478156990_);}
	.st6{fill:url(#SVGID_00000084526523344567410750000017180475833559623843_);}
	.st7{fill:#231F20;}
	.st8{fill:url(#SVGID_00000048463672907118233020000001172391072642888366_);}
	.st9{fill:url(#SVGID_00000089553477656955215920000002709502342456676013_);}
	.st10{fill:url(#SVGID_00000023257542016723552610000000122197926982389414_);}
	.st11{fill:url(#SVGID_00000126286014269539844720000005225759413494158516_);}
	.st12{fill:url(#SVGID_00000163768656502488079980000007758975930004081047_);}
	.st13{fill:url(#SVGID_00000092435093271893524730000016742132135932179585_);}
	.st14{fill:url(#SVGID_00000116937777109788507800000014468292634794851216_);}
	.st15{fill:#0078C2;}
	.st16{fill:#22272A;}
	.st17{fill:#FF003F;}
	.st18{fill:#009A45;}
	.st19{fill:#FF9D00;}
</style>
<g>
	<g>
		<g>
			<g>
				<linearGradient id="SVGID_1_" gradientUnits="userSpaceOnUse" x1="131.2696" y1="245.3541" x2="198.1835" y2="178.4402">
					<stop  offset="0.5027" style="stop-color:#FF003F"/>
					<stop  offset="1" style="stop-color:#BE1E2D"/>
				</linearGradient>
				<path class="st0" d="M157.3,271.4c17.8-4.3,37.2-15.8,47.7-26.8c17.4-22.9-8.3-75-44.4-101.8
					C198.5,202.4,190.6,241.3,157.3,271.4z"/>
				
					<linearGradient id="SVGID_00000070107905788009553630000014702352696651860381_" gradientUnits="userSpaceOnUse" x1="157.2366" y1="133.6881" x2="236.429" y2="198.2924">
					<stop  offset="0.2966" style="stop-color:#FF9D00"/>
					<stop  offset="0.4416" style="stop-color:#FFA203"/>
					<stop  offset="0.6078" style="stop-color:#FEB00C"/>
					<stop  offset="0.7845" style="stop-color:#FCC71A"/>
					<stop  offset="0.9675" style="stop-color:#F9E72E"/>
					<stop  offset="1" style="stop-color:#F9ED32"/>
				</linearGradient>
				<path style="fill:url(#SVGID_00000070107905788009553630000014702352696651860381_);" d="M188.8,87.6c0,0,25.2,35.3,36.7,75.8
					c6.9,24.3,4.6,52.7-20.5,81.3c19.2-25.2-34.4-94.2-44.4-101.8L188.8,87.6z"/>
			</g>
			<g>
				
					<linearGradient id="SVGID_00000013897776070241000980000013600739276741386124_" gradientUnits="userSpaceOnUse" x1="75.8929" y1="212.0938" x2="196.5623" y2="264.4695">
					<stop  offset="0.4167" style="stop-color:#22272A"/>
					<stop  offset="0.8734" style="stop-color:#FF003F"/>
				</linearGradient>
				<path style="fill:url(#SVGID_00000013897776070241000980000013600739276741386124_);" d="M70.3,175.1
					c-4.1,33.2,13.4,68.4,62.8,96.3l15.6-15.7C118.3,238.9,87.7,210.6,70.3,175.1z"/>
			</g>
			<g>
				
					<linearGradient id="SVGID_00000168800826722564284970000016337420272691480732_" gradientUnits="userSpaceOnUse" x1="132.5379" y1="197.4347" x2="175.7175" y2="253.7953">
					<stop  offset="0.2966" style="stop-color:#FF9D00"/>
					<stop  offset="0.4416" style="stop-color:#FFA203"/>
					<stop  offset="0.6078" style="stop-color:#FEB00C"/>
					<stop  offset="0.7845" style="stop-color:#FCC71A"/>
					<stop  offset="0.9675" style="stop-color:#F9E72E"/>
					<stop  offset="1" style="stop-color:#F9ED32"/>
				</linearGradient>
				<path style="fill:url(#SVGID_00000168800826722564284970000016337420272691480732_);" d="M156,255.7
					c9.5-12.5,16.6-19.4,5.2-48.7l-25.7-19.4C144.8,199.2,156.5,237.9,156,255.7z"/>
			</g>
			<g>
				
					<linearGradient id="SVGID_00000124857761227642482910000018133566261148389025_" gradientUnits="userSpaceOnUse" x1="122.2647" y1="127.6001" x2="199.2773" y2="210.955">
					<stop  offset="0.3556" style="stop-color:#009A45"/>
					<stop  offset="0.8042" style="stop-color:#006838"/>
				</linearGradient>
				<path style="fill:url(#SVGID_00000124857761227642482910000018133566261148389025_);" d="M165.5,240.8
					c-3-40.6-43.2-51.9-59.7-73.6c-10.8-24.8,2.3-29.9,47.4-72.6c-47.4,53.1-4.6,78.7,11.1,110.9
					C169.5,216.2,171.4,227.6,165.5,240.8z"/>
				
					<linearGradient id="SVGID_00000101081261496520168370000004409912186393410734_" gradientUnits="userSpaceOnUse" x1="81.2722" y1="142.7502" x2="174.5896" y2="49.4328">
					<stop  offset="0.3391" style="stop-color:#0078C2"/>
					<stop  offset="1" style="stop-color:#2E3192"/>
				</linearGradient>
				<path style="fill:url(#SVGID_00000101081261496520168370000004409912186393410734_);" d="M152.6,27.5c0,0-109.6,72.4-46.9,139.7
					c-9.7-27.8,74.1-96.4,74.1-96.4L152.6,27.5z"/>
				
					<linearGradient id="SVGID_00000090996750544967606220000005890911378674480791_" gradientUnits="userSpaceOnUse" x1="68.8441" y1="209.2165" x2="148.707" y2="209.2165">
					<stop  offset="0" style="stop-color:#BE1E2D"/>
					<stop  offset="0.7609" style="stop-color:#FF003F"/>
				</linearGradient>
				<path style="fill:url(#SVGID_00000090996750544967606220000005890911378674480791_);" d="M71.5,162.7c0,0-24.9,69.1,77.2,93.1
					c-29.2-17.6-51.3-82.9-51.3-82.9L71.5,162.7z"/>
			</g>
		</g>
	</g>
	<g>
		<g>
			<path class="st7" d="M159,185.6l-0.5-1.1l9.7-2l0.5,1.1L159,185.6z M160.2,188.2l-0.5-1.1l9.7-2l0.5,1.2L160.2,188.2z
				 M163.3,189.2l-2.9-6.2l1.3-0.6l2.9,6.1L163.3,189.2z M166.6,188.4l-2.9-6.2l1.2-0.6l2.9,6.2L166.6,188.4z"/>
			<path class="st7" d="M158,172.4c-1.5,0.9-3.1,1.9-4.1,2.4l0,0.1c1.8-0.6,5.6-1.5,8.8-2.2l0.8,1.4c-1.9,2.1-4.7,5.3-6.1,6.6l0,0.1
				c0.9-0.7,2.7-1.8,4.2-2.7l3.2-1.9l0.9,1.5l-8.5,5.2l-1.5-2.4c1.9-2.2,4.3-4.9,5.4-5.9l0,0c-1.1,0.4-5,1.3-7.9,1.9l-1.4-2.3
				l8.5-5.2l0.9,1.5L158,172.4z"/>
			<path class="st7" d="M152.3,170c2-2.3,3.5-4,4-4.5l0,0c-0.8,0.2-2.4,0.7-5.8,1.6l-0.9-1.5l7.9-1.9c2.2-0.5,3-0.3,3.9,1.1
				c0.1,0.2,0.3,0.5,0.4,0.8l-1.2,0.8c-0.1-0.1-0.2-0.3-0.3-0.5c-0.4-0.7-0.9-0.8-1.9-0.6l-5.1,6.3L152.3,170z"/>
			<path class="st7" d="M146.2,164.8l-2.7-6.2l1.4-0.6l2,4.5l2.5-1.1l-1.8-4.2l1.4-0.6l1.8,4.2l3.8-1.7l0.7,1.7L146.2,164.8z"/>
			<path class="st7" d="M149.8,148.3c0.7-0.1,1.6-0.3,1.8-0.4l0.3,1.7c-0.1,0.1-0.5,0.2-0.8,0.2c0.5,0.2,1.1,0.6,1.3,2
				c0.3,1.7-0.7,2.7-1.9,2.9c-1.7,0.3-2.6-0.9-3-3.1c-0.1-0.4-0.1-0.9-0.2-1.1l-0.5,0.1c-0.6,0.1-1.1,0.4-1,1.5
				c0.2,1,0.6,1.1,1.2,1.1l0.3,1.7c-1.2,0.1-2.4-0.5-2.8-2.7c-0.3-1.9,0.3-3.1,2-3.3L149.8,148.3z M148.4,150.3
				c0,0.2,0.1,0.6,0.2,0.9c0.2,1.3,0.7,1.8,1.5,1.7c0.6-0.1,1-0.6,0.9-1.4c-0.2-1.4-1.3-1.5-2.3-1.3L148.4,150.3z"/>
			<path class="st7" d="M144.2,145.2c2.7-0.7,5-1.2,5.9-1.4v0c-1.1-0.2-3.3-1.1-5.7-2l0.1-1.8l7.3,2.9l-0.1,1.9l-7.5,2.2
				L144.2,145.2z"/>
			<path class="st7" d="M149.6,132.3c2.2,0.4,3.6,2,3.1,4.3c-0.4,2.2-2.3,3.2-4.5,2.8c-2.2-0.4-3.6-2.1-3.1-4.3
				C145.5,132.9,147.3,131.8,149.6,132.3z M148.5,137.5c1.5,0.3,2.5-0.2,2.7-1.3c0.2-1.1-0.6-1.9-2.1-2.2c-1.6-0.3-2.5,0.1-2.8,1.3
				C146.3,136.4,147,137.2,148.5,137.5z"/>
			<path class="st7" d="M148.5,130.2c-0.8-0.3-1.4-0.4-1.9-0.6l0.5-1.7c0.2,0,0.8,0.2,1.3,0.4c-0.7-0.6-1.1-1.6-0.7-2.8l1.6,0.5
				c-0.5,1.4-0.2,2.5,1.6,3.1l3.2,1l-0.6,1.7L148.5,130.2z"/>
			<path class="st7" d="M145.6,122.8l0.7-1.7l1.6,0.7l-0.7,1.7L145.6,122.8z M148.5,124l0.7-1.7l6.9,2.8l-0.7,1.7L148.5,124z"/>
			<path class="st7" d="M149.7,121l0.5-1.1l-1.9-0.9l0.8-1.6l1.9,0.9l0.7-1.4l1.2,0.6l-0.7,1.4l3.5,1.7c0.6,0.3,0.9,0.2,1.1-0.3
				c0.1-0.1,0.2-0.3,0.2-0.5l1.1,0.5c0,0.4-0.3,0.9-0.4,1.2c-0.6,1.2-1.4,1.3-2.6,0.8l-3.7-1.8l-0.5,1.1L149.7,121z"/>
			<path class="st7" d="M156.6,116.3c1,0.6,2.1,0.6,2.6-0.4c0.5-0.8,0.3-1.3,0-1.7l0.9-1.5c0.7,0.7,1.5,2.1,0.3,4
				c-1.2,2.1-3.3,2-5,1c-2-1.2-2.8-3-1.7-5c1.3-2.1,3.3-1.9,4.8-1c0.2,0.1,0.4,0.2,0.5,0.3L156.6,116.3z M157.3,113
				c-0.9-0.5-1.8-0.5-2.3,0.4c-0.6,0.9-0.1,1.7,0.7,2.3L157.3,113z"/>
			<path class="st7" d="M161.2,109.8c1,0.4,1.9,0.1,2.6-0.9c0.8-1,0.6-1.8,0-2.3c-0.7-0.5-1.3-0.4-2.7,0.8c-2,1.7-3.2,1.8-4.3,1
				c-1.3-1-1.6-2.7-0.2-4.5c1.5-2.1,3.2-2.1,4.5-1.4l-1.1,1.5c-0.6-0.3-1.4-0.4-2.2,0.7c-0.6,0.8-0.6,1.5,0.1,2
				c0.6,0.5,1.2,0.3,2.4-0.9c2.2-1.9,3.5-1.8,4.6-1c1.4,1,1.7,2.8,0.2,4.9c-1.5,2-3.2,2.3-4.8,1.5L161.2,109.8z"/>
			<path class="st7" d="M168.5,103.7l2.7,2.3l-1.2,1.4l-6.5-5.5c-0.5-0.4-0.9-0.8-1.4-1.2l1.1-1.3c0.2,0.1,0.5,0.4,0.8,0.6
				c-0.2-0.7-0.2-1.6,0.6-2.5c1.1-1.3,3-1.3,4.7,0.1c2,1.7,2.2,3.7,1,5.1C169.8,103.6,169.1,103.8,168.5,103.7z M168.4,99.1
				c-1.1-0.9-2.1-1-2.8-0.2c-0.8,1-0.5,1.9,0.7,2.9c1.2,1,2.1,1.3,2.9,0.3C169.9,101.2,169.6,100.2,168.4,99.1z"/>
			<path class="st7" d="M175.4,91.9c1.6,1.5,1.9,3.6,0.3,5.3c-1.6,1.6-3.7,1.4-5.2-0.1c-1.6-1.6-1.9-3.7-0.2-5.3
				C171.7,90.2,173.8,90.2,175.4,91.9z M171.7,95.7c1.1,1,2.2,1.2,3,0.4c0.8-0.8,0.5-1.9-0.5-3c-1.1-1.1-2.2-1.3-3-0.4
				C170.4,93.5,170.5,94.6,171.7,95.7z"/>
			<path class="st7" d="M175.5,89.5c-0.6-0.6-1-1.1-1.4-1.5l1.3-1.2c0.1,0.1,0.6,0.6,1,1c-0.4-0.9-0.2-1.9,0.7-2.8l1.2,1.3
				c-1.1,1-1.4,2-0.1,3.5l2.3,2.5l-1.3,1.2L175.5,89.5z"/>
			<path class="st7" d="M177.7,84.8l0.9-0.8l-1.3-1.6l1.4-1.2l1.3,1.6l1.1-1l0.9,1l-1.1,1l2.5,3c0.4,0.5,0.7,0.6,1.2,0.1
				c0.1-0.1,0.3-0.2,0.4-0.4l0.8,1c-0.2,0.3-0.6,0.7-0.9,0.9c-1,0.9-1.9,0.7-2.7-0.3l-2.7-3.1l-0.9,0.8L177.7,84.8z"/>
		</g>
	</g>
	<g>
		<g>
			<path class="st7" d="M124.4,191.9l-7.8,2.9l-0.5-1.5l7.8-2.9L124.4,191.9z"/>
			<path class="st7" d="M122.2,202.2c-1.5,0.2-3-0.4-3.7-2.3c-1-2.4,0.3-4.2,2.5-5.1c2.1-0.8,4.5-0.4,5.4,2c0.8,2,0,3.4-1.2,4.1
				l-0.6-1.4c0.6-0.5,1-1.2,0.6-2.3c-0.6-1.5-2.2-1.5-3.6-1c-1.4,0.5-2.6,1.7-2,3.2c0.4,1.1,1.3,1.2,1.9,1.2L122.2,202.2z"/>
			<path class="st7" d="M123.3,205.3l-2.2,0.4l-0.7-1.3l8.7-1.4l0.9,1.7l-5.9,6.6l-0.8-1.4l1.5-1.7L123.3,205.3z M125.7,207.2
				c1.4-1.5,2.2-2.4,2.7-2.9l0,0c-0.8,0.2-2.2,0.4-3.8,0.8L125.7,207.2z"/>
			<path class="st7" d="M132.4,208.5l2.7,4.9l-1.1,0.6l-2-3.6l-2,1.1l1.9,3.4l-1.1,0.6l-1.9-3.4l-3,1.7l-0.7-1.3L132.4,208.5z"/>
			<path class="st7" d="M128.5,218.4l1.7-1l0.8,1.4l-1.7,1L128.5,218.4z"/>
			<path class="st7" d="M135.8,224.1c-1.5,1-3.3,0.9-4.4-0.7c-1-1.5-0.5-3.2,1-4.3c1.6-1,3.3-0.9,4.4,0.7
				C137.8,221.3,137.4,223,135.8,224.1z M133.3,220.4c-1,0.7-1.4,1.6-0.9,2.4c0.5,0.8,1.5,0.8,2.5,0.1c1.1-0.7,1.4-1.6,0.9-2.4
				C135.3,219.7,134.4,219.7,133.3,220.4z"/>
			<path class="st7" d="M137.8,224.3c0.6-0.4,1-0.7,1.3-1l0.9,1.2c-0.1,0.1-0.5,0.5-0.9,0.7c0.8-0.2,1.6,0,2.2,0.8l-1.1,0.9
				c-0.8-1-1.6-1.3-2.9-0.3l-2.2,1.7l-0.9-1.2L137.8,224.3z"/>
			<path class="st7" d="M141.3,234.6c-1.5,1.3-2.9,1.5-4.4-0.2c-1.4-1.6-0.8-2.8-0.3-3.3l1,1.1c-0.3,0.4-0.3,0.9,0.2,1.5
				c0.8,0.9,1.5,0.6,2.5-0.2l0.3-0.2c-0.7,0.1-1.3,0-1.9-0.7c-1-1.2-0.7-2.8,0.6-3.9c1.5-1.3,3.2-1.2,4.2-0.1
				c0.7,0.8,0.6,1.5,0.5,1.8c0.2-0.1,0.5-0.3,0.6-0.4l0.9,1.1c-0.4,0.3-0.9,0.8-1.3,1.2L141.3,234.6z M140.3,229.8
				c-0.9,0.7-1,1.7-0.5,2.3c0.7,0.9,1.5,0.6,2.4-0.2c0.9-0.8,1.3-1.4,0.5-2.3C142.2,228.9,141.3,228.9,140.3,229.8z"/>
		</g>
	</g>
	<g>
		<g>
		</g>
	</g>
</g>
<g>
	<g>
		<g>
			
				<linearGradient id="SVGID_00000178893008122067353360000018373957521729501115_" gradientUnits="userSpaceOnUse" x1="120.2614" y1="-278.3408" x2="185.8908" y2="-343.9702">
				<stop  offset="0.5027" style="stop-color:#FF003F"/>
				<stop  offset="1" style="stop-color:#BE1E2D"/>
			</linearGradient>
			<path style="fill:url(#SVGID_00000178893008122067353360000018373957521729501115_);" d="M148.9-249.7
				c13.9-4.3,29.1-15.8,37.3-26.8c13.6-22.9-6.5-75-34.7-101.8C181.1-318.7,174.9-279.8,148.9-249.7z"/>
			
				<linearGradient id="SVGID_00000117675947144933906590000006160658428435960999_" gradientUnits="userSpaceOnUse" x1="141.1181" y1="-386.6385" x2="218.3038" y2="-323.6712">
				<stop  offset="0.2966" style="stop-color:#FF9D00"/>
				<stop  offset="0.4416" style="stop-color:#FFA203"/>
				<stop  offset="0.6078" style="stop-color:#FEB00C"/>
				<stop  offset="0.7845" style="stop-color:#FCC71A"/>
				<stop  offset="0.9675" style="stop-color:#F9E72E"/>
				<stop  offset="1" style="stop-color:#F9ED32"/>
			</linearGradient>
			<path style="fill:url(#SVGID_00000117675947144933906590000006160658428435960999_);" d="M173.5-433.5c0,0,19.7,35.3,28.7,75.8
				c5.4,24.3,3.6,52.7-16,81.3c15-25.2-26.9-94.2-34.7-101.8L173.5-433.5z"/>
		</g>
		<g>
			
				<linearGradient id="SVGID_00000107589397819783975960000010219193003536115380_" gradientUnits="userSpaceOnUse" x1="82.6418" y1="-307.7177" x2="185.0763" y2="-263.2567">
				<stop  offset="0.4167" style="stop-color:#22272A"/>
				<stop  offset="0.8734" style="stop-color:#FF003F"/>
			</linearGradient>
			<path style="fill:url(#SVGID_00000107589397819783975960000010219193003536115380_);" d="M80.9-346
				c-3.2,33.2,10.5,68.4,49.1,96.3l12.2-15.7C118.4-282.2,94.5-310.5,80.9-346z"/>
		</g>
		<g>
			
				<linearGradient id="SVGID_00000119824429198457355960000005705370458169906102_" gradientUnits="userSpaceOnUse" x1="125.5517" y1="-321.4439" x2="166.9614" y2="-267.3933">
				<stop  offset="0.2966" style="stop-color:#FF9D00"/>
				<stop  offset="0.4416" style="stop-color:#FFA203"/>
				<stop  offset="0.6078" style="stop-color:#FEB00C"/>
				<stop  offset="0.7845" style="stop-color:#FCC71A"/>
				<stop  offset="0.9675" style="stop-color:#F9E72E"/>
				<stop  offset="1" style="stop-color:#F9ED32"/>
			</linearGradient>
			<path style="fill:url(#SVGID_00000119824429198457355960000005705370458169906102_);" d="M147.8-265.4c7.4-12.5,13-19.4,4-48.7
				l-20.1-19.4C139.1-321.9,148.3-283.2,147.8-265.4z"/>
		</g>
		<g>
			
				<linearGradient id="SVGID_00000118380185700840078500000011993123199337136790_" gradientUnits="userSpaceOnUse" x1="112.3313" y1="-394.15" x2="189.531" y2="-310.5926">
				<stop  offset="0.3556" style="stop-color:#009A45"/>
				<stop  offset="0.8042" style="stop-color:#006838"/>
			</linearGradient>
			<path style="fill:url(#SVGID_00000118380185700840078500000011993123199337136790_);" d="M155.3-280.4
				c-2.3-40.6-33.8-51.9-46.7-73.6c-8.5-24.8-0.2-31,35.1-73.6c-37.1,53.1-1.6,79.7,10.6,111.9C158.4-304.9,159.9-293.5,155.3-280.4
				z"/>
			
				<linearGradient id="SVGID_00000042000057194294543740000006747194573989168792_" gradientUnits="userSpaceOnUse" x1="82.6742" y1="-379.8134" x2="170.8689" y2="-468.0081">
				<stop  offset="0.3391" style="stop-color:#0078C2"/>
				<stop  offset="1" style="stop-color:#2E3192"/>
			</linearGradient>
			<path style="fill:url(#SVGID_00000042000057194294543740000006747194573989168792_);" d="M145.2-493.7c0,0-85.7,72.4-36.6,139.7
				c-7.6-27.8,57.9-96.4,57.9-96.4L145.2-493.7z"/>
			
				<linearGradient id="SVGID_00000044177298444465463420000001867202330107545767_" gradientUnits="userSpaceOnUse" x1="79.7463" y1="-311.9052" x2="142.158" y2="-311.9052">
				<stop  offset="0" style="stop-color:#BE1E2D"/>
				<stop  offset="0.7609" style="stop-color:#FF003F"/>
			</linearGradient>
			<path style="fill:url(#SVGID_00000044177298444465463420000001867202330107545767_);" d="M81.8-358.4c0,0-19.5,69.1,60.3,93.1
				c-22.8-17.6-40.1-82.9-40.1-82.9L81.8-358.4z"/>
		</g>
	</g>
</g>
<g>
	<g>
		<path class="st7" d="M151.3-334.5l-0.4-0.8l9.7-2.4l0.4,0.9L151.3-334.5z M152.6-332l-0.4-0.8l9.7-2.4l0.4,0.9L152.6-332z
			 M155.9-331.2l-3.1-5.9l0.9-0.5l3.1,5.9L155.9-331.2z M159.1-332.1L156-338l0.9-0.5l3.1,5.9L159.1-332.1z"/>
		<path class="st7" d="M149.9-347.4c-1.6,1-3.2,1.9-4.1,2.4l0,0c1.6-0.5,6.1-1.3,9.4-2l0.6,1c-1.7,2.1-5,6-6.2,7.3l0,0
			c1-0.7,2.8-1.8,4.3-2.7l3.4-2.1l0.6,1.1l-8.6,5.2l-1-1.7c2.1-2.6,4.8-5.8,5.7-6.8l0,0c-0.9,0.3-5.6,1.2-8.8,1.7l-1-1.7l8.6-5.2
			l0.7,1.1L149.9-347.4z"/>
		<path class="st7" d="M145.1-350c2.7-2.5,4.2-3.9,4.8-4.4l0,0c-0.9,0.1-2.6,0.3-6.4,0.8l-0.5-1.2l8-0.8c2.3-0.2,3,0.1,3.6,1.4
			c0.1,0.2,0.2,0.5,0.3,0.7l-1,0.5c-0.1-0.2-0.1-0.4-0.2-0.6c-0.4-0.8-0.9-1-2.2-0.9l-5.8,5.6L145.1-350z"/>
		<path class="st7" d="M139.6-356.2l-1.7-6.2l1.1-0.3l1.4,4.9l3.1-0.9l-1.3-4.6l1.1-0.3l1.3,4.6l4.3-1.2l0.4,1.3L139.6-356.2z"/>
		<path class="st7" d="M145-371.4c0.7-0.1,1.4-0.3,1.6-0.3l0.2,1.2c-0.2,0.1-0.5,0.2-0.9,0.3c0.5,0.2,1.2,0.7,1.4,2.1
			c0.2,1.7-0.8,2.6-1.9,2.8c-1.6,0.2-2.5-0.9-2.8-3.1c-0.1-0.5-0.1-1-0.2-1.2l-0.6,0.1c-0.6,0.1-1.4,0.4-1.2,1.8
			c0.2,1.2,0.8,1.3,1.4,1.4l0.2,1.2c-1,0-2.2-0.4-2.5-2.5c-0.2-1.8,0.3-2.9,2-3.1L145-371.4z M143.2-369.9c0,0.2,0.1,0.8,0.2,1.2
			c0.2,1.4,0.7,2.2,1.7,2c0.8-0.1,1.2-0.7,1.1-1.6c-0.2-1.7-1.5-1.8-2.8-1.6L143.2-369.9z"/>
		<path class="st7" d="M139.1-373.6c2.9-1.2,5.1-2,6-2.3v0c-0.8-0.1-3.1-0.8-6.2-1.7l-0.1-1.3l7.4,2.2l0.1,1.4l-7.1,3L139.1-373.6z"
			/>
		<path class="st7" d="M142.5-386.7c2.1,0,3.8,1.3,3.8,3.5c0,2.1-1.7,3.3-3.9,3.3c-2.2,0-3.8-1.3-3.8-3.5
			C138.6-385.4,140.2-386.8,142.5-386.7z M142.4-381.2c1.6,0,2.8-0.8,2.8-2.1c0-1.3-1.1-2.1-2.7-2.1c-1.6,0-2.8,0.7-2.8,2.1
			C139.6-382,140.7-381.2,142.4-381.2z"/>
		<path class="st7" d="M141.1-388.7c-1-0.1-1.6-0.2-2-0.2l0.2-1.2c0.2,0,0.8,0.1,1.5,0.1c-0.9-0.5-1.5-1.4-1.3-2.6l1.2,0.2
			c-0.1,1.5,0.5,2.5,2.3,2.8l3.5,0.4l-0.2,1.3L141.1-388.7z"/>
		<path class="st7" d="M136.7-394.9l0.2-1.2l1.5,0.3l-0.2,1.2L136.7-394.9z M139.9-394.3l0.2-1.2l7.2,1.4l-0.2,1.2L139.9-394.3z"/>
		<path class="st7" d="M140.4-397l0.3-1.2l-2.1-0.6l0.3-1.2l2.1,0.6l0.4-1.6l1,0.3l-0.4,1.6l4.1,1.1c0.7,0.2,1.1,0.1,1.3-0.5
			c0-0.2,0.1-0.4,0.1-0.6l0.9,0.2c0,0.3-0.1,0.8-0.1,1.1c-0.3,1.1-1,1.4-2.2,1.1l-4.4-1.2l-0.3,1.2L140.4-397z"/>
		<path class="st7" d="M145.9-402.2c1.4,0.5,2.6,0.2,3.1-1c0.4-1.1,0-1.6-0.4-2l0.4-1.2c0.8,0.6,1.7,1.8,1,3.6
			c-0.8,2.2-2.9,2.4-4.6,1.7c-2-0.8-3.3-2.4-2.5-4.5c0.8-2.2,2.9-2.3,4.3-1.7c0.2,0.1,0.4,0.1,0.6,0.2L145.9-402.2z M146.4-406.1
			c-1.1-0.4-2.2-0.2-2.7,1c-0.4,1.2,0.2,2,1.3,2.6L146.4-406.1z"/>
		<path class="st7" d="M149.4-409.1c1.2,0.3,2.1-0.1,2.8-1.4c0.7-1.4,0.3-2.3-0.5-2.7c-0.9-0.5-1.6-0.3-3,1.3
			c-1.6,1.8-2.7,2.2-3.9,1.6c-1.3-0.7-1.9-2.2-0.9-4.2c1.1-2.1,2.8-2.4,4-1.9l-0.6,1.2c-0.9-0.2-1.8-0.1-2.4,1.2
			c-0.6,1.1-0.4,1.9,0.5,2.4c0.8,0.4,1.4,0.1,2.6-1.3c1.9-2.2,3.1-2.2,4.3-1.6c1.4,0.7,2,2.4,0.9,4.6c-1.1,2.2-2.9,2.6-4.3,2.1
			L149.4-409.1z"/>
		<path class="st7" d="M155.4-416.1l3.1,2.1l-0.7,1l-7-4.6c-0.5-0.3-1-0.7-1.5-1l0.7-1c0.2,0.1,0.6,0.3,1,0.6
			c-0.4-0.7-0.5-1.7,0.2-2.7c0.9-1.4,2.8-1.6,4.6-0.4c2.2,1.4,2.6,3.4,1.6,4.9C156.8-416.3,156-416,155.4-416.1z M155.2-421
			c-1.3-0.9-2.6-0.9-3.3,0.2c-0.8,1.3-0.4,2.3,1.1,3.3c1.4,1,2.6,1.1,3.4-0.1C157.2-418.8,156.7-420,155.2-421z"/>
		<path class="st7" d="M161.1-428.3c1.6,1.3,2.2,3.4,0.8,5.1c-1.3,1.6-3.4,1.6-5.1,0.2c-1.7-1.4-2.2-3.4-0.8-5.1
			C157.3-429.7,159.3-429.8,161.1-428.3z M157.6-424c1.2,1,2.7,1.1,3.5,0.1c0.8-1,0.5-2.3-0.8-3.4c-1.3-1-2.6-1.2-3.5-0.1
			C155.9-426.4,156.3-425.1,157.6-424z"/>
		<path class="st7" d="M161-430.7c-0.7-0.7-1.2-1.1-1.5-1.3l0.8-0.9c0.2,0.1,0.6,0.5,1.1,1c-0.5-1-0.3-2,0.5-2.9l0.9,0.9
			c-1,1.1-1.1,2.4,0.3,3.6l2.6,2.4l-0.9,0.9L161-430.7z"/>
		<path class="st7" d="M162.6-435.2l0.9-0.9l-1.5-1.6l0.9-0.9l1.5,1.6l1.2-1.1l0.7,0.7l-1.2,1.1l3,3.1c0.5,0.5,0.9,0.7,1.3,0.2
			c0.1-0.1,0.3-0.3,0.4-0.5l0.7,0.7c-0.1,0.3-0.4,0.6-0.7,0.9c-0.8,0.8-1.6,0.7-2.4-0.2l-3.2-3.3l-0.9,0.9L162.6-435.2z"/>
	</g>
</g>
<g>
	<g>
		<path class="st7" d="M132.9-284.1l7.2-4.2l0.6,1l-7.2,4.2L132.9-284.1z"/>
		<path class="st7" d="M133.3-294.6c1.4-0.5,2.8-0.1,3.9,1.4c1.4,2.1,0.5,4.2-1.5,5.5c-1.9,1.2-4.3,1.3-5.7-0.8
			c-1.1-1.7-0.7-3.2,0.3-4.1l0.6,0.9c-0.6,0.7-0.8,1.6-0.1,2.7c1,1.5,2.8,1.3,4.2,0.3c1.4-0.9,2.4-2.4,1.4-4c-0.7-1.1-1.6-1.2-2.5-1
			L133.3-294.6z"/>
		<path class="st7" d="M131.7-296.9l2.6-0.4l0.5,1l-8.7,1.5l-0.7-1.2l5.7-6.8l0.6,1l-1.7,2L131.7-296.9z M129.4-299.1
			c-1.5,1.8-2.3,2.7-2.8,3.2l0,0c0.7-0.2,2.2-0.4,4.1-0.8L129.4-299.1z"/>
		<path class="st7" d="M123.1-300.5l-2.2-4.9l0.9-0.4l1.8,3.9l2.5-1.1l-1.6-3.7l0.9-0.4l1.6,3.7l3.4-1.5l0.4,1L123.1-300.5z"/>
		<path class="st7" d="M128.3-309.7l-1.7,0.6l-0.4-1l1.7-0.6L128.3-309.7z"/>
		<path class="st7" d="M122.8-316.1c1.7-0.5,3.4,0,3.9,1.7c0.5,1.7-0.4,3.1-2.1,3.7c-1.7,0.6-3.4,0-3.9-1.7
			C120.1-314.1,121-315.5,122.8-316.1z M124.2-311.7c1.3-0.4,2-1.4,1.6-2.4c-0.3-1.1-1.4-1.4-2.7-0.9c-1.3,0.4-2,1.3-1.6,2.4
			C121.9-311.6,122.9-311.3,124.2-311.7z"/>
		<path class="st7" d="M121.1-317.1c-0.8,0.2-1.3,0.3-1.6,0.4l-0.3-1c0.2-0.1,0.6-0.2,1.2-0.3c-0.9-0.1-1.6-0.7-1.9-1.6l1-0.3
			c0.4,1.2,1.2,1.8,2.7,1.4l2.9-0.8l0.3,1L121.1-317.1z"/>
		<path class="st7" d="M122.8-327c1.9-0.4,3.2,0.2,3.6,2.1c0.4,1.8-0.5,2.6-1.3,2.8l-0.2-1c0.6-0.3,0.9-0.9,0.7-1.7
			c-0.3-1.4-1.2-1.5-2.6-1.2l-0.5,0.1c0.7,0.2,1.2,0.7,1.4,1.6c0.3,1.5-0.7,2.7-2.4,3.1c-1.9,0.4-3.4-0.5-3.7-1.9
			c-0.2-1.1,0.2-1.7,0.6-1.9c-0.3,0-0.7,0.1-0.8,0.1l-0.2-1c0.3-0.1,1.2-0.2,1.7-0.3L122.8-327z M121.2-322.3c1.3-0.3,2-1.1,1.8-2.1
			c-0.3-1.3-1.2-1.5-2.5-1.2c-1.3,0.3-2.1,0.8-1.8,2.1C118.9-322.4,119.9-322,121.2-322.3z"/>
	</g>
</g>
<g>
	<rect x="417.5" y="-289.4" class="st15" width="18" height="18"/>
	<rect x="440.8" y="-289.4" class="st16" width="18" height="18"/>
	<rect x="464.2" y="-289.4" class="st17" width="18" height="18"/>
	<rect x="487.5" y="-289.4" class="st18" width="18" height="18"/>
	<rect x="510.9" y="-289.4" class="st19" width="18" height="18"/>
</g>
</svg>
