<svg width="24" height="25" viewBox="0 0 24 25" fill="none" xmlns="http://www.w3.org/2000/svg">
<mask id="mask0_1_39619" style="mask-type:alpha" maskUnits="userSpaceOnUse" x="0" y="0" width="24" height="25">
<rect y="0.365234" width="24" height="24" fill="#D9D9D9"/>
</mask>
<g mask="url(#mask0_1_39619)">
<path d="M8.9 16.1537L14.5 10.5537V13.5152H15.5V8.86523H10.85V9.86523H13.7865L8.2115 15.4402L8.9 16.1537ZM12.0033 21.3652C10.7587 21.3652 9.58867 21.1291 8.493 20.6567C7.3975 20.1844 6.4445 19.5434 5.634 18.7337C4.8235 17.9241 4.18192 16.9719 3.70925 15.8772C3.23642 14.7827 3 13.6132 3 12.3685C3 11.124 3.23617 9.9539 3.7085 8.85823C4.18083 7.76273 4.82183 6.80973 5.6315 5.99923C6.44117 5.18873 7.39333 4.54715 8.488 4.07448C9.5825 3.60165 10.7521 3.36523 11.9967 3.36523C13.2413 3.36523 14.4113 3.6014 15.507 4.07374C16.6025 4.54607 17.5555 5.18707 18.366 5.99673C19.1765 6.8064 19.8181 7.75857 20.2908 8.85323C20.7636 9.94773 21 11.1173 21 12.362C21 13.6065 20.7638 14.7766 20.2915 15.8722C19.8192 16.9677 19.1782 17.9207 18.3685 18.7312C17.5588 19.5417 16.6067 20.1833 15.512 20.656C14.4175 21.1288 13.2479 21.3652 12.0033 21.3652ZM12 20.3652C14.2333 20.3652 16.125 19.5902 17.675 18.0402C19.225 16.4902 20 14.5986 20 12.3652C20 10.1319 19.225 8.24023 17.675 6.69023C16.125 5.14023 14.2333 4.36523 12 4.36523C9.76667 4.36523 7.875 5.14023 6.325 6.69023C4.775 8.24023 4 10.1319 4 12.3652C4 14.5986 4.775 16.4902 6.325 18.0402C7.875 19.5902 9.76667 20.3652 12 20.3652Z" fill="#121212"/>
</g>
</svg>
