<svg width="81" height="81" viewBox="0 0 81 81" fill="none" xmlns="http://www.w3.org/2000/svg">
<path opacity="0.4" fill-rule="evenodd" clip-rule="evenodd" d="M40.3905 39.5386L39.5967 19.3174C39.5873 19.0781 39.6734 18.8448 39.836 18.669C39.9986 18.4931 40.2244 18.3891 40.4638 18.3797C40.7031 18.3703 40.9364 18.4564 41.1122 18.619C41.2881 18.7816 41.3922 19.0074 41.4016 19.2467V19.3174L40.6078 39.5386C40.6078 39.5674 40.5963 39.595 40.5759 39.6154C40.5556 39.6357 40.5279 39.6472 40.4991 39.6472C40.4703 39.6472 40.4427 39.6357 40.4223 39.6154C40.4019 39.595 40.3905 39.5674 40.3905 39.5386ZM40.6078 41.1854L41.4016 61.4065C41.411 61.6459 41.3249 61.8791 41.1623 62.055C40.9998 62.2309 40.7739 62.335 40.5346 62.3444C40.2953 62.3538 40.062 62.2677 39.8861 62.1052C39.7103 61.9426 39.6061 61.7168 39.5967 61.4775V61.4057L40.3905 41.1845C40.3907 41.1557 40.4023 41.1281 40.4229 41.1079C40.4434 41.0877 40.4711 41.0764 40.4999 41.0766C40.5287 41.0768 40.5563 41.0885 40.5765 41.109C40.5967 41.1295 40.608 41.1572 40.6078 41.1861V41.1854ZM41.3217 40.2542L61.5449 39.4607C61.6634 39.4561 61.7816 39.4748 61.8928 39.5158C62.0041 39.5568 62.1061 39.6194 62.1932 39.6998C62.2802 39.7803 62.3505 39.8771 62.4002 39.9847C62.4498 40.0924 62.4777 40.2087 62.4824 40.3272C62.487 40.4456 62.4684 40.5638 62.4273 40.675C62.3863 40.7862 62.3237 40.8882 62.2433 40.9753C62.1628 41.0623 62.066 41.1327 61.9584 41.1823C61.8507 41.2319 61.7344 41.2599 61.6159 41.2645C61.5915 41.2656 61.5671 41.2645 61.5449 41.2645L41.3217 40.4711C41.2929 40.4711 41.2652 40.4596 41.2448 40.4392C41.2244 40.4188 41.213 40.3911 41.213 40.3623C41.213 40.3335 41.2244 40.3058 41.2448 40.2854C41.2652 40.265 41.2929 40.2536 41.3217 40.2536V40.2542ZM39.6743 40.4711L19.4533 41.2645C19.3349 41.2692 19.2166 41.2505 19.1054 41.2095C18.9942 41.1684 18.8922 41.1059 18.8052 41.0255C18.7181 40.945 18.6477 40.8482 18.5981 40.7406C18.5485 40.6329 18.5205 40.5165 18.5159 40.3981C18.5112 40.2797 18.5299 40.1615 18.5709 40.0503C18.612 39.9391 18.6745 39.837 18.755 39.75C18.8354 39.6629 18.9322 39.5926 19.0399 39.543C19.1475 39.4933 19.2639 39.4654 19.3824 39.4607C19.4045 39.4607 19.4289 39.4607 19.4533 39.4607L39.6743 40.2542C39.7031 40.2554 39.7302 40.2679 39.7497 40.289C39.7693 40.3101 39.7796 40.3381 39.7785 40.3668C39.7775 40.3941 39.7662 40.42 39.7469 40.4392C39.7275 40.4584 39.7016 40.4696 39.6743 40.4704V40.4711ZM40.2907 13.5182L39.5967 3.67247C39.5882 3.55404 39.6032 3.43509 39.6408 3.32245C39.6783 3.2098 39.7377 3.10567 39.8156 3.01601C39.8934 2.92634 39.9882 2.85291 40.0944 2.79992C40.2007 2.74692 40.3164 2.7154 40.4348 2.70716C40.6742 2.69022 40.9105 2.76903 41.0918 2.92627C41.2731 3.0835 41.3845 3.3063 41.4016 3.54566C41.4038 3.58797 41.4038 3.63038 41.4016 3.6727L40.7075 13.5171C40.7041 13.57 40.6806 13.6197 40.6419 13.6559C40.6032 13.6922 40.5522 13.7124 40.4991 13.7124C40.4461 13.7124 40.395 13.6922 40.3563 13.6559C40.3176 13.6197 40.2942 13.57 40.2907 13.5171V13.5182ZM40.7075 67.207L41.4016 77.053C41.4099 77.1715 41.3948 77.2905 41.3572 77.4032C41.3195 77.5158 41.2601 77.62 41.1822 77.7097C41.1043 77.7994 41.0095 77.8728 40.9032 77.9259C40.7969 77.9789 40.6812 78.0105 40.5627 78.0189C40.4442 78.0272 40.3252 78.0121 40.2125 77.9745C40.0998 77.9369 39.9957 77.8774 39.906 77.7995C39.8163 77.7216 39.7428 77.6268 39.6897 77.5205C39.6366 77.4142 39.605 77.2985 39.5967 77.18C39.5945 77.1377 39.5945 77.0953 39.5967 77.053L40.2907 67.207C40.2924 67.1797 40.2994 67.1529 40.3115 67.1283C40.3235 67.1036 40.3404 67.0817 40.361 67.0636C40.3816 67.0455 40.4056 67.0317 40.4316 67.023C40.4576 67.0143 40.4851 67.0108 40.5124 67.0128C40.5629 67.0161 40.6103 67.0375 40.6462 67.0731C40.6821 67.1087 40.7038 67.156 40.7075 67.2064V67.207ZM67.3452 40.1538L77.1919 39.4607C77.4305 39.4449 77.6658 39.5243 77.846 39.6816C78.0263 39.8388 78.1369 40.0611 78.1537 40.2997C78.1704 40.5383 78.0918 40.7738 77.9352 40.9547C77.7787 41.1355 77.5568 41.2469 77.3182 41.2645C77.2762 41.2673 77.2339 41.2673 77.1919 41.2645L67.3452 40.5715C67.2909 40.5697 67.2394 40.5469 67.2016 40.5079C67.1638 40.4688 67.1427 40.4166 67.1427 40.3623C67.1427 40.308 67.1638 40.2558 67.2016 40.2167C67.2394 40.1777 67.2909 40.1549 67.3452 40.1531V40.1538ZM13.653 40.5715L3.80641 41.2645C3.68796 41.273 3.569 41.258 3.45634 41.2205C3.34368 41.183 3.23952 41.1236 3.14979 41.0458C3.06007 40.9681 2.98656 40.8734 2.93343 40.7672C2.8803 40.661 2.84861 40.5454 2.84016 40.4269C2.83172 40.3085 2.8467 40.1895 2.88422 40.0769C2.92175 39.9642 2.98107 39.8601 3.05885 39.7704C3.13664 39.6806 3.23132 39.6071 3.33752 39.554C3.44372 39.5009 3.55934 39.4692 3.67779 39.4607C3.72061 39.4581 3.76358 39.4581 3.80641 39.4607L13.653 40.1538C13.7048 40.1589 13.7529 40.183 13.7878 40.2216C13.8228 40.2601 13.8422 40.3103 13.8422 40.3623C13.8422 40.4143 13.8228 40.4645 13.7878 40.503C13.7529 40.5416 13.7048 40.5657 13.653 40.5708V40.5715ZM41.0047 39.7039L54.7425 24.8443C54.905 24.6685 55.1307 24.5644 55.37 24.555C55.6092 24.5456 55.8424 24.6316 56.0182 24.7941C56.194 24.9566 56.2981 25.1823 56.3075 25.4215C56.3169 25.6607 56.2309 25.8939 56.0684 26.0697C56.0524 26.0873 56.0353 26.104 56.0174 26.1198L41.1576 39.8558C41.1369 39.8733 41.1103 39.8824 41.0832 39.8813C41.0561 39.8802 41.0304 39.8689 41.0112 39.8497C40.9919 39.8306 40.9806 39.8049 40.9794 39.7778C40.9782 39.7507 40.9872 39.7241 41.0047 39.7033V39.7039ZM39.9936 41.0215L26.2535 55.8812C26.173 55.9681 26.0762 56.0383 25.9686 56.0878C25.861 56.1373 25.7447 56.1651 25.6263 56.1697C25.508 56.1742 25.3899 56.1554 25.2788 56.1143C25.1677 56.0732 25.0657 56.0107 24.9788 55.9302C24.8919 55.8497 24.8217 55.7529 24.7722 55.6453C24.7227 55.5377 24.6949 55.4214 24.6904 55.303C24.6858 55.1847 24.7046 55.0666 24.7457 54.9555C24.7868 54.8444 24.8494 54.7425 24.9298 54.6556C24.9454 54.6387 24.9631 54.6212 24.9786 54.6057L39.8406 40.8683C39.851 40.8587 39.8633 40.8511 39.8766 40.8462C39.89 40.8412 39.9041 40.839 39.9184 40.8395C39.9326 40.8401 39.9465 40.8435 39.9594 40.8494C39.9724 40.8554 39.984 40.8639 39.9936 40.8743C40.0114 40.8946 40.0213 40.9206 40.0213 40.9476C40.0213 40.9746 40.0114 41.0006 39.9936 41.0209V41.0215ZM41.1576 40.8683L56.0174 54.6057C56.106 54.6857 56.1778 54.7824 56.2288 54.8903C56.2797 54.9982 56.3087 55.1151 56.3141 55.2343C56.3195 55.3535 56.3013 55.4726 56.2604 55.5847C56.2195 55.6967 56.1567 55.7996 56.0757 55.8873C55.9948 55.9749 55.8972 56.0457 55.7888 56.0954C55.6803 56.1451 55.5631 56.1728 55.4439 56.1769C55.3246 56.181 55.2057 56.1614 55.0941 56.1192C54.9824 56.0771 54.8803 56.0132 54.7935 55.9313C54.7758 55.9155 54.7581 55.8978 54.7425 55.8812L41.0047 41.0215C40.985 41.0006 40.9744 40.9727 40.9753 40.944C40.9761 40.9153 40.9883 40.8881 41.0091 40.8683C41.0294 40.8499 41.0558 40.8396 41.0833 40.8395C41.1107 40.8393 41.1372 40.8494 41.1576 40.8677V40.8683ZM39.8406 39.8571L24.9786 26.1198C24.8916 26.0393 24.8212 25.9424 24.7716 25.8347C24.722 25.7271 24.6941 25.6107 24.6895 25.4922C24.6849 25.3737 24.7036 25.2555 24.7447 25.1443C24.7858 25.0331 24.8484 24.931 24.9289 24.844C25.0094 24.7569 25.1062 24.6866 25.2139 24.637C25.3216 24.5874 25.438 24.5595 25.5565 24.5549C25.6749 24.5502 25.7932 24.569 25.9044 24.6101C26.0156 24.6511 26.1177 24.7137 26.2047 24.7942C26.2225 24.8099 26.238 24.8277 26.2535 24.8443L39.9936 39.7039C40.0129 39.7252 40.0231 39.7532 40.0219 39.7819C40.0206 39.8106 40.008 39.8377 39.9869 39.8571C39.9669 39.8754 39.9407 39.8854 39.9135 39.8851C39.8864 39.8849 39.8604 39.8744 39.8406 39.8558V39.8571ZM59.3344 21.2338L65.8065 13.7816C65.9645 13.6032 66.1865 13.4943 66.4243 13.4787C66.6622 13.4631 66.8965 13.5419 67.0765 13.6982C67.2565 13.8544 67.3675 14.0754 67.3854 14.3131C67.4034 14.5507 67.3268 14.7858 67.1723 14.9673C67.1442 14.9991 67.1138 15.0287 67.0814 15.056L59.6293 21.5278C59.5894 21.563 59.5375 21.5816 59.4844 21.5799C59.4312 21.5782 59.3807 21.5563 59.3431 21.5186C59.3056 21.481 59.2837 21.4305 59.2821 21.3773C59.2805 21.3241 59.2992 21.2723 59.3344 21.2325V21.2338ZM21.6639 59.4928L15.1896 66.945C15.1118 67.0345 15.017 67.1078 14.9108 67.1608C14.8046 67.2137 14.689 67.2452 14.5707 67.2534C14.4523 67.2617 14.3335 67.2465 14.221 67.2089C14.1085 67.1712 14.0045 67.1117 13.9149 67.0339C13.8254 66.956 13.7521 66.8613 13.6992 66.7551C13.6462 66.6489 13.6147 66.5334 13.6065 66.415C13.5982 66.2966 13.6134 66.1778 13.651 66.0653C13.6887 65.9528 13.7481 65.8488 13.826 65.7593C13.8538 65.7277 13.8835 65.6977 13.9147 65.6695L21.3668 59.1975C21.4069 59.1641 21.458 59.1468 21.5101 59.1491C21.5622 59.1513 21.6117 59.1729 21.6488 59.2096C21.6859 59.2463 21.708 59.2955 21.7108 59.3476C21.7136 59.3997 21.6968 59.451 21.6639 59.4914V59.4928ZM59.6293 59.1975L67.0814 65.6695C67.171 65.7472 67.2444 65.8419 67.2975 65.948C67.3506 66.0541 67.3823 66.1697 67.3907 66.288C67.3991 66.4064 67.3841 66.5252 67.3466 66.6378C67.3091 66.7504 67.2498 66.8545 67.172 66.9441C67.0943 67.0337 66.9997 67.1072 66.8935 67.1603C66.7874 67.2133 66.6719 67.245 66.5535 67.2534C66.4351 67.2618 66.3163 67.2469 66.2037 67.2093C66.0911 67.1718 65.987 67.1125 65.8974 67.0348C65.8647 67.0077 65.8344 66.978 65.8065 66.9461L59.3344 59.4939C59.2949 59.4548 59.2726 59.4016 59.2723 59.346C59.272 59.2905 59.2939 59.2371 59.333 59.1976C59.3721 59.1581 59.4252 59.1358 59.4808 59.1355C59.5364 59.1352 59.5898 59.157 59.6293 59.1961V59.1975ZM21.3668 21.5296L13.9147 15.0578C13.7369 14.8995 13.6287 14.6776 13.6134 14.4402C13.5982 14.2027 13.6772 13.9687 13.8332 13.7891C13.9893 13.6095 14.2099 13.4986 14.4472 13.4805C14.6845 13.4624 14.9194 13.5386 15.1009 13.6925C15.1323 13.7202 15.1619 13.7498 15.1896 13.7812L21.6639 21.2334C21.6974 21.2738 21.7145 21.3252 21.7119 21.3776C21.7094 21.43 21.6873 21.4796 21.6501 21.5165C21.6128 21.5535 21.563 21.5751 21.5106 21.5772C21.4581 21.5793 21.4068 21.5617 21.3668 21.5278V21.5296ZM41.3417 39.9769L62.6159 32.2511C62.7273 32.2106 62.8456 32.1925 62.964 32.1977C63.0824 32.203 63.1986 32.2315 63.306 32.2816C63.4134 32.3318 63.5099 32.4026 63.59 32.4901C63.67 32.5775 63.732 32.6798 63.7725 32.7913C63.813 32.9027 63.8311 33.021 63.8259 33.1394C63.8206 33.2578 63.7921 33.374 63.7419 33.4814C63.6917 33.5888 63.6209 33.6853 63.5335 33.7653C63.4461 33.8453 63.3437 33.9073 63.2323 33.9478C63.2123 33.9547 63.1901 33.9615 63.1702 33.9671L41.4082 40.1831C41.3806 40.1919 41.3506 40.1894 41.3249 40.1761C41.2992 40.1629 41.2798 40.1399 41.2709 40.1123C41.2621 40.0848 41.2647 40.0548 41.2779 40.0291C41.2912 40.0033 41.3141 39.9839 41.3417 39.9751V39.9769ZM39.6566 40.7508L18.3824 48.4764C18.2706 48.5186 18.1515 48.5382 18.0321 48.5341C17.9127 48.53 17.7953 48.5021 17.6867 48.4523C17.5781 48.4024 17.4805 48.3314 17.3995 48.2436C17.3186 48.1557 17.2559 48.0526 17.215 47.9403C17.1742 47.828 17.1562 47.7087 17.1618 47.5893C17.1675 47.47 17.1968 47.3529 17.2481 47.245C17.2993 47.137 17.3715 47.0403 17.4604 46.9605C17.5493 46.8807 17.6532 46.8193 17.766 46.7799C17.786 46.773 17.8059 46.7662 17.8259 46.7604L39.5879 40.5444C39.6138 40.5393 39.6407 40.5439 39.6635 40.5571C39.6863 40.5704 39.7036 40.5916 39.712 40.6166C39.7204 40.6416 39.7194 40.6689 39.7092 40.6933C39.699 40.7176 39.6803 40.7375 39.6566 40.7491V40.7508ZM40.8849 41.2067L48.6119 62.4789C48.6896 62.7029 48.676 62.9484 48.5741 63.1624C48.4722 63.3764 48.2902 63.5417 48.0674 63.6227C47.8446 63.7036 47.5989 63.6936 47.3834 63.5949C47.1679 63.4962 46.9999 63.3166 46.9157 63.0951C46.9081 63.0754 46.9014 63.0553 46.8958 63.035L40.6787 41.2734C40.6715 41.2456 40.6753 41.2161 40.6893 41.1911C40.7034 41.1661 40.7267 41.1475 40.7541 41.1393C40.7802 41.1315 40.8082 41.134 40.8325 41.1462C40.8568 41.1584 40.8756 41.1794 40.8849 41.2049V41.2067ZM40.1111 39.5217L32.3863 18.2492C32.3438 18.1374 32.324 18.0183 32.328 17.8987C32.332 17.7792 32.3597 17.6616 32.4095 17.5529C32.4593 17.4441 32.5303 17.3464 32.6182 17.2653C32.7062 17.1842 32.8093 17.1214 32.9218 17.0806C33.0342 17.0398 33.1537 17.0217 33.2731 17.0274C33.3926 17.0331 33.5098 17.0626 33.6178 17.114C33.7258 17.1654 33.8225 17.2377 33.9023 17.3269C33.982 17.416 34.0433 17.5201 34.0825 17.6331C34.0892 17.6524 34.0958 17.6739 34.1025 17.6932L40.3173 39.4547C40.3213 39.4683 40.3226 39.4825 40.3211 39.4965C40.3196 39.5105 40.3153 39.5241 40.3085 39.5365C40.3017 39.5489 40.2925 39.5598 40.2815 39.5686C40.2704 39.5774 40.2577 39.5839 40.2442 39.5878C40.2174 39.595 40.1889 39.592 40.1643 39.5793C40.1397 39.5667 40.1207 39.5452 40.1111 39.5193V39.5217ZM69.0015 30.912L79.265 26.8583C79.3754 26.8148 79.4932 26.7934 79.6118 26.7954C79.7305 26.7974 79.8476 26.8228 79.9564 26.8701C80.0652 26.9174 80.1637 26.9856 80.2462 27.0709C80.3286 27.1562 80.3934 27.257 80.437 27.3673C80.4805 27.4777 80.5019 27.5956 80.4999 27.7142C80.4978 27.8328 80.4724 27.9499 80.4252 28.0587C80.3779 28.1675 80.3097 28.266 80.2243 28.3484C80.139 28.4309 80.0383 28.4957 79.9279 28.5393C79.8931 28.5529 79.8576 28.5646 79.8215 28.5743L69.1301 31.309C69.0771 31.3261 69.0195 31.3214 68.97 31.296C68.9204 31.2706 68.883 31.2266 68.866 31.1736C68.8489 31.1206 68.8536 31.063 68.879 31.0135C68.9044 30.964 68.9485 30.9266 69.0015 30.9095V30.912ZM11.9968 49.8171L1.73329 53.8676C1.51058 53.9548 1.26243 53.9501 1.04317 53.8547C0.823899 53.7592 0.651385 53.5808 0.563401 53.3584C0.475416 53.1361 0.479141 52.8879 0.57374 52.6683C0.668338 52.4487 0.846096 52.2755 1.06812 52.1867C1.10351 52.1726 1.13986 52.161 1.17682 52.1519L11.8682 49.4169C11.9221 49.4033 11.9791 49.4115 12.0268 49.4398C12.0746 49.4681 12.1092 49.5141 12.1232 49.5679C12.135 49.6173 12.1288 49.6694 12.1057 49.7146C12.0825 49.7599 12.0438 49.7953 11.9968 49.8146V49.8171ZM49.9512 68.8647L54.0064 79.128C54.0501 79.2385 54.0716 79.3565 54.0696 79.4753C54.0677 79.5941 54.0424 79.7113 53.9951 79.8203C53.9479 79.9293 53.8796 80.028 53.7943 80.1106C53.7089 80.1932 53.6081 80.2582 53.4976 80.3019C53.3871 80.3456 53.2691 80.367 53.1503 80.3651C53.0315 80.3632 52.9142 80.3379 52.8052 80.2906C52.6962 80.2434 52.5975 80.1751 52.5149 80.0897C52.4322 80.0044 52.3672 79.9036 52.3236 79.7931C52.3104 79.7577 52.2993 79.7216 52.2903 79.6849L49.5543 68.9944C49.5367 68.9418 49.5408 68.8844 49.5656 68.8348C49.5905 68.7852 49.634 68.7475 49.6866 68.7299C49.7392 68.7124 49.7967 68.7165 49.8463 68.7413C49.8959 68.7662 49.9336 68.8097 49.9512 68.8623V68.8647ZM31.0449 11.8641L26.9919 1.60107C26.9482 1.49074 26.9266 1.37289 26.9285 1.25425C26.9304 1.13561 26.9556 1.0185 27.0028 0.909606C27.0499 0.800717 27.1181 0.702181 27.2034 0.619627C27.2886 0.537073 27.3893 0.472116 27.4996 0.428468C27.61 0.384849 27.7279 0.363404 27.8466 0.365357C27.9653 0.36731 28.0825 0.392623 28.1914 0.439851C28.3003 0.487079 28.3988 0.555296 28.4814 0.640608C28.5639 0.72592 28.6289 0.826656 28.6725 0.937062C28.6864 0.972336 28.6983 1.00839 28.708 1.04503L31.4418 11.7355C31.4531 11.7864 31.4448 11.8397 31.4188 11.8849C31.3927 11.9301 31.3507 11.964 31.301 11.9798C31.2513 11.9956 31.1974 11.9922 31.15 11.9704C31.1026 11.9485 31.0652 11.9097 31.0449 11.8616V11.8641ZM41.3882 40.6278L62.4895 48.8127C62.7093 48.9019 62.8852 49.0739 62.9791 49.2916C63.0731 49.5094 63.0776 49.7554 62.9917 49.9764C62.9058 50.1974 62.7363 50.3758 62.5199 50.4729C62.3036 50.5701 62.0577 50.5782 61.8354 50.4955C61.8177 50.4882 61.7955 50.4791 61.7778 50.4707L41.3018 40.8264C41.2751 40.815 41.2541 40.7934 41.2433 40.7664C41.2326 40.7395 41.233 40.7093 41.2445 40.6827C41.2559 40.656 41.2775 40.635 41.3045 40.6242C41.3315 40.6135 41.3616 40.6139 41.3882 40.6254V40.6278ZM39.61 40.1012L18.5088 31.9161C18.397 31.8742 18.2947 31.8106 18.2077 31.7289C18.1207 31.6472 18.0508 31.549 18.002 31.4401C17.9532 31.3313 17.9265 31.2138 17.9234 31.0945C17.9203 30.9752 17.9409 30.8565 17.984 30.7452C18.0271 30.6339 18.0919 30.5323 18.1745 30.4462C18.2572 30.3602 18.3561 30.2913 18.4655 30.2437C18.5749 30.1961 18.6927 30.1707 18.812 30.1689C18.9314 30.1671 19.0498 30.189 19.1606 30.2333C19.1806 30.2409 19.2005 30.2497 19.2183 30.2584L39.6943 39.9026C39.7167 39.9161 39.7335 39.9372 39.7415 39.962C39.7495 39.9869 39.7483 40.0138 39.738 40.0378C39.7278 40.0619 39.7091 40.0814 39.6856 40.0927C39.6621 40.1041 39.6352 40.1066 39.61 40.0997V40.1012ZM40.2353 41.2541L32.0493 62.3541C32.0076 62.4661 31.9439 62.5686 31.8622 62.6558C31.7804 62.743 31.6822 62.8131 31.5732 62.862C31.4641 62.9109 31.3465 62.9377 31.227 62.9408C31.1075 62.9439 30.9886 62.9232 30.8772 62.88C30.7658 62.8367 30.664 62.7718 30.5779 62.6889C30.4918 62.6061 30.423 62.507 30.3754 62.3973C30.3279 62.2876 30.3027 62.1696 30.3011 62.0502C30.2996 61.9307 30.3218 61.812 30.3665 61.7012C30.3731 61.6821 30.3842 61.6615 30.3908 61.6431L40.0357 41.1688C40.0486 41.1454 40.0697 41.1276 40.0949 41.1187C40.1201 41.1099 40.1477 41.1106 40.1724 41.1208C40.1971 41.131 40.2171 41.15 40.2287 41.174C40.2403 41.1981 40.2427 41.2256 40.2353 41.2512V41.2541ZM40.763 39.4758L48.9467 18.3725C48.9883 18.2602 49.0517 18.1572 49.1334 18.0697C49.2151 17.9821 49.3134 17.9117 49.4226 17.8625C49.5317 17.8133 49.6496 17.7863 49.7693 17.7831C49.889 17.7799 50.0081 17.8006 50.1198 17.8439C50.2314 17.8872 50.3334 17.9523 50.4196 18.0354C50.5058 18.1184 50.5747 18.2178 50.6221 18.3278C50.6696 18.4377 50.6947 18.556 50.6959 18.6757C50.6972 18.7955 50.6747 18.9143 50.6296 19.0252C50.6226 19.045 50.6144 19.0644 50.6052 19.0833L40.9603 39.5578C40.9482 39.5827 40.927 39.6019 40.9011 39.6115C40.8751 39.6211 40.8465 39.6204 40.8212 39.6095C40.7958 39.5986 40.7756 39.5783 40.7648 39.5528C40.7539 39.5274 40.7533 39.4988 40.763 39.4729V39.4758ZM68.1789 52.0069L78.5732 55.7105C78.6857 55.7497 78.7893 55.8107 78.8781 55.8901C78.9669 55.9695 79.0391 56.0657 79.0906 56.1731C79.1421 56.2805 79.1718 56.3971 79.1781 56.516C79.1844 56.635 79.1671 56.754 79.1272 56.8662C79.0873 56.9785 79.0256 57.0817 78.9456 57.17C78.8656 57.2583 78.769 57.3299 78.6612 57.3807C78.5535 57.4315 78.4368 57.4605 78.3178 57.4661C78.1988 57.4716 78.0799 57.4535 77.9679 57.413C77.9322 57.4006 77.8974 57.3858 77.8637 57.3686L68.0148 52.3913C67.9901 52.3791 67.968 52.3622 67.9499 52.3414C67.9318 52.3206 67.918 52.2964 67.9094 52.2702C67.9007 52.2441 67.8973 52.2165 67.8994 52.189C67.9015 52.1615 67.9091 52.1347 67.9217 52.1102C67.9442 52.0642 67.9828 52.0281 68.0302 52.0085C68.0775 51.989 68.1304 51.9873 68.1789 52.004V52.0069ZM12.8194 28.72L2.42286 25.0175C2.20027 24.9345 2.01931 24.7673 1.91906 24.5519C1.81882 24.3366 1.80735 24.0904 1.88718 23.8667C1.96701 23.643 2.13168 23.4597 2.34562 23.3564C2.55955 23.2532 2.80555 23.2383 3.03038 23.315C3.06364 23.3274 3.10132 23.3438 3.13458 23.3593L12.9835 28.3368C13.008 28.3493 13.0297 28.3665 13.0475 28.3874C13.0653 28.4082 13.0788 28.4324 13.0873 28.4585C13.0957 28.4847 13.0989 28.5122 13.0967 28.5395C13.0945 28.5669 13.0869 28.5935 13.0744 28.618C13.0518 28.6633 13.0134 28.6988 12.9663 28.7176C12.9193 28.7364 12.867 28.7372 12.8194 28.72ZM28.8565 68.0402L25.1516 78.4347C25.0711 78.6605 24.9043 78.8451 24.6877 78.9479C24.4712 79.0506 24.2226 79.0632 23.9968 78.9827C23.771 78.9023 23.5864 78.7355 23.4836 78.5189C23.3808 78.3024 23.3683 78.0539 23.4488 77.8281C23.4621 77.7937 23.4776 77.7558 23.4931 77.7239L28.4729 67.8755C28.4852 67.851 28.5021 67.8292 28.5228 67.8113C28.5435 67.7934 28.5675 67.7798 28.5934 67.7712C28.6194 67.7627 28.6468 67.7593 28.6741 67.7614C28.7014 67.7634 28.7279 67.7709 28.7523 67.7833C28.7977 67.8064 28.8332 67.8451 28.8524 67.8923C28.8715 67.9395 28.873 67.992 28.8565 68.0402ZM52.1417 12.6839L55.8445 2.28925C55.9251 2.06348 56.0921 1.87895 56.3087 1.77619C56.5253 1.67342 56.7738 1.66084 56.9996 1.74119C57.1115 1.78096 57.2144 1.84238 57.3025 1.92194C57.3905 2.0015 57.462 2.09764 57.5129 2.20486C57.5637 2.31209 57.593 2.42828 57.5989 2.54681C57.6048 2.66534 57.5873 2.78386 57.5473 2.89561C57.5349 2.93138 57.5201 2.96626 57.503 3.00004L52.5253 12.8482C52.5013 12.8956 52.4601 12.932 52.4102 12.9501C52.3603 12.9682 52.3054 12.9667 52.2566 12.9458C52.2077 12.9249 52.1687 12.8862 52.1474 12.8376C52.1261 12.7889 52.124 12.734 52.1417 12.6839Z" fill="#0050FA"/>
</svg>
