<svg width="30" height="30" viewBox="0 0 30 30" fill="none" xmlns="http://www.w3.org/2000/svg">
<path d="M15.0054 30C12.9312 30 10.9811 29.6064 9.155 28.8192C7.32917 28.0319 5.74083 26.9636 4.39 25.6142C3.03917 24.2647 1.96986 22.6778 1.18208 20.8533C0.394028 19.0292 0 17.0799 0 15.0054C0 12.9312 0.39375 10.9811 1.18125 9.155C1.96875 7.32917 3.0375 5.74083 4.3875 4.39C5.7375 3.03917 7.325 1.96986 9.15 1.18208C10.975 0.394028 12.925 0 15 0H27.5642C28.2458 0 28.8222 0.235556 29.2933 0.706668C29.7644 1.17778 30 1.75417 30 2.43583V15C30 17.075 29.6064 19.025 28.8192 20.85C28.0319 22.675 26.9636 24.2625 25.6142 25.6125C24.2647 26.9625 22.6778 28.0313 20.8533 28.8188C19.0292 29.6063 17.0799 30 15.0054 30ZM14.9979 28.5896C18.7913 28.5896 22.0049 27.2732 24.6388 24.6404C27.2726 22.0074 28.5896 18.7939 28.5896 15V2.43583C28.5896 2.13667 28.4935 1.89097 28.3013 1.69875C28.109 1.50653 27.8633 1.41042 27.5642 1.41042H15C11.2061 1.41042 7.99264 2.72667 5.35958 5.35917C2.72681 7.99167 1.41042 11.2046 1.41042 14.9979C1.41042 18.7913 2.72667 22.0049 5.35917 24.6388C7.99167 27.2726 11.2046 28.5896 14.9979 28.5896ZM7.99583 18.8763H17.9146V15.455L22.9958 18.8763V10.6237L17.9146 14.045V10.6237H7.99583V18.8763Z" fill="#1C1B1F"/>
</svg>
