<svg width="80" height="80" viewBox="0 0 80 80" fill="none" xmlns="http://www.w3.org/2000/svg">
<path d="M33.3351 76.4344C30.3598 76.75 27.4582 77.0716 24.5546 77.3609C23.4207 77.4742 22.8302 77.0332 22.7585 76.1209C22.683 75.1762 23.283 74.6179 24.4037 74.5006C27.6544 74.1648 30.9013 73.7966 34.1501 73.4548C35.4877 73.3152 35.9915 73.8169 36.0254 75.2612C36.0575 76.6124 36.4782 77.0797 37.731 77.0919C39.2403 77.108 40.7496 77.108 42.2589 77.0919C43.5079 77.0797 43.9324 76.6064 43.9626 75.2551C43.9947 73.8108 44.4946 73.3091 45.8398 73.4548C51.8979 74.1162 57.9559 74.7939 64.0139 75.4635C68.3231 75.9408 72.6322 76.4162 76.9432 76.8896C77.0319 76.8997 77.1224 76.8612 77.2639 76.837V73.9645C65.3157 71.3126 53.3864 68.6667 41.3251 65.9884C41.3251 67.7665 41.3194 69.4677 41.3269 71.171C41.3307 71.9235 41.0911 72.4878 40.378 72.7164C39.4346 73.0199 38.6856 72.3705 38.6724 71.2013C38.6536 69.492 38.6668 67.7807 38.6668 65.9965C26.6299 68.6667 14.6987 71.3126 2.72601 73.9686V76.8977C4.16553 76.75 5.55977 76.6165 6.954 76.4607C10.7933 76.0278 14.6327 75.5788 18.4739 75.1499C19.3191 75.0548 19.9436 75.5504 20.0681 76.3515C20.1983 77.2051 19.7474 77.8747 18.8078 77.994C16.0326 78.346 13.2535 78.6434 10.4745 78.9589C7.69546 79.2725 4.91453 79.5597 2.13926 79.9036C0.597868 80.0938 0.00734548 79.6042 0.00357217 77.9758C-0.000201134 76.3919 -0.00208779 74.8081 0.00357217 73.2221C0.00923213 72.0185 0.346943 71.5573 1.40347 71.3105C2.19964 71.1244 3.23164 71.2135 3.72594 70.7017C4.15044 70.2627 3.93347 69.138 4.04856 68.3248C4.41457 65.7275 5.78239 64.0586 8.15203 63.3709C16.2571 61.0183 24.3678 58.6859 32.471 56.3212C35.433 55.4575 37.9159 56.2201 40.1327 58.9327C40.2515 58.6778 40.31 58.423 40.4553 58.2611C42.2646 56.2585 44.4644 55.4838 46.9775 56.1978C55.2146 58.5383 63.4366 60.9394 71.6624 63.3243C72.702 63.6257 73.1869 64.3439 72.9718 65.1631C72.7378 66.0511 72.0058 66.3728 70.8984 66.0552C62.7876 63.7228 54.6807 61.3784 46.57 59.0561C43.8588 58.2793 41.5515 60.023 41.3779 63.0452C43.0325 63.4214 44.7041 63.8078 46.3794 64.178C56.2617 66.3687 66.144 68.5554 76.0282 70.7441C76.8866 70.9343 77.7469 71.1204 78.6072 71.3065C79.5373 71.5088 80.0165 72.0732 79.9996 73.1352C79.9732 74.8202 80.0033 76.5052 79.9882 78.1903C79.9769 79.5112 79.3581 80.0715 78.1205 79.934C70.2512 79.0581 62.382 78.1882 54.5128 77.3103C51.9224 77.0211 49.3358 76.7176 46.6964 76.4162C46.5888 76.6994 46.5001 76.9422 46.4039 77.1809C45.7021 78.9286 44.4588 79.8935 42.6929 79.9522C40.9024 80.0128 39.1082 80.0189 37.3178 79.9522C35.2406 79.8753 33.9784 78.613 33.337 76.4344H33.3351ZM6.80873 70.1211C17.4061 67.7685 28.0015 65.418 38.58 63.0695C38.5913 60.1828 36.1613 58.2692 33.4785 59.0359C25.313 61.3703 17.1514 63.7289 8.99348 66.0956C7.15588 66.6276 6.45027 67.9162 6.80873 70.1211Z" fill="#FFB505"/>
<path d="M15.4502 14.2282C17.652 15.2417 19.6273 16.1479 21.6026 17.0582C27.4512 19.7486 33.3018 22.4329 39.1428 25.1415C39.7296 25.4146 40.2145 25.4369 40.8201 25.1557C48.3327 21.6764 55.8586 18.2315 63.3807 14.7744C63.692 14.6308 63.9957 14.469 64.4372 14.2485C64.1033 14.0603 63.8788 13.9147 63.641 13.8055C56.0359 10.3019 48.4252 6.81045 40.8276 3.28867C40.2258 3.00952 39.7371 3.02772 39.1504 3.30283C35.9619 4.79974 32.7678 6.28047 29.5511 7.70455C29.0794 7.91291 28.421 7.94325 27.9569 7.75108C27.6456 7.62162 27.2833 6.88328 27.3739 6.55153C27.5192 6.02154 27.9323 5.40053 28.3851 5.17397C30.5718 4.0796 32.8093 3.10257 35.028 2.08507C36.3544 1.4762 37.6901 0.891592 39.0013 0.250349C39.6805 -0.0813985 40.2861 -0.0813985 40.9786 0.238212C50.0194 4.41337 59.0659 8.57236 68.1199 12.7111C68.9614 13.0954 69.3217 13.6639 69.3123 14.6369C69.284 17.6367 69.284 20.6387 69.3274 23.6385C69.3331 24.0107 69.5915 24.5225 69.8821 24.7228C71.5839 25.892 72.3517 27.7935 71.8235 29.7476C71.3386 31.5418 69.6859 32.8526 67.9351 32.8324C66.122 32.8122 64.5749 31.4912 64.1051 29.5614C63.6316 27.6155 64.4032 25.7888 66.1503 24.7167C66.2861 24.6338 66.422 24.5488 66.5823 24.4477V16.4534C64.7127 17.303 62.9015 18.1162 61.0959 18.9455C54.4398 22.0041 47.7818 25.0586 41.1351 28.1414C40.3201 28.5197 39.6126 28.4954 38.8032 28.1171C34.696 26.1894 30.5699 24.3061 26.4494 22.4107C26.1362 22.2671 25.8155 22.1437 25.4004 21.9697C25.3721 22.3237 25.3288 22.6049 25.3288 22.8881C25.325 27.9108 25.3382 32.9356 25.3099 37.9583C25.3061 38.6521 25.491 38.9374 26.1249 39.1336C35.3526 41.9797 44.5726 41.9696 53.8059 39.1639C54.4889 38.9556 54.6832 38.6562 54.6757 37.928C54.6436 34.0502 54.6606 30.1744 54.6606 26.2966C54.6606 25.9931 54.6568 25.6897 54.6738 25.3863C54.7172 24.5367 55.1964 24.0795 55.9359 24.033C56.6453 23.9905 57.1208 24.4376 57.2924 25.18C57.3585 25.4692 57.3415 25.7828 57.3415 26.0842C57.3434 30.5001 57.3453 34.918 57.3415 39.3338C57.3415 40.6912 57.0868 41.0917 55.9284 41.4781C48.9459 43.8023 41.8332 44.6782 34.5394 43.8165C31.0321 43.4018 27.6059 42.6392 24.242 41.5266C22.8648 41.0715 22.644 40.7559 22.644 39.2367C22.644 33.4049 22.629 27.571 22.6591 21.7391C22.6629 20.9603 22.4856 20.5638 21.7686 20.2462C18.4632 18.7877 15.1955 17.2362 11.9052 15.7393C11.2581 15.446 10.7166 15.1082 10.7034 14.2545C10.6883 13.3463 11.2638 12.9963 11.9392 12.6889C15.6314 11.0018 19.316 9.29654 23.0025 7.59936C23.0893 7.55891 23.1799 7.53059 23.2685 7.4962C24.1836 7.12602 24.9005 7.34044 25.2174 8.08485C25.5589 8.88792 25.2439 9.70111 24.3458 10.1239C21.963 11.2425 19.565 12.3268 17.1728 13.4252C16.6841 13.6497 16.1974 13.8803 15.4484 14.2303L15.4502 14.2282ZM66.6502 28.552C66.6767 29.3005 67.3144 29.9498 68.0068 29.9276C68.7048 29.9074 69.2746 29.2439 69.2614 28.4732C69.2463 27.662 68.7029 27.1138 67.9369 27.134C67.2162 27.1543 66.6257 27.8056 66.6502 28.552Z" fill="#FFB505"/>
<path d="M3.9336 29.665C4.50714 30.1222 4.99767 30.4074 5.3618 30.8201C9.503 35.5252 13.6253 40.2486 17.7515 44.9679C20.0286 47.5733 22.3039 50.1828 24.5793 52.7923C24.7075 52.94 24.8472 53.0775 24.966 53.2353C25.4698 53.9028 25.4981 54.6027 24.9698 55.25C24.4642 55.8711 23.6529 55.8731 23.0473 55.2157C21.8776 53.9453 20.7531 52.6264 19.6136 51.3237C14.1762 45.1034 8.74079 38.8832 3.30346 32.6629C2.83557 32.1268 2.37711 31.5463 2.79972 30.7978C3.03178 30.3872 3.47137 30.1121 3.93171 29.665H3.9336Z" fill="#FFB505"/>
<path d="M56.0441 55.9446C55.5309 55.5057 54.931 55.2447 54.8442 54.8543C54.7272 54.3243 54.8272 53.5294 55.1441 53.1349C56.6214 51.2982 58.2043 49.5585 59.7514 47.7885C64.6529 42.1812 69.5563 36.5738 74.4616 30.9705C75.4521 29.8377 76.286 29.6314 76.9331 30.3374C77.5878 31.0494 77.4406 31.7756 76.4237 32.9367C70.2336 40.0208 64.0473 47.1109 57.8496 54.1888C57.3289 54.7815 56.7233 55.2892 56.0441 55.9467V55.9446Z" fill="#FFB505"/>
<path d="M7.93926 46.8882C8.4279 47.2139 8.84485 47.3919 9.14106 47.7054C11.2409 49.9204 13.3238 52.1557 15.3972 54.399C16.1424 55.2061 16.2028 55.9586 15.633 56.614C15.0406 57.2957 14.2765 57.2472 13.5011 56.4219C11.3881 54.1725 9.26181 51.9352 7.21479 49.619C6.88462 49.2448 6.76199 48.4518 6.86198 47.9219C6.93556 47.5314 7.53174 47.2563 7.93926 46.8882Z" fill="#FFB505"/>
<path d="M65.2575 57.3241C64.833 56.9458 64.3104 56.6929 64.1557 56.2803C64.001 55.8696 64.0614 55.1839 64.2972 54.8218C64.7557 54.1138 65.399 53.5434 65.9744 52.9244C67.6121 51.1625 69.2534 49.4026 70.8967 47.6447C71.4571 47.046 72.1004 46.9044 72.7551 47.4162C73.3456 47.8774 73.406 48.5368 73.1117 49.2165C73.0098 49.4511 72.8155 49.6494 72.64 49.8375C70.6024 52.0283 68.5686 54.223 66.5121 56.3936C66.1933 56.7314 65.7688 56.9519 65.2575 57.3261V57.3241Z" fill="#FFB505"/>
<path d="M46.6978 52.833C45.5809 52.7865 44.8941 51.4777 45.5563 50.6362C46.4827 49.4609 47.5317 48.3868 48.6033 47.3592C49.0863 46.896 49.8258 46.9486 50.1937 47.5352C50.4616 47.964 50.6673 48.8622 50.4465 49.1434C49.4636 50.3935 48.3259 51.506 47.2223 52.6449C47.0826 52.7885 46.8166 52.7926 46.6959 52.833H46.6978Z" fill="#FFB505"/>
<path d="M34.6563 51.286C34.6129 52.4957 33.3791 53.2279 32.5923 52.5139C31.5169 51.5389 30.5359 50.4324 29.5888 49.3097C29.1454 48.7837 29.2303 48.1 29.6869 47.5619C30.1472 47.0198 30.8132 46.8459 31.2981 47.301C32.4055 48.3407 33.4149 49.4998 34.4394 50.6407C34.5959 50.8147 34.6092 51.1343 34.6563 51.288V51.286Z" fill="#FFB505"/>
<path d="M41.3273 49.9358C41.3273 50.4395 41.3556 50.9452 41.3198 51.4448C41.2632 52.2459 40.6443 52.879 39.9576 52.8001C39.2293 52.7152 38.7181 52.2823 38.686 51.4489C38.6482 50.4435 38.6445 49.4341 38.686 48.4308C38.7181 47.6075 39.3218 47.0249 40.0444 47.0896C40.7896 47.1564 41.2632 47.5953 41.3198 48.4267C41.3537 48.9264 41.3254 49.4321 41.3254 49.9358H41.3273Z" fill="#FFB505"/>
<path d="M6.80118 70.1208C6.44272 67.9159 7.14833 66.6273 8.98593 66.0953C17.1438 63.7306 25.3055 61.372 33.4709 59.0356C36.1537 58.2689 38.5838 60.1825 38.5724 63.0691C27.994 65.4177 17.3985 67.7682 6.80118 70.1208Z" fill="white"/>
<path d="M66.6415 28.5524C66.6151 27.8059 67.2075 27.1546 67.9282 27.1343C68.696 27.1141 69.2375 27.6623 69.2526 28.4735C69.2677 29.2442 68.696 29.9077 67.998 29.9279C67.3056 29.9481 66.6679 29.3008 66.6415 28.5524Z" fill="white"/>
</svg>
