<svg width="80" height="80" viewBox="0 0 80 80" fill="none" xmlns="http://www.w3.org/2000/svg">
<rect width="80" height="80" fill="white"/>
<path d="M16.5289 15.4275C16.2667 15.2547 15.9613 15.1235 15.7508 14.9024C12.5954 11.5741 13.3873 5.85029 17.3001 3.63606C20.9903 1.54791 25.6414 3.71723 26.6334 8.02998C27.258 10.7451 26.6455 13.1614 24.6494 15.1666C24.5511 15.2651 24.3872 15.2962 24.2526 15.3601C24.2941 15.4275 24.3355 15.4931 24.3786 15.5604C25.217 15.804 26.0676 16.0095 26.8922 16.2945C31.1104 17.7557 33.3514 20.7886 33.4187 25.2222C33.4687 28.5021 33.4584 31.7907 32.6837 35.0067C32.1489 37.2261 31.326 39.2607 28.7261 39.8289C28.5708 39.8635 28.4069 40.2642 28.3983 40.5008C28.262 44.0087 28.2413 47.5235 28.0067 51.0227C27.7859 54.3423 27.3873 57.6533 26.9767 60.9574C26.875 61.7795 26.4212 62.5568 26.1124 63.4014H54.3696C52.5823 58.719 53.0999 53.7966 52.6151 48.9069C52.151 48.9069 51.7283 48.9104 51.3039 48.9069C49.5873 48.8931 48.5608 47.9622 48.4314 46.2436C48.3814 45.5873 48.4159 44.9206 48.447 44.2608C48.478 43.6322 48.5539 43.0069 48.6178 42.3126C48.3538 42.266 48.1399 42.2124 47.9225 42.1951C46.1093 42.0466 44.9465 41.0414 44.8275 39.2244C44.736 37.834 44.824 36.4109 45.0069 35.0274C45.4693 31.5471 46.1662 28.1152 47.5602 24.8664C49.1198 21.2342 51.4437 18.2997 55.0821 16.557C55.1856 16.5069 55.2857 16.4517 55.3823 16.3912C55.4289 16.3619 55.4617 16.31 55.6842 16.0734C55.146 16.0734 54.7768 16.0786 54.4076 16.0734C52.9756 16.0527 52.3132 15.4499 52.3684 14.0146C52.446 12.0353 52.5202 10.0421 52.8066 8.08698C53.2965 4.78462 56.0103 2.69302 59.4262 2.79665C62.7748 2.89855 65.5041 5.32177 65.8233 8.53259C65.9941 10.2477 66.1269 11.9679 66.1994 13.6899C66.277 15.5086 65.7077 16.0441 63.8686 16.0596C63.5995 16.0613 63.3303 16.089 62.8421 16.1166C63.1561 16.3429 63.2734 16.4551 63.4132 16.5225C67.5571 18.4794 69.9396 21.9423 71.4854 26.0841C72.8811 29.8251 73.4918 33.7424 73.8662 37.6976C73.9249 38.3176 73.8386 38.9671 73.7161 39.5837C73.4038 41.1571 72.3256 42.0656 70.7177 42.1917C70.4951 42.209 70.2726 42.2435 69.9638 42.2815C70.0293 43.2591 70.1311 44.1952 70.1432 45.1331C70.1518 45.7583 70.1242 46.4077 69.9603 47.0053C69.6118 48.2731 68.7406 48.8793 67.4156 48.9069C66.8739 48.9173 66.3305 48.9087 65.7439 48.9087C65.197 53.7603 65.7801 58.6948 63.9152 63.4549C64.2447 63.4549 64.5414 63.4549 64.8399 63.4549C68.5198 63.4549 72.1996 63.4549 75.8795 63.4549C76.109 63.4549 76.3902 63.3772 76.5575 63.4808C76.8301 63.6483 77.1475 63.9091 77.2131 64.1855C77.2493 64.3427 76.8474 64.6501 76.592 64.8107C76.4454 64.9023 76.2004 64.8366 75.9986 64.8366C69.8758 64.8591 63.7547 64.8954 57.632 64.8971C52.515 64.8971 47.398 64.8591 42.2811 64.8384C41.974 64.8384 41.6669 64.8384 41.1907 64.8384C41.4288 65.2805 41.5772 65.5776 41.7428 65.8643C43.6095 69.1027 45.4779 72.3377 47.3446 75.5745C48.026 76.7558 47.7793 77.2118 46.4457 77.2135C42.1051 77.2187 37.7628 77.2187 33.4221 77.2135C32.1834 77.2135 31.9074 76.7403 32.5164 75.6798C34.3934 72.4155 36.2774 69.1528 38.1544 65.8902C38.32 65.6035 38.4666 65.3064 38.6754 64.9144C38.2941 64.8815 38.0474 64.8418 37.8024 64.8435C32.054 64.8729 26.3039 64.9316 20.5555 64.9316C14.9503 64.9316 9.34512 64.8694 3.73991 64.8435C3.21718 64.8418 2.77207 64.7192 2.79795 64.1181C2.8221 63.5153 3.29999 63.4532 3.80375 63.4532C7.1679 63.4618 10.5321 63.4566 13.8962 63.4566C14.1981 63.4566 14.5 63.4566 14.8899 63.4566C13.2958 60.2596 13.2406 56.9106 13.075 53.5962C12.8576 49.2282 12.73 44.8567 12.5333 40.487C12.523 40.2555 12.2693 39.879 12.0709 39.8358C10.3337 39.4541 9.30199 38.2779 8.7896 36.7148C8.30137 35.226 7.93217 33.6646 7.77 32.1067C7.54745 29.965 7.50949 27.7992 7.50259 25.6437C7.48707 20.6262 10.1715 17.2427 15.0694 15.9974C15.4834 15.8921 15.9044 15.8109 16.3219 15.7176C16.3909 15.6226 16.4599 15.5259 16.5289 15.4309V15.4275ZM28.4035 38.2313C28.488 38.2969 28.5743 38.3626 28.6588 38.4265C29.1402 38.0724 29.7526 37.8099 30.0735 37.3452C30.5531 36.6509 30.9534 35.8495 31.1707 35.0343C32.0195 31.8649 32.0299 28.6058 32.0282 25.3552C32.0247 21.6971 30.2564 19.1115 26.8249 17.8058C25.8157 17.4206 24.7167 17.279 23.6782 16.9629C23.29 16.8455 22.731 16.6175 22.643 16.3204C22.474 15.7625 22.3687 15.1166 23.0346 14.6191C25.0221 13.1355 25.7294 11.113 25.3136 8.68976C24.8668 6.09555 22.5326 4.10239 20.1484 4.25956C17.5192 4.43055 15.3851 6.69315 15.2695 9.40826C15.1729 11.6795 15.9337 13.5293 17.8884 14.7798C18.5198 15.1839 18.4663 15.7902 18.3076 16.3049C18.2161 16.6019 17.7434 16.8593 17.3898 16.9785C16.8515 17.1598 16.2615 17.1823 15.7042 17.3135C11.1307 18.3965 8.85171 21.2463 8.91209 25.9442C8.94142 28.1843 9.03113 30.4348 9.28818 32.6577C9.44345 34.0066 9.89028 35.34 10.3544 36.6285C10.6804 37.5318 11.3602 38.2088 12.4746 38.347C12.4902 38.0292 12.5091 37.7753 12.5143 37.5231C12.5971 33.8408 12.6661 30.1585 12.7697 26.4762C12.7852 25.9166 12.6661 25.0996 13.5805 25.1462C14.4328 25.1894 14.243 25.9425 14.2292 26.4865C14.193 27.8959 14.0567 29.3053 14.0756 30.7112C14.1757 38.0741 14.2361 45.4388 14.4724 52.7982C14.5587 55.5116 14.9693 58.2319 15.4455 60.9125C15.7853 62.8193 16.7877 63.3893 18.7078 63.3772C19.4393 63.372 19.7637 63.2165 19.7602 62.3754C19.736 54.8639 19.7602 47.3525 19.7688 39.841C19.7688 39.5526 19.6877 39.2261 19.7982 38.9878C19.931 38.6994 20.2243 38.4869 20.4486 38.2417C20.6849 38.4748 20.9834 38.6734 21.1386 38.9515C21.2491 39.1519 21.168 39.4576 21.168 39.7167C21.168 46.0485 21.168 52.3803 21.1697 58.7121C21.1697 60.0075 21.2094 61.3028 21.1887 62.5965C21.18 63.1665 21.4061 63.3288 21.9512 63.3409C24.225 63.3944 25.1808 62.7278 25.6276 60.4911C25.9485 58.8883 26.2073 57.2595 26.3125 55.6325C26.8353 47.5045 27.1682 39.3695 26.8784 31.2207C26.8163 29.4676 26.7283 27.7128 26.7283 25.9597C26.7283 25.6748 27.1286 25.3915 27.3425 25.1065C27.6047 25.3483 27.9549 25.5452 28.1033 25.8423C28.2448 26.1273 28.193 26.5176 28.1999 26.8631C28.2707 30.1136 28.3379 33.3641 28.4018 36.6147C28.4121 37.1535 28.4018 37.6924 28.4018 38.2313H28.4035ZM59.2882 47.3922C61.9623 47.3922 64.6346 47.3749 67.3087 47.4026C68.0816 47.4112 68.5042 47.0848 68.6319 46.3524C68.6957 45.9863 68.7906 45.6011 68.7372 45.2453C68.1575 41.3834 67.6969 37.4955 66.9067 33.6767C66.3098 30.7889 65.2954 27.9874 64.4431 25.1549C64.2878 24.6367 64.293 24.1514 64.8572 24.0668C65.1453 24.0236 65.5645 24.3759 65.8043 24.654C66.0148 24.8975 66.0614 25.2844 66.1735 25.6109C67.7745 30.3001 68.9442 35.0965 69.6429 40.0034C69.7309 40.6165 69.9482 40.8549 70.5935 40.7495C71.8425 40.5474 72.4395 39.8825 72.3963 38.3539C72.2945 34.7407 71.5872 31.219 70.5245 27.775C69.0925 23.1393 66.6531 19.3205 61.9157 17.4051C61.6552 17.2997 61.4826 16.7988 61.4102 16.4517C61.3429 16.1321 61.4878 15.7746 61.5016 15.4326C61.5241 14.8592 61.826 14.5967 62.3711 14.5863C62.9163 14.576 63.4649 14.5518 64.0084 14.588C64.6105 14.6295 64.8537 14.3911 64.8054 13.7935C64.6622 12.0457 64.6294 10.2822 64.3741 8.55331C64.0049 6.06273 61.9778 4.33211 59.5056 4.20775C56.9885 4.07994 54.9251 5.37877 54.4093 7.80372C53.9814 9.81242 53.9538 11.9075 53.8072 13.9697C53.7934 14.158 54.1609 14.443 54.4093 14.5587C54.6215 14.6589 54.9165 14.5811 55.1753 14.5811C57.0471 14.5811 57.0782 14.5811 57.0868 16.4707C57.0868 16.8092 56.797 17.3377 56.5071 17.4586C52.5202 19.1305 50.1429 22.2429 48.6091 26.1342C47.2255 29.6421 46.6493 33.3365 46.2042 37.0482C46.1041 37.8824 46.218 38.7753 46.4061 39.6027C46.5941 40.4265 47.5516 40.9309 48.39 40.7668C49.1215 40.6234 48.8282 39.9429 48.9663 39.4956C49.0508 39.2227 49.075 38.9325 49.1215 38.6493C49.9134 33.9341 51.0986 29.3191 52.6858 24.8094C52.8618 24.312 53.0861 23.8491 53.714 24.0478C54.3472 24.2481 54.2713 24.7404 54.0919 25.2499C52.2407 30.497 50.9071 35.8737 50.2153 41.3972C50.0169 42.9862 49.9358 44.5976 49.9169 46.2005C49.9065 47.0381 50.4551 47.4233 51.3574 47.4095C54.0021 47.368 56.6469 47.3939 59.2916 47.3939L59.2882 47.3922ZM45.716 75.6608C43.7889 72.3084 41.924 69.0682 39.9607 65.6553C37.9905 69.0837 36.129 72.3274 34.214 75.6608H45.716ZM54.2937 48.9829C54.2937 50.4769 54.2057 51.8587 54.3127 53.2266C54.518 55.826 54.7854 58.4236 55.1391 61.0075C55.2305 61.6707 55.5859 62.4825 56.0914 62.8556C56.6089 63.2373 57.4595 63.1993 58.1702 63.2355C58.2341 63.239 58.4135 62.448 58.4152 62.0265C58.4325 57.9763 58.4239 53.9261 58.4187 49.8759C58.4187 49.5753 58.3859 49.2748 58.3686 48.9829H54.2937ZM59.93 48.9881C59.93 49.3629 59.93 49.6479 59.93 49.9329C59.9248 53.5858 59.9196 57.2388 59.9162 60.8918C59.9162 61.4963 59.9006 62.1025 59.9507 62.7018C59.9679 62.9074 60.1215 63.2183 60.2854 63.277C61.2204 63.6121 62.2348 63.2148 62.7076 62.3167C62.9577 61.8417 63.1992 61.3115 63.251 60.7881C63.5736 57.4443 63.8496 54.0971 64.1222 50.7498C64.1688 50.185 64.1291 49.6151 64.1291 48.9881H59.93Z" fill="#168C39" stroke="#168C39" stroke-width="0.930233"/>
</svg>
