<svg width="47" height="37" viewBox="0 0 47 37" fill="none" xmlns="http://www.w3.org/2000/svg">
<path d="M3.91422 12C3.72216 11.791 4.17293 11.113 3.91422 11C3.65551 10.887 3.21008 10.998 2.92839 11C1.98037 11 1.41919 11.0853 0.956741 12C0.494291 12.9147 0.216821 14.1791 0.956741 15C3.68519 17.4862 5.14595 18.968 5.88587 20C6.83389 21.3135 7.85752 23.5138 7.85752 26C7.85752 29.0726 8.50275 31.4285 10.815 33C12.1099 34.032 14.1718 34.484 15.7441 35V26C15.7441 23.7952 14.2434 21.4777 12.7867 20M33.489 21C32.0554 22.4542 31.5174 23.8656 31.5174 26V35C33.7371 34.2025 35.9062 32.6418 37.4323 31C38.9353 29.3582 39.404 28.2048 39.404 26C39.404 23.3496 39.5111 21.1727 40.3898 20C40.5979 19.6247 41.7371 19.5864 42.3614 19C42.8933 18.4136 42.7923 17.516 43.3473 17C43.8791 16.5074 44.8102 15.516 45.3189 15H46.3047C46.5115 14.8007 46.1934 14.2663 46.3047 14C46.4161 13.7337 46.3071 13.2893 46.3047 13C46.3047 12.3433 46.7441 12.4691 46.3047 12C45.8654 11.5309 45.0268 11 44.3331 11C43.6394 11 42.8008 11.5544 42.3614 12M23.6307 37C25.2262 37 27.08 36.4456 28.5599 36V28C28.5599 26.6162 27.5362 26.032 26.5882 25C25.6402 23.968 24.8562 23 23.6307 23C22.4053 23 21.5519 23.0383 20.6733 24C19.7484 24.9147 18.7016 26.5927 18.7016 28V36C20.1815 36.4456 22.0353 37 23.6307 37ZM16.73 10C16.73 11.9468 14.7058 14 12.7867 14C10.8675 14 9.82918 11.9468 9.82918 10C9.82918 8.05324 10.8675 7 12.7867 7C14.7058 7 16.73 8.05324 16.73 10ZM37.4323 10C37.4323 11.9468 36.394 14 34.4748 14C32.5557 14 30.5315 11.9468 30.5315 10C30.5315 8.05324 32.5557 7 34.4748 7C36.394 7 37.4323 8.05324 37.4323 10ZM26.5882 3C26.5882 4.94676 25.5499 7 23.6307 7C21.7116 7 19.6874 4.94676 19.6874 3C19.6874 1.05324 21.7116 0 23.6307 0C25.5499 0 26.5882 1.05324 26.5882 3ZM26.5882 16C26.5882 17.9468 25.5499 19 23.6307 19C21.7116 19 19.6874 17.9468 19.6874 16C19.6874 14.0532 21.7116 12 23.6307 12C25.5499 12 26.5882 14.0532 26.5882 16Z" fill="white"/>
</svg>
