<svg width="639" height="611" viewBox="0 0 639 611" fill="none" xmlns="http://www.w3.org/2000/svg">
<path d="M30.9567 94.7073C-11.3114 548.984 -88.1911 428.407 421.473 605.956C430.471 609.087 440.259 610.824 450.184 610.972C482.625 611.491 500.306 604.784 515.639 591.472C522.427 585.565 527.281 578.546 530.083 571.022C544.35 532.66 597.728 388.679 633.563 286.37L634.905 281.71C644.613 238.465 636.937 218.55 598.951 195.71L591.512 191.763C442.686 123.008 232.056 30.2707 209.955 20.5651L206.699 19.0366C201.766 16.5731 184.243 8.15863 165.615 3.08324C150.558 -1.02753 134.022 -0.968165 118.847 2.90516C65.1145 16.5879 36.8371 48.5688 30.9764 94.7073H30.9567Z" fill="#134380"/>
</svg>
