<svg width="640" height="611" viewBox="0 0 640 611" fill="none" xmlns="http://www.w3.org/2000/svg">
<path d="M608.91 94.7073C651.238 548.984 728.227 428.407 217.839 605.956C208.828 609.087 199.026 610.824 189.087 610.972C156.6 611.491 138.894 604.784 123.539 591.472C116.742 585.565 111.88 578.546 109.074 571.022C94.7871 532.66 41.3336 388.679 5.44751 286.37L4.1037 281.71C-5.61871 238.465 2.06836 218.55 40.1083 195.71L47.5582 191.763C196.596 123.008 407.525 30.2707 429.657 20.5651L432.918 19.0366C437.858 16.5731 455.406 8.15863 474.06 3.08324C489.138 -1.02753 505.698 -0.968165 520.894 2.90516C574.703 16.5879 603.021 48.5688 608.89 94.7073H608.91Z" fill="#D32413"/>
</svg>
