<svg width="380" height="367" viewBox="0 0 380 367" fill="none" xmlns="http://www.w3.org/2000/svg">
<path fill-rule="evenodd" clip-rule="evenodd" d="M122.764 0.489965C127.481 1.87907 133.848 5.83527 135.037 8.11514C135.31 8.63811 135.797 9.06559 136.12 9.06559C136.443 9.06559 139.381 12.2743 142.65 16.1954C146.563 20.8894 148.471 23.7057 148.237 24.4405C148.042 25.0538 148.101 25.3925 148.369 25.1933C149.098 24.6502 149.848 25.5036 151.896 29.2084C152.917 31.0548 153.893 32.7334 154.064 32.9386C154.421 33.366 155.701 36.0227 157.12 39.2791C157.656 40.51 158.241 41.685 158.419 41.8902C159.039 42.6019 164.905 57.5068 167.082 63.8988C167.362 64.7195 168.121 66.9016 168.769 68.748C172.913 80.5525 177.12 98.9914 179.237 114.629C181.232 129.366 181.409 132.39 181.199 148.2C180.997 163.35 180.863 165.015 179.455 169.835L177.929 175.057L177.552 165.732C177.103 154.624 175.871 138.952 175.323 137.383C175.109 136.767 174.448 133.242 173.854 129.55C171.547 115.196 168.351 100.646 166.152 94.4861C165.713 93.2551 165.163 91.161 164.931 89.8316C164.698 88.5029 164.25 87.2242 163.935 86.99C163.62 86.7565 163.354 85.997 163.342 85.3032C163.33 84.6094 162.782 82.6988 162.123 81.0575C161.465 79.4163 160.917 77.8034 160.905 77.4729C160.821 75.0796 149.669 48.4478 145.692 41.1449C144.686 39.2985 143.579 37.2447 143.231 36.5807C141.623 33.5115 139.996 30.8915 138.422 28.8354C137.479 27.6045 136.845 26.1601 137.012 25.626C137.179 25.0918 137.062 24.8441 136.751 25.0747C136.44 25.3059 133.864 22.6344 131.025 19.1377C128.186 15.6418 124.659 11.7394 123.186 10.4666C118.825 6.69769 117.496 4.91766 117.496 2.8519C117.496 0.10352 119.066 -0.599986 122.764 0.489965ZM221.835 17.498C223.45 19.5234 223.843 19.6667 226.674 19.2638L229.755 18.8244L228.48 21.3065C226.891 24.4017 226.887 25.4887 228.453 28.684L229.701 31.2294L226.544 30.8646C223.626 30.5267 223.254 30.6744 221.633 32.8095L219.88 35.1207L219.176 31.6047C218.567 28.5631 218.133 27.8924 215.954 26.6249C213.623 25.2686 213.533 25.109 214.743 24.4592C215.461 24.0735 216.049 23.4737 216.049 23.126C216.049 22.7784 216.601 22.4941 217.276 22.4941C218.111 22.4941 218.625 21.8376 218.88 20.4426C219.858 15.1062 219.898 15.0667 221.835 17.498ZM301.171 24.3033C301.399 25.0165 301.585 26.2616 301.585 27.0695C301.585 28.0536 302.352 28.9398 303.909 29.7545C305.567 30.6214 305.922 31.0541 305.149 31.263C304.552 31.4241 304.064 31.8673 304.064 32.247C304.064 32.6275 303.646 32.9386 303.134 32.9386C302.463 32.9386 302.205 33.7674 302.205 35.9227C302.205 39.2858 301.689 39.6141 299.978 37.3387C299.005 36.0435 298.337 35.8466 296.147 36.2084C293.675 36.6158 293.537 36.5479 294.13 35.214C295.049 33.1482 294.912 30.2365 293.837 28.9421C292.44 27.2605 292.672 26.9703 295.416 26.9703C297.363 26.9703 298.243 26.5264 299.342 24.9889C300.594 23.2364 300.806 23.1566 301.171 24.3033ZM307.984 56.3662C308.167 56.9414 307.988 57.9336 307.585 58.5699C306.809 59.7987 288.644 70.9861 287.426 70.9861C287.032 70.9861 286.709 71.2681 286.709 71.6128C286.709 71.9575 285.593 72.6826 284.23 73.2242C282.866 73.7658 281.75 74.491 281.75 74.8357C281.75 75.1803 281.489 75.4623 281.171 75.4623C280.345 75.4623 278.028 76.7425 275.862 78.3957C274.839 79.1761 272.259 80.918 270.129 82.2669C267.998 83.6164 266.255 84.9869 266.255 85.3137C266.255 85.6397 265.97 85.9067 265.622 85.9067C264.893 85.9067 259.945 89.6615 259.344 90.6709C259.123 91.0424 258.434 91.1118 257.813 90.8253C257.193 90.5389 256.887 90.5463 257.133 90.8425C257.714 91.5423 255.78 94.1131 254.673 94.1131C254.203 94.1131 253.659 94.6167 253.463 95.2321C253.266 95.8476 252.882 96.3512 252.608 96.3512C251.8 96.3512 247.04 100.291 247.04 100.96C247.04 101.297 246.757 101.573 246.411 101.573C245.904 101.573 240.619 106.347 235.785 111.17C226.899 120.033 215.982 132.095 210.538 139.061C208.557 141.597 206.413 143.156 207.975 140.927C209.234 139.129 211.71 134.326 211.71 133.682C211.71 133.324 211.919 132.919 212.175 132.782C212.431 132.646 213.476 131.048 214.499 129.232C215.522 127.417 217.056 124.9 217.908 123.637C220.57 119.696 237.898 99.0772 241.152 95.9789C242.856 94.3556 244.557 92.5494 244.931 91.9645C245.306 91.3796 245.94 91.1454 246.341 91.4438C246.742 91.7414 246.994 91.6765 246.901 91.299C246.701 90.4941 255.679 82.1766 256.748 82.1766C257.147 82.1766 257.567 81.9244 257.681 81.6171C257.922 80.9643 262.301 76.9544 262.773 76.9544C262.949 76.9544 264.293 75.9845 265.759 74.7984C270.747 70.7646 284.413 62.221 287.949 60.9267C288.801 60.6141 289.777 60.103 290.118 59.7905C290.459 59.4779 291.714 58.9765 292.907 58.6766C294.1 58.3767 295.356 57.8843 295.697 57.5822C296.544 56.8317 303.197 55.3195 305.651 55.3195C306.795 55.3195 307.793 55.7671 307.984 56.3662ZM118.89 56.5795C119.487 56.7675 119.975 57.1905 119.975 57.5195C119.975 57.8485 121.364 59.2511 123.062 60.6357C124.759 62.0203 126.028 63.5557 125.882 64.0473C125.736 64.5397 125.966 64.7799 126.394 64.583C126.822 64.3853 129.85 67.6752 133.123 71.8948C141.01 82.061 144.34 87.1683 143.786 88.2463C143.512 88.7812 143.605 88.9222 144.026 88.6096C144.413 88.3209 145.194 89.005 145.811 90.1726C146.415 91.314 147.263 92.5166 147.698 92.8448C148.132 93.1731 148.487 93.9385 148.487 94.5465C148.487 95.1545 148.906 95.8454 149.417 96.0811C149.928 96.3176 150.347 96.8175 150.347 97.1927C150.347 97.8873 153.425 103.877 154.131 104.558C154.344 104.763 154.714 105.684 154.953 106.605C155.191 107.525 155.721 108.7 156.131 109.216C156.769 110.02 161.166 120.538 162.759 125.073C163.047 125.894 163.859 128.203 164.563 130.204C166.092 134.552 166.276 137.241 164.824 134.026C163.185 130.394 162.12 128.182 161.004 126.086C160.426 125.002 158.996 122.148 157.826 119.745C156.655 117.341 155.539 115.207 155.345 115.002C155.152 114.797 154.619 113.752 154.16 112.679C153.702 111.606 152.687 109.898 151.904 108.882C151.122 107.867 150.049 106.059 149.521 104.864C148.992 103.67 147.858 101.685 147 100.454C146.142 99.2234 144.941 97.4441 144.33 96.5004C141.201 91.6668 137.058 85.6195 135.936 84.2483C135.339 83.5195 134.96 82.9226 135.093 82.9226C135.225 82.9226 134.095 81.4097 132.58 79.5595C130.987 77.6146 130.01 75.8361 130.264 75.3415C130.533 74.8177 130.43 74.6894 129.999 75.0102C129.013 75.7436 115.017 58.6483 115.017 56.7108C115.017 56.0454 116.981 55.979 118.89 56.5795ZM62.1443 73.2748C61.5747 77.2519 61.6162 77.4645 63.3511 79.5056C64.3391 80.6687 65.3315 82.1973 65.5572 82.9038C65.9129 84.0191 65.5342 84.1877 62.6731 84.1877C60.2694 84.1877 59.1023 84.5562 58.3535 85.5522C57.7895 86.3027 57.3277 87.1726 57.3277 87.4859C57.3277 87.7993 56.7699 88.9093 56.088 89.9523C55.374 91.0445 54.8471 91.4108 54.8446 90.8162C54.8428 90.2477 54.5508 88.5244 54.1957 86.9853C53.5752 84.2951 53.4463 84.1877 50.8269 84.1877C47.6776 84.1877 46.9455 83.3529 48.4895 81.5236C51.236 78.2687 51.6364 76.8393 50.7086 73.5993C50.2313 71.9304 49.9213 70.2877 50.0199 69.9482C50.1191 69.6088 51.4157 69.9885 52.9015 70.7912C56.1178 72.5287 57.2118 72.6071 58.5183 71.1904C59.057 70.607 60.2254 69.9109 61.1154 69.6431L62.7338 69.1574L62.1443 73.2748ZM62.0212 137.881C71.0571 138.309 97.2151 143.032 100.451 144.818C101.132 145.195 102.666 145.729 103.86 146.005C105.053 146.282 106.319 146.787 106.673 147.128C107.028 147.47 108.422 148.079 109.772 148.484C112.886 149.416 118.329 151.787 118.736 152.389C118.906 152.642 119.683 153.088 120.461 153.381C122.365 154.095 128.864 157.812 132.682 160.369C138.716 164.41 139.81 165.365 139.508 166.33C139.337 166.876 139.489 167.09 139.853 166.819C140.973 165.986 145.628 170.31 154.344 180.28C157.001 183.32 160.694 188.859 160.063 188.859C159.585 188.859 155.157 185.726 154.297 184.779C153.912 184.356 153.075 183.596 152.437 183.091C151.799 182.586 150.257 181.359 149.012 180.365C144.229 176.547 136.026 170.963 134.543 170.515C133.689 170.257 132.992 169.747 132.992 169.382C132.992 169.015 132.684 168.716 132.307 168.716C131.93 168.716 130.234 167.877 128.537 166.851C126.84 165.825 124.917 164.986 124.263 164.986C123.609 164.986 123.074 164.705 123.074 164.363C123.074 164.02 121.61 163.222 119.82 162.588C108.404 158.551 105.576 157.603 101.69 156.508C99.3039 155.837 95.399 154.97 93.0126 154.583C90.6263 154.195 87.0003 153.534 84.9549 153.112C77.0012 151.475 61.4448 150.598 32.5186 150.154C-0.0149536 149.655 0.348297 149.706 0.348297 145.668C0.348297 144.195 0.862732 143.366 2.3627 142.419C4.61456 140.997 14.2027 139.044 23.5919 138.094C29.2937 137.517 51.7296 137.393 62.0212 137.881ZM312.062 147.013C313.817 148.852 315.154 148.983 316.807 147.478C317.469 146.875 318.22 146.372 318.475 146.359C319.169 146.323 319.037 149.159 318.32 149.692C317.554 150.262 317.495 153.049 318.249 153.049C318.551 153.049 319.243 153.867 319.787 154.867C320.705 156.553 320.699 156.678 319.703 156.596C317.276 156.395 315.234 157.576 314.854 159.402C314.354 161.798 313.776 161.744 312.712 159.204C312.24 158.076 311.795 157.038 311.724 156.898C311.653 156.757 310.528 156.201 309.224 155.661L306.853 154.68L308.529 153.761C309.974 152.968 310.229 152.336 310.388 149.147L310.572 145.453L312.062 147.013ZM307.938 170.642C308.154 170.904 311.625 171.563 315.651 172.108C324.289 173.276 334.239 175.272 335.985 176.186C336.667 176.544 338.201 177.061 339.394 177.336C342.646 178.086 349.4 180.648 351.267 181.84C352.172 182.418 353.212 182.891 353.577 182.891C353.944 182.891 356.411 184.103 359.06 185.585C367.991 190.579 376.336 197.23 375.561 198.738C375.337 199.176 375.418 199.336 375.743 199.095C376.536 198.505 377.307 199.217 378.959 202.064C380.286 204.353 380.299 204.514 379.256 205.98C377.826 207.99 374.326 207.989 370.507 205.977C368.906 205.134 367.039 204.157 366.357 203.806C365.675 203.455 363.862 202.499 362.328 201.682C360.794 200.866 358.423 199.785 357.06 199.28C355.696 198.776 354.301 198.143 353.96 197.874C353.619 197.605 351.249 196.596 348.692 195.631C346.135 194.667 343.067 193.431 341.874 192.887C340.681 192.341 338.376 191.677 336.753 191.41C335.129 191.143 333.66 190.652 333.489 190.317C333.317 189.983 331.577 189.473 329.622 189.184C327.667 188.896 325.402 188.359 324.589 187.993C323.775 187.627 319.731 186.804 315.601 186.167C311.472 185.529 305.862 184.655 303.134 184.225C296.697 183.209 251.608 183.26 243.941 184.292C240.702 184.727 233.087 185.586 227.018 186.2C220.95 186.813 214.395 187.638 212.452 188.031C210.51 188.425 205.992 188.934 202.412 189.162C196.149 189.561 195.998 189.535 198.383 188.47C199.747 187.862 201.421 187.05 202.102 186.666C202.784 186.283 204.039 185.753 204.892 185.489C205.744 185.226 207.278 184.572 208.301 184.036C209.323 183.5 211.485 182.836 213.104 182.558C214.724 182.28 216.049 181.738 216.049 181.353C216.049 180.967 216.676 180.647 217.443 180.64C218.211 180.632 220.79 180.096 223.177 179.449C230.802 177.378 236.086 176.121 240.222 175.396C242.438 175.007 246.761 174.17 249.829 173.535C252.897 172.9 258.476 172.019 262.226 171.577C269.896 170.674 307.328 169.909 307.938 170.642ZM245.219 191.393C245.391 191.599 250.089 192.312 255.659 192.978C261.229 193.643 266.381 194.458 267.106 194.788C267.831 195.118 269.958 195.63 271.833 195.925C275.187 196.454 277.158 197.061 285.779 200.219C299.063 205.084 301.834 210.664 289.188 207.084C286.972 206.457 283.625 205.518 281.75 204.998C279.875 204.478 277.923 203.842 277.412 203.583C276.332 203.037 267.627 200.955 262.226 199.951C260.18 199.571 257.252 198.928 255.718 198.523C251.666 197.453 239.284 195.664 229.995 194.806C225.563 194.396 219.845 193.831 217.288 193.552L212.64 193.043L216.049 192.374C219.821 191.633 244.723 190.796 245.219 191.393ZM164.876 208.605C164.215 209.208 163.255 209.722 162.743 209.749C162.232 209.776 160.698 210.447 159.334 211.24C157.971 212.033 156.42 212.692 155.889 212.707C155.357 212.721 154.381 213.225 153.719 213.827C153.058 214.43 152.098 214.935 151.586 214.951C151.075 214.966 149.839 215.493 148.838 216.12C147.838 216.749 146.591 217.064 146.067 216.822C145.544 216.581 145.309 216.616 145.545 216.899C145.78 217.184 144.796 218.068 143.356 218.864C135.92 222.978 125.197 229.489 124.86 230.094C124.649 230.473 123.769 230.834 122.905 230.896C122.041 230.958 121.463 231.261 121.621 231.569C121.779 231.877 121.473 232.129 120.941 232.129C120.41 232.129 119.975 232.38 119.975 232.688C119.974 232.996 118.649 234.18 117.03 235.319C113.586 237.742 113.231 238.007 106.68 243.077C103.935 245.2 101.202 247.466 100.606 248.112C100.009 248.759 99.3516 249.287 99.1452 249.287C98.9388 249.287 98.0016 250.042 97.062 250.966C96.1229 251.89 94.7246 253.148 93.9547 253.764C90.8754 256.225 83.0824 263.622 82.889 264.267C82.7749 264.645 82.3491 264.954 81.9419 264.954C81.5347 264.954 80.7754 265.542 80.2541 266.26C79.7334 266.977 78.5235 268.237 77.5659 269.057C75.1684 271.111 73.1713 273.104 70.6492 275.958C69.4709 277.292 68.3726 278.383 68.2083 278.383C68.0441 278.383 67.4007 278.971 66.779 279.688C66.1567 280.406 64.4435 282.169 62.9708 283.605C60.1871 286.32 56.0175 290.624 54.2982 292.557C53.7509 293.173 52.1963 294.673 50.8438 295.892C49.4914 297.11 47.8271 298.737 47.1453 299.507C44.6034 302.378 38.3859 307.38 36.7434 307.877C35.7033 308.191 34.6843 308.033 34.1209 307.47C33.1062 306.456 32.8304 304.131 33.8122 304.862C34.1593 305.12 34.269 304.83 34.0657 304.191C33.4608 302.294 43.6793 287.489 44.9431 288.429C45.2251 288.64 45.4172 288.227 45.3708 287.513C45.3181 286.705 45.6925 286.255 46.3637 286.318C46.9569 286.374 47.2705 286.087 47.061 285.679C46.5987 284.778 52.9649 277.498 53.7229 278.061C54.018 278.28 54.101 277.965 53.9083 277.36C53.7019 276.713 54.0688 275.93 54.7965 275.46C55.4783 275.022 56.4068 274.233 56.8593 273.71C57.3117 273.185 59.077 271.438 60.7816 269.826C62.4861 268.214 64.1596 266.533 64.5005 266.091C64.8414 265.648 66.9333 263.616 69.1492 261.576C71.3651 259.536 73.3176 257.677 73.4881 257.446C74.3719 256.245 83.4828 248.541 84.0189 248.541C84.3635 248.541 84.6449 248.247 84.6449 247.886C84.6449 247.525 85.4817 246.813 86.5044 246.303C87.5272 245.794 88.364 245.071 88.364 244.697C88.364 244.324 88.8523 243.798 89.4486 243.529C90.0449 243.26 91.8554 241.927 93.4713 240.568C95.0872 239.209 96.6708 238.097 96.9907 238.097C97.3111 238.097 97.9682 237.621 98.4516 237.04C100.085 235.073 121.419 221.684 122.919 221.684C123.345 221.684 123.694 221.349 123.694 220.938C123.694 220.528 124.193 220.192 124.803 220.192C125.412 220.192 127.005 219.521 128.343 218.7C129.68 217.88 131.022 217.208 131.324 217.208C131.627 217.208 132.754 216.74 133.828 216.17C136.386 214.808 141.351 212.829 144.458 211.93C145.822 211.536 147.496 210.903 148.177 210.523C149.632 209.713 161.292 207.51 164.126 207.51C165.977 207.51 166.016 207.567 164.876 208.605ZM322.039 212.315C322.039 212.954 322.296 213.478 322.61 213.478C322.924 213.478 323.364 214.488 323.59 215.722C324.06 218.298 325.481 219.446 328.197 219.446C330.655 219.446 330.6 220.4 328.006 222.782C326.17 224.468 325.864 225.247 325.494 229.179L325.073 233.657L322.363 230.984C319.734 228.391 319.559 228.331 316.507 228.999C314.777 229.377 313.362 229.527 313.362 229.331C313.362 229.135 313.967 227.678 314.707 226.093C316.047 223.223 316.048 223.202 314.862 220.397C314.207 218.848 313.393 217.305 313.052 216.969C312.711 216.631 313.767 216.57 315.398 216.831C318.005 217.25 318.509 217.098 319.561 215.58C320.22 214.628 320.767 213.451 320.779 212.962C320.81 211.613 322.039 210.981 322.039 212.315ZM185.057 213.712C186.932 214.569 188.835 215.707 189.285 216.24C189.736 216.772 190.503 217.208 190.99 217.208C191.477 217.208 191.875 217.521 191.875 217.904C191.875 218.287 192.437 218.814 193.124 219.077C193.811 219.339 194.186 219.917 193.958 220.362C193.706 220.853 193.834 220.952 194.285 220.617C194.935 220.133 196.742 221.609 201.916 226.852C202.495 227.438 202.8 228.246 202.595 228.647C202.389 229.048 202.498 229.169 202.837 228.916C203.502 228.422 212.366 239.091 216.355 245.184C217.697 247.236 218.96 249.082 219.161 249.287C219.856 249.997 230.719 268.318 231.538 270.161C231.99 271.178 232.75 272.481 233.227 273.055C233.704 273.629 233.942 274.576 233.756 275.161C233.571 275.745 233.654 276.046 233.942 275.832C234.231 275.617 234.989 276.607 235.626 278.031C236.264 279.455 236.973 280.621 237.203 280.621C237.433 280.621 237.927 281.544 238.301 282.672C238.675 283.8 239.666 286.067 240.503 287.708C241.34 289.349 242.802 292.539 243.752 294.795C244.701 297.052 245.62 299.066 245.794 299.272C245.968 299.477 246.709 301.155 247.44 303.002C249.599 308.45 254.529 321.157 255.112 322.771C255.408 323.592 256.202 325.786 256.878 327.647C257.554 329.507 258.297 331.945 258.53 333.062C258.763 334.181 259.202 335.279 259.505 335.505C259.808 335.731 260.056 336.432 260.056 337.064C260.056 337.696 260.449 339.271 260.93 340.564C262.892 345.842 264.489 353.55 264.832 359.399C265.192 365.544 265.181 365.609 263.574 366.49C262.285 367.197 261.749 367.175 260.957 366.385C259.923 365.352 255.359 354.127 254.713 351.026C254.51 350.052 254.13 349.256 253.869 349.256C253.607 349.256 253.24 348.332 253.052 347.203C252.749 345.378 250.618 339.373 247.002 330.15C246.341 328.464 245.8 326.702 245.8 326.233C245.8 325.765 245.521 325.383 245.181 325.383C244.84 325.383 244.561 324.899 244.561 324.308C244.561 323.717 243.306 320.022 241.771 316.098C240.237 312.172 238.982 308.627 238.982 308.219C238.982 307.811 238.703 307.478 238.362 307.478C238.021 307.478 237.743 307.059 237.743 306.545C237.743 306.033 236.913 303.766 235.899 301.51C234.884 299.253 233.161 295.224 232.07 292.557C230.978 289.89 229.904 287.54 229.684 287.335C229.462 287.13 228.477 285.032 227.494 282.672C226.511 280.313 225.454 278.383 225.144 278.383C224.835 278.383 224.735 277.678 224.922 276.817C225.109 275.956 225.104 275.44 224.911 275.672C224.567 276.087 222.247 272.979 222.247 272.103C222.247 271.856 221.271 269.982 220.077 267.938C218.884 265.895 217.908 264.089 217.908 263.925C217.908 263.41 211.243 251.214 210.214 249.847C209.673 249.129 209.23 248.328 209.23 248.067C209.23 247.569 201.005 235.08 197.783 230.686C194.171 225.758 186.743 217.55 182.445 213.733C180.099 211.649 180.54 211.646 185.057 213.712ZM158.596 220.788C155.277 222.918 150.703 226.38 149.838 227.418C149.387 227.957 148.779 228.399 148.487 228.399C148.195 228.399 147.587 228.819 147.137 229.331C146.687 229.844 145.063 231.267 143.529 232.494C137.868 237.018 130.252 243.985 126.799 247.795C126.242 248.411 124.269 250.417 122.415 252.254C120.562 254.09 115.194 260.133 110.487 265.682C102.512 275.085 99.5208 277.694 99.5208 275.251C99.5208 274.235 102.202 269.115 103.67 267.326C104.115 266.783 104.479 265.992 104.479 265.567C104.479 265.142 104.912 264.994 105.441 265.239C106.016 265.504 106.244 265.373 106.007 264.912C105.466 263.858 114.251 253.567 115.132 254.223C115.551 254.534 115.656 254.404 115.395 253.897C114.923 252.978 116.558 251.009 121.856 246.115C123.744 244.372 125.696 242.52 126.195 241.999C128.797 239.288 130.13 238.097 130.563 238.097C130.827 238.097 131.412 237.655 131.863 237.116C132.313 236.576 134.076 235.165 135.781 233.981C137.485 232.796 139.019 231.619 139.19 231.364C139.36 231.11 139.918 230.681 140.43 230.411C140.941 230.143 142.475 229.08 143.839 228.049C147.219 225.496 149.171 224.539 150.112 224.973C150.581 225.19 150.775 224.936 150.588 224.349C150.391 223.732 150.919 223.165 151.993 222.841C152.939 222.555 154.893 221.675 156.334 220.884C159.56 219.115 161.318 219.04 158.596 220.788ZM89.7387 298.255C89.4932 299.803 89.8596 300.679 91.4575 302.357L93.488 304.491L91.5381 304.961C90.0995 305.307 89.4858 305.944 89.2001 307.387C88.5623 310.607 88.2251 310.803 86.8627 308.746C86.0179 307.471 84.8576 306.718 83.5541 306.598C81.3369 306.395 81.0779 305.89 82.4756 304.494C83.5404 303.43 83.678 301.278 82.8059 299.317C82.2611 298.093 82.4495 298.001 84.8445 298.326C86.7827 298.589 87.7025 298.366 88.3094 297.486C89.5267 295.72 90.0932 296.025 89.7387 298.255ZM210.734 317.552C212.439 319.91 212.725 320.034 215.538 319.633C217.182 319.399 218.528 319.423 218.528 319.686C218.528 319.95 217.993 321.367 217.338 322.836C216.388 324.972 216.275 325.944 216.78 327.685C217.126 328.882 217.662 330.048 217.969 330.277C218.276 330.506 218.528 331.136 218.528 331.678C218.528 332.457 217.931 332.509 215.659 331.925C212.841 331.202 212.755 331.237 210.8 333.881C208.224 337.367 207.371 337.309 207.371 333.65C207.371 329.764 206.861 328.367 205.445 328.367C204.8 328.367 204.272 328.068 204.272 327.701C204.272 327.336 203.504 326.804 202.567 326.519L200.863 326.002L203.252 324.6C206.928 322.443 207.371 321.755 207.371 318.204C207.371 314.237 208.218 314.072 210.734 317.552Z" fill="#2057CC"/>
<path d="M60.4661 205.373C58.8682 203.695 58.5019 202.819 58.7473 201.271C59.1019 199.041 58.5353 198.736 57.318 200.502C56.7112 201.382 55.7914 201.605 53.8531 201.342C51.4582 201.017 51.2697 201.109 51.8145 202.333C52.6866 204.294 52.5491 206.446 51.4842 207.51C50.0865 208.906 50.3456 209.411 52.5627 209.614C53.8662 209.734 55.0265 210.487 55.8713 211.762C57.2337 213.819 57.5709 213.623 58.2087 210.403C58.4945 208.96 59.1081 208.323 60.5467 207.977L62.4967 207.507L60.4661 205.373Z" fill="#2057CC"/>
<path fill-rule="evenodd" clip-rule="evenodd" d="M261.583 203.41C262.307 205.037 263.105 205.494 264.417 205.034C264.941 204.849 265.502 204.751 265.662 204.815C266.096 204.988 265.464 206.697 264.919 206.824C264.336 206.959 263.757 208.658 264.222 208.871C264.408 208.956 264.675 209.654 264.816 210.423C265.054 211.72 265.026 211.795 264.429 211.464C262.972 210.656 261.484 210.808 260.895 211.825C260.121 213.159 259.775 212.963 259.613 211.1C259.541 210.272 259.469 209.507 259.453 209.401C259.436 209.294 258.851 208.634 258.152 207.934L256.882 206.662L258.093 206.569C259.138 206.488 259.418 206.171 260.136 204.252L260.968 202.029L261.583 203.41ZM254.447 216.796C254.53 217.018 256.541 218.403 258.916 219.873C264.012 223.027 269.755 227.061 270.654 228.116C271.005 228.528 271.85 229.279 272.532 229.785C274.39 231.163 278.054 234.645 278.972 235.905C279.418 236.515 279.967 237.1 280.192 237.203C280.418 237.306 281.703 238.748 283.047 240.407C287.58 245.999 291.429 252.447 290.659 253.157C290.436 253.364 290.454 253.485 290.702 253.428C291.305 253.288 291.642 253.944 292.106 256.163C292.479 257.947 292.455 258.049 291.528 258.658C290.256 259.492 288.099 258.505 286.137 256.189C285.314 255.219 284.353 254.091 284.001 253.683C283.649 253.275 282.718 252.175 281.931 251.24C281.145 250.305 279.894 248.971 279.152 248.276C278.409 247.581 277.673 246.798 277.515 246.536C277.357 246.275 276.092 244.985 274.704 243.67C273.316 242.356 271.666 240.73 271.036 240.059C270.407 239.386 269.116 238.328 268.167 237.706C267.219 237.084 266.409 236.367 266.368 236.113C266.328 235.859 265.355 235.054 264.206 234.325C263.057 233.597 261.766 232.628 261.336 232.173C260.906 231.718 258.573 230.072 256.152 228.515C253.731 226.959 250.444 224.839 248.847 223.806C245.077 221.365 217.28 208.687 212.355 207.161C210.275 206.516 205.415 204.899 201.556 203.566C197.696 202.233 193.497 200.893 192.223 200.587C190.95 200.282 188.066 199.322 185.816 198.454C181.879 196.934 181.791 196.875 183.468 196.892C184.426 196.902 185.616 196.874 186.11 196.83C186.605 196.786 187.482 196.813 188.058 196.891C188.634 196.969 189.707 196.999 190.441 196.957C191.176 196.916 192.637 197.116 193.689 197.401C194.741 197.687 195.663 197.726 195.738 197.489C195.813 197.252 196.262 197.231 196.736 197.443C197.21 197.655 198.904 198.052 200.501 198.326C205.603 199.2 209.103 199.916 211.793 200.636C213.234 201.021 216.061 201.724 218.075 202.198C220.089 202.672 223.698 203.702 226.095 204.487C230.998 206.092 254.214 216.173 254.447 216.796ZM211.762 211.893C211.828 212.069 214.585 213.832 217.888 215.812C221.191 217.792 224.207 219.746 224.59 220.153C224.973 220.561 226.184 221.476 227.282 222.186C229.246 223.457 230.343 224.386 235.042 228.761C242.283 235.501 242.905 239.718 235.808 233.949C234.565 232.938 232.685 231.417 231.63 230.568C230.576 229.719 229.496 228.777 229.232 228.474C228.672 227.833 223.713 224.098 220.579 221.957C219.393 221.146 217.713 219.925 216.846 219.243C214.557 217.442 207.275 212.85 201.717 209.703C199.065 208.202 195.651 206.243 194.13 205.35L191.364 203.726L193.595 204.275C196.064 204.882 211.573 211.386 211.762 211.893ZM158.904 199.844C158.38 200.029 157.688 200.075 157.367 199.948C157.047 199.82 155.971 199.801 154.977 199.904C153.982 200.008 152.899 199.977 152.568 199.836C152.238 199.695 151.539 199.731 151.014 199.915C150.489 200.099 149.799 200.14 149.481 200.005C149.163 199.871 148.298 199.847 147.56 199.951C146.821 200.056 145.992 199.899 145.716 199.602C145.44 199.306 145.288 199.261 145.379 199.502C145.469 199.744 144.69 200.01 143.648 200.095C138.266 200.532 130.392 201.518 130.066 201.795C129.863 201.969 129.25 201.944 128.706 201.739C128.161 201.533 127.746 201.557 127.783 201.791C127.821 202.025 127.583 202.094 127.256 201.944C126.929 201.794 126.612 201.826 126.551 202.016C126.491 202.205 125.445 202.561 124.226 202.806C121.632 203.327 121.362 203.39 116.339 204.665C114.235 205.198 112.11 205.823 111.616 206.053C111.123 206.283 110.615 206.423 110.488 206.365C110.361 206.307 109.637 206.507 108.878 206.811C108.12 207.115 107.013 207.496 106.419 207.658C104.043 208.305 97.8025 210.663 97.5579 211.006C97.4142 211.206 97.0916 211.277 96.8406 211.162C96.5897 211.047 96.0075 211.195 95.5467 211.49C95.0863 211.785 94.0959 212.219 93.3462 212.455C91.4694 213.043 89.8514 213.707 87.7422 214.754C86.7567 215.243 85.8678 215.605 85.7666 215.559C85.6654 215.513 85.1546 215.693 84.632 215.96C84.1089 216.226 82.7105 216.829 81.5237 217.298C79.2805 218.185 75.8742 219.659 74.4387 220.365C73.9817 220.59 72.7321 221.076 71.6616 221.445C70.5913 221.814 69.2494 222.346 68.6796 222.628C66.555 223.679 61.7509 225.007 60.6421 224.85C59.9401 224.75 59.3429 224.365 59.1052 223.86C58.677 222.949 58.9589 221.44 59.422 222.167C59.5856 222.424 59.7096 222.276 59.7086 221.825C59.7045 220.487 68.8799 214.252 69.476 215.187C69.6089 215.396 69.8075 215.196 69.9177 214.743C70.0423 214.231 70.3606 214.059 70.7619 214.287C71.1166 214.489 71.3657 214.4 71.316 214.09C71.2062 213.405 76.5447 210.717 76.9024 211.278C77.0415 211.496 77.1541 211.325 77.1529 210.898C77.1515 210.442 77.5299 210.063 78.0695 209.979C78.575 209.901 79.3005 209.677 79.6811 209.482C80.062 209.287 81.4895 208.709 82.8532 208.197C84.217 207.685 85.5751 207.122 85.8712 206.945C86.1674 206.769 87.8516 206.108 89.6138 205.476C91.3759 204.845 92.9405 204.25 93.0905 204.156C93.8687 203.666 100.981 201.491 101.311 201.642C101.524 201.739 101.754 201.637 101.825 201.414C101.895 201.193 102.549 200.99 103.278 200.964C104.008 200.939 104.664 200.73 104.736 200.499C104.809 200.27 105.212 200.084 105.632 200.086C106.052 200.088 107.427 199.778 108.687 199.397C109.947 199.015 111.139 198.777 111.336 198.867C111.533 198.958 112.031 198.85 112.442 198.628C113.831 197.878 129.581 195.648 130.505 196.071C130.768 196.191 131.048 196.082 131.128 195.83C131.208 195.577 131.58 195.511 131.956 195.683C132.332 195.855 133.444 195.89 134.428 195.762C135.412 195.634 136.369 195.598 136.555 195.684C136.742 195.769 137.527 195.799 138.3 195.75C140.141 195.633 143.585 195.814 145.675 196.136C146.592 196.278 147.747 196.36 148.241 196.318C149.295 196.229 156.908 198.16 158.655 198.958C159.796 199.48 159.808 199.527 158.904 199.844ZM255.036 246.43C254.912 246.824 254.968 247.218 255.162 247.307C255.355 247.395 255.43 248.141 255.329 248.965C255.118 250.683 255.77 251.791 257.444 252.556C258.959 253.249 258.74 253.821 256.678 254.556C255.219 255.077 254.879 255.47 253.887 257.787L252.757 260.426L251.606 258.016C250.49 255.679 250.394 255.592 248.383 255.143C247.244 254.889 246.342 254.581 246.38 254.461C246.418 254.34 247.075 253.614 247.839 252.847C249.223 251.457 249.227 251.445 249.042 249.383C248.939 248.245 248.737 247.065 248.593 246.762C248.448 246.458 249.111 246.718 250.066 247.339C251.591 248.331 251.931 248.38 252.874 247.741C253.465 247.341 254.031 246.771 254.134 246.473C254.415 245.651 255.295 245.609 255.036 246.43ZM170.348 208.678C171.337 209.734 172.288 210.971 172.462 211.426C172.636 211.881 173.024 212.365 173.324 212.502C173.625 212.64 173.809 212.945 173.735 213.18C173.66 213.416 173.904 213.899 174.277 214.255C174.649 214.609 174.768 215.071 174.541 215.281C174.29 215.512 174.349 215.609 174.693 215.53C175.187 215.416 176.013 216.833 178.183 221.52C178.426 222.044 178.457 222.628 178.252 222.817C178.048 223.005 178.091 223.11 178.349 223.051C178.855 222.934 182.244 232.001 183.517 236.878C183.946 238.519 184.365 240.012 184.449 240.195C184.739 240.828 187.872 255.171 188.018 256.536C188.099 257.29 188.314 258.306 188.497 258.794C188.679 259.282 188.642 259.933 188.413 260.24C188.185 260.547 188.178 260.756 188.397 260.706C188.617 260.655 188.892 261.478 189.007 262.534C189.123 263.591 189.334 264.508 189.476 264.573C189.618 264.638 189.743 265.346 189.754 266.146C189.765 266.946 189.935 268.621 190.131 269.867C190.328 271.114 190.609 273.49 190.756 275.147C190.902 276.804 191.077 278.303 191.144 278.479C191.211 278.654 191.342 279.896 191.434 281.239C191.705 285.202 192.273 294.416 192.318 295.574C192.341 296.163 192.404 297.738 192.458 299.074C192.513 300.41 192.498 302.12 192.424 302.874C192.35 303.628 192.407 304.429 192.55 304.653C192.693 304.878 192.709 305.379 192.586 305.768C192.464 306.157 192.4 307.238 192.445 308.169C192.627 311.972 192.113 317.168 191.187 320.866C190.214 324.752 190.195 324.789 189.033 324.878C188.102 324.95 187.775 324.785 187.441 324.076C187.005 323.148 186.375 314.95 186.579 312.859C186.643 312.202 186.564 311.604 186.403 311.531C186.242 311.457 186.195 310.785 186.299 310.037C186.467 308.828 186.321 304.53 185.886 297.831C185.806 296.607 185.815 295.369 185.907 295.081C185.997 294.793 185.9 294.479 185.69 294.383C185.48 294.287 185.402 293.91 185.517 293.546C185.632 293.183 185.577 290.554 185.394 287.705C185.212 284.855 185.128 282.319 185.207 282.068C185.286 281.817 185.179 281.533 184.969 281.436C184.759 281.34 184.669 281.004 184.768 280.688C184.868 280.372 184.797 278.743 184.611 277.067C184.424 275.392 184.146 272.426 183.992 270.476C183.838 268.526 183.633 266.776 183.537 266.588C183.44 266.399 183.241 264.83 183.094 263.1C182.947 261.37 182.67 259.883 182.479 259.796C182.289 259.709 182.364 259.247 182.647 258.769C182.929 258.292 183.027 257.973 182.863 258.062C182.57 258.22 181.745 255.652 181.915 255.113C181.963 254.961 181.726 253.532 181.388 251.937C181.05 250.343 180.799 248.956 180.831 248.855C180.931 248.537 179.195 239.15 178.826 238.017C178.632 237.423 178.515 236.805 178.566 236.644C178.663 236.338 176.022 226.329 174.891 222.716C173.622 218.663 170.641 211.516 168.734 207.954C167.693 206.01 167.966 206.132 170.348 208.678ZM152.666 205.575C150.207 205.951 146.714 206.793 145.979 207.189C145.597 207.394 145.136 207.494 144.956 207.412C144.777 207.33 144.32 207.417 143.943 207.605C143.566 207.795 142.288 208.213 141.105 208.535C136.737 209.726 130.689 211.869 127.82 213.241C127.357 213.463 125.751 214.142 124.252 214.751C122.753 215.359 118.27 217.567 114.291 219.657C107.547 223.198 105.197 223.961 105.672 222.457C105.87 221.831 108.517 219.434 109.77 218.747C110.149 218.538 110.528 218.154 110.61 217.892C110.693 217.631 110.988 217.661 111.267 217.961C111.57 218.286 111.736 218.27 111.679 217.92C111.551 217.118 118.965 213.258 119.381 213.91C119.578 214.22 119.668 214.169 119.606 213.784C119.494 213.085 120.884 212.333 125.101 210.814C126.603 210.272 128.166 209.682 128.575 209.502C130.705 208.566 131.758 208.209 132.025 208.331C132.188 208.405 132.634 208.298 133.017 208.093C133.399 207.887 134.76 207.516 136.041 207.267C137.321 207.018 138.496 206.726 138.65 206.617C138.805 206.508 139.232 206.401 139.6 206.38C139.967 206.359 141.119 206.136 142.16 205.886C144.739 205.267 146.128 205.228 146.624 205.761C146.871 206.026 147.04 205.924 147.038 205.511C147.037 205.075 147.472 204.875 148.197 204.978C148.836 205.069 150.211 205.077 151.253 204.997C153.585 204.817 154.683 205.266 152.666 205.575ZM165.985 279.851C166.577 281.784 166.729 281.941 168.54 282.487C169.599 282.806 170.424 283.2 170.373 283.362C170.321 283.525 169.716 284.247 169.027 284.967C168.026 286.014 167.768 286.58 167.74 287.795C167.721 288.63 167.824 289.498 167.969 289.726C168.114 289.953 168.147 290.412 168.041 290.746C167.89 291.226 167.512 291.089 166.225 290.09C164.629 288.85 164.57 288.847 162.851 289.924C160.586 291.344 160.071 291.068 160.782 288.815C161.538 286.423 161.495 285.419 160.623 285.019C160.225 284.838 159.958 284.504 160.029 284.279C160.1 284.054 159.73 283.51 159.208 283.07L158.258 282.272L160.003 282.082C162.688 281.79 163.095 281.492 163.785 279.305C164.556 276.862 165.11 276.999 165.985 279.851Z" fill="#DA1E40"/>
<path fill-rule="evenodd" clip-rule="evenodd" d="M188.965 58.1645C191.4 60.6653 194.175 65.2657 194.314 67.0312C194.345 67.4362 194.527 67.8616 194.717 67.9769C194.907 68.0922 195.847 71.0288 196.807 74.5024C197.954 78.6603 198.385 80.9983 198.066 81.3472C197.8 81.638 197.752 81.8585 197.958 81.8369C198.521 81.7778 198.753 82.5476 199.047 85.4581C199.193 86.9087 199.354 88.2444 199.404 88.4261C199.509 88.805 199.609 90.825 199.643 93.2471C199.655 94.1624 199.71 95.0624 199.765 95.2468C199.954 95.8866 199.739 106.749 199.446 111.286C199.409 111.869 199.319 113.423 199.246 114.741C198.779 123.164 196.717 135.513 194.113 145.467C191.659 154.849 191.018 156.691 187.002 165.916C183.154 174.756 182.665 175.688 180.649 178.021L178.465 180.548L180.538 174.927C183.009 168.233 186.142 158.574 186.206 157.455C186.232 157.017 186.71 154.707 187.27 152.323C189.445 143.056 191.146 133.356 191.368 128.947C191.413 128.066 191.604 126.638 191.795 125.773C191.985 124.908 192.036 123.996 191.908 123.746C191.781 123.496 191.811 122.954 191.974 122.542C192.138 122.13 192.286 120.81 192.302 119.61C192.318 118.409 192.393 117.264 192.467 117.066C193.007 115.628 192.998 95.9805 192.455 90.2648C192.317 88.8198 192.171 87.2164 192.13 86.7015C191.938 84.3218 191.625 82.1997 191.205 80.4284C190.953 79.3677 190.935 78.2918 191.165 78.0373C191.395 77.7826 191.387 77.5951 191.147 77.6198C190.907 77.6448 190.048 75.1534 189.237 72.0831C188.427 69.0132 187.311 65.4582 186.757 64.184C185.118 60.4101 184.773 58.8883 185.282 57.6731C185.958 56.0564 187.056 56.203 188.965 58.1645ZM281.945 128.402C281.903 128.902 281.706 129.701 281.507 130.177C281.265 130.755 281.498 131.551 282.215 132.586C282.977 133.688 283.08 134.069 282.573 133.916C282.182 133.797 281.786 133.884 281.692 134.107C281.599 134.331 281.276 134.365 280.975 134.182C280.579 133.943 280.223 134.338 279.692 135.606C278.864 137.584 278.48 137.593 278.033 135.644C277.778 134.534 277.434 134.18 276.055 133.611C274.5 132.968 274.435 132.879 275.113 132.306C276.162 131.419 276.799 129.657 276.484 128.512C276.076 127.024 276.284 126.937 277.9 127.916C279.046 128.611 279.673 128.664 280.699 128.152C281.867 127.568 282.012 127.597 281.945 128.402ZM278.062 149.695C278.028 150.099 277.678 150.618 277.284 150.849C276.525 151.294 263.075 151.391 262.358 150.956C262.126 150.815 261.867 150.866 261.782 151.069C261.697 151.272 260.861 151.3 259.925 151.132C258.989 150.964 258.154 150.992 258.069 151.195C257.984 151.397 257.761 151.47 257.573 151.356C257.087 151.062 255.408 150.988 253.725 151.187C252.931 151.281 250.983 151.384 249.397 151.417C247.81 151.45 246.446 151.634 246.366 151.827C246.285 152.018 246.052 152.074 245.847 151.949C245.418 151.689 241.58 152.132 240.978 152.511C240.756 152.651 240.334 152.446 240.038 152.055C239.744 151.665 239.562 151.56 239.634 151.822C239.804 152.442 238.032 153.264 237.38 152.868C237.104 152.701 236.659 152.802 236.392 153.095C236.125 153.386 235.775 153.545 235.613 153.448C235.137 153.159 231.365 153.778 231.2 154.171C231.117 154.37 230.882 154.431 230.679 154.307C230.381 154.127 226.094 155.048 222.06 156.159C214.646 158.201 205.248 161.399 200.328 163.554C198.537 164.338 196.891 164.49 198.36 163.736C199.544 163.128 202.184 161.187 202.342 160.807C202.431 160.597 202.653 160.434 202.838 160.444C203.022 160.455 204.031 159.889 205.08 159.186C206.129 158.483 207.652 157.55 208.465 157.111C211.003 155.743 226.281 149.8 228.96 149.139C230.363 148.792 231.809 148.337 232.174 148.127C232.538 147.916 232.969 148.005 233.132 148.324C233.295 148.642 233.459 148.694 233.497 148.438C233.577 147.893 240.911 146.206 241.541 146.587C241.776 146.73 242.085 146.731 242.228 146.591C242.53 146.293 246.096 145.498 246.374 145.666C246.477 145.729 247.507 145.638 248.663 145.464C252.592 144.871 262.742 144.724 265.143 145.225C265.721 145.346 266.422 145.393 266.7 145.331C266.977 145.269 267.84 145.422 268.616 145.672C269.392 145.921 270.253 146.08 270.528 146.024C271.212 145.885 275.501 147.37 276.946 148.246C277.619 148.655 278.097 149.274 278.062 149.695ZM124.295 94.8881C122.981 97.0243 122.953 97.1642 123.472 98.9843C123.767 100.021 123.975 101.275 123.934 101.771C123.869 102.554 123.604 102.518 121.92 101.496C120.505 100.638 119.727 100.439 119.041 100.757C118.524 100.997 118.038 101.344 117.961 101.528C117.883 101.713 117.282 102.167 116.623 102.537C115.934 102.924 115.534 102.952 115.679 102.601C115.818 102.266 116.07 101.148 116.24 100.116C116.537 98.3118 116.487 98.2026 114.945 97.2675C113.091 96.1432 112.865 95.3908 114.225 94.866C116.643 93.9317 117.231 93.2338 117.482 90.9966C117.612 89.8445 117.834 88.7675 117.976 88.603C118.118 88.4387 118.788 89.125 119.465 90.1276C120.931 92.2978 121.556 92.7345 122.674 92.3675C123.134 92.2166 123.994 92.2243 124.584 92.3845L125.656 92.6765L124.295 94.8881ZM119.374 117.301C124.589 120.779 138.828 132.895 140.293 135.1C140.601 135.565 141.373 136.427 142.008 137.016C142.642 137.604 143.263 138.354 143.388 138.681C143.512 139.008 144.183 139.865 144.878 140.585C146.482 142.244 149.103 145.583 149.194 146.082C149.232 146.292 149.58 146.831 149.966 147.281C150.911 148.381 153.823 152.888 155.441 155.755C157.999 160.286 158.407 161.238 157.992 161.698C157.757 161.958 157.794 162.138 158.075 162.109C158.939 162.018 160.615 166.224 163.293 175.2C164.109 177.937 164.919 182.514 164.548 182.289C164.266 182.118 162.431 178.694 162.157 177.83C162.035 177.444 161.729 176.699 161.478 176.173C161.227 175.648 160.621 174.377 160.133 173.347C158.256 169.394 154.801 163.18 154.039 162.387C153.599 161.931 153.314 161.382 153.404 161.167C153.494 160.951 153.387 160.666 153.165 160.531C152.943 160.397 152.151 159.297 151.404 158.088C150.658 156.879 149.732 155.699 149.347 155.465C148.962 155.232 148.716 154.876 148.801 154.674C148.885 154.473 148.219 153.48 147.322 152.469C141.594 146.018 140.163 144.451 138.144 142.42C136.905 141.173 134.819 139.269 133.509 138.189C132.2 137.109 130.228 135.426 129.127 134.448C124.847 130.646 115.904 124.576 98.9825 113.989C79.9506 102.081 80.1519 102.241 81.1462 99.865C81.5088 98.9987 82.0157 98.6947 83.1321 98.6729C84.8079 98.6407 90.9342 100.914 96.696 103.707C100.195 105.404 113.435 113.34 119.374 117.301Z" fill="#DA1E40"/>
</svg>
