<svg width="225" height="225" viewBox="0 0 225 225" fill="none" xmlns="http://www.w3.org/2000/svg">
<path opacity="0.4" fill-rule="evenodd" clip-rule="evenodd" d="M112.192 110.175L109.959 53.3029C109.933 52.6299 110.175 51.9739 110.633 51.4793C111.09 50.9847 111.725 50.692 112.398 50.6656C113.071 50.6393 113.727 50.8814 114.222 51.3386C114.716 51.7959 115.009 52.431 115.036 53.104V53.3029L112.803 110.175C112.803 110.256 112.771 110.334 112.714 110.391C112.656 110.448 112.579 110.48 112.498 110.48C112.417 110.48 112.339 110.448 112.282 110.391C112.224 110.334 112.192 110.256 112.192 110.175ZM112.803 114.807L115.036 171.679C115.062 172.352 114.82 173.008 114.363 173.502C113.906 173.997 113.27 174.29 112.597 174.316C111.924 174.343 111.268 174.101 110.774 173.644C110.279 173.186 109.986 172.551 109.959 171.878V171.676L112.192 114.804C112.193 114.723 112.225 114.646 112.283 114.589C112.341 114.532 112.419 114.5 112.5 114.501C112.581 114.501 112.658 114.534 112.715 114.592C112.772 114.65 112.804 114.728 112.803 114.809V114.807ZM114.811 112.188L171.689 109.956C172.022 109.943 172.355 109.996 172.667 110.111C172.98 110.226 173.267 110.402 173.512 110.628C173.757 110.855 173.955 111.127 174.094 111.43C174.234 111.733 174.312 112.06 174.325 112.393C174.339 112.726 174.286 113.058 174.171 113.371C174.055 113.684 173.879 113.971 173.653 114.216C173.427 114.461 173.154 114.658 172.852 114.798C172.549 114.938 172.222 115.016 171.888 115.029C171.82 115.032 171.751 115.029 171.689 115.029L114.811 112.798C114.73 112.798 114.652 112.765 114.595 112.708C114.538 112.651 114.505 112.573 114.505 112.492C114.505 112.411 114.538 112.333 114.595 112.275C114.652 112.218 114.73 112.186 114.811 112.186V112.188ZM110.178 112.798L53.3062 115.029C52.9731 115.042 52.6405 114.99 52.3277 114.874C52.015 114.759 51.7281 114.583 51.4832 114.357C51.2384 114.131 51.0405 113.858 50.9009 113.556C50.7613 113.253 50.6828 112.926 50.6697 112.592C50.6566 112.259 50.7091 111.927 50.8245 111.614C50.9399 111.301 51.1158 111.014 51.3421 110.77C51.5684 110.525 51.8406 110.327 52.1434 110.187C52.4461 110.048 52.7735 109.969 53.1066 109.956C53.169 109.956 53.2376 109.956 53.3062 109.956L110.178 112.188C110.259 112.191 110.335 112.226 110.39 112.286C110.445 112.345 110.474 112.424 110.471 112.505C110.468 112.581 110.436 112.654 110.382 112.708C110.327 112.762 110.254 112.793 110.178 112.796V112.798ZM111.911 36.9928L109.959 9.30161C109.936 8.96851 109.978 8.63398 110.083 8.31716C110.189 8.00035 110.356 7.70747 110.575 7.45529C110.794 7.20312 111.061 6.99659 111.359 6.84754C111.658 6.6985 111.984 6.60985 112.317 6.58668C112.99 6.53901 113.655 6.76067 114.164 7.2029C114.674 7.64514 114.988 8.27174 115.036 8.94494C115.042 9.06396 115.042 9.18322 115.036 9.30223L113.084 36.9897C113.074 37.1385 113.008 37.2781 112.899 37.3801C112.79 37.482 112.647 37.5388 112.498 37.5388C112.348 37.5388 112.205 37.482 112.096 37.3801C111.987 37.2781 111.921 37.1385 111.911 36.9897V36.9928ZM113.084 187.993L115.036 215.684C115.059 216.018 115.017 216.352 114.911 216.669C114.805 216.986 114.638 217.279 114.419 217.531C114.199 217.783 113.933 217.99 113.634 218.139C113.335 218.289 113.01 218.377 112.676 218.401C112.343 218.424 112.008 218.382 111.691 218.276C111.375 218.17 111.082 218.003 110.829 217.784C110.577 217.565 110.37 217.298 110.221 216.999C110.072 216.7 109.983 216.375 109.959 216.042C109.953 215.923 109.953 215.803 109.959 215.684L111.911 187.993C111.916 187.916 111.936 187.84 111.97 187.771C112.004 187.702 112.051 187.64 112.109 187.589C112.167 187.538 112.235 187.5 112.308 187.475C112.381 187.45 112.458 187.441 112.535 187.446C112.677 187.456 112.81 187.516 112.911 187.616C113.012 187.716 113.073 187.849 113.084 187.991V187.993ZM188.002 111.905L215.696 109.956C216.367 109.912 217.029 110.135 217.536 110.577C218.043 111.019 218.354 111.645 218.401 112.316C218.448 112.987 218.227 113.649 217.787 114.158C217.346 114.666 216.722 114.98 216.051 115.029C215.933 115.037 215.814 115.037 215.696 115.029L188.002 113.08C187.849 113.075 187.705 113.011 187.598 112.901C187.492 112.791 187.433 112.645 187.433 112.492C187.433 112.339 187.492 112.192 187.598 112.082C187.705 111.973 187.849 111.908 188.002 111.903V111.905ZM36.9929 113.08L9.29926 115.029C8.96613 115.053 8.63157 115.011 8.3147 114.905C7.99784 114.8 7.7049 114.633 7.45254 114.414C7.20019 114.195 6.99345 113.929 6.84402 113.63C6.6946 113.332 6.60545 113.007 6.58171 112.674C6.55796 112.34 6.60009 112.006 6.70563 111.689C6.81118 111.372 6.978 111.079 7.19677 110.827C7.41554 110.575 7.68184 110.368 7.98053 110.218C8.27921 110.069 8.6044 109.98 8.93753 109.956C9.05798 109.949 9.17882 109.949 9.29926 109.956L36.9929 111.905C37.1386 111.92 37.2737 111.988 37.372 112.096C37.4703 112.204 37.5249 112.345 37.5249 112.492C37.5249 112.638 37.4703 112.779 37.372 112.888C37.2737 112.996 37.1386 113.064 36.9929 113.078V113.08ZM113.919 110.64L152.557 68.8474C153.014 68.3529 153.649 68.0602 154.322 68.0338C154.995 68.0073 155.65 68.2491 156.145 68.7062C156.639 69.1632 156.932 69.7979 156.959 70.4707C156.985 71.1435 156.743 71.7993 156.286 72.2937C156.241 72.3433 156.193 72.3904 156.143 72.4347L114.35 111.067C114.291 111.116 114.217 111.142 114.14 111.139C114.064 111.136 113.992 111.104 113.938 111.05C113.884 110.996 113.852 110.924 113.848 110.848C113.845 110.771 113.87 110.697 113.919 110.638V110.64ZM111.076 114.346L72.4317 156.139C72.2054 156.383 71.9331 156.58 71.6305 156.72C71.3278 156.859 71.0007 156.937 70.6678 156.95C70.3349 156.963 70.0027 156.91 69.6903 156.794C69.3778 156.679 69.0911 156.503 68.8467 156.276C68.6023 156.05 68.4048 155.778 68.2656 155.475C68.1264 155.173 68.0482 154.845 68.0354 154.513C68.0226 154.18 68.0754 153.848 68.191 153.535C68.3066 153.223 68.4826 152.936 68.7089 152.692C68.7526 152.644 68.8024 152.595 68.8461 152.551L110.646 113.915C110.675 113.888 110.709 113.867 110.747 113.853C110.784 113.839 110.824 113.832 110.864 113.834C110.904 113.836 110.943 113.845 110.98 113.862C111.016 113.879 111.049 113.902 111.076 113.932C111.126 113.989 111.154 114.062 111.154 114.138C111.154 114.214 111.126 114.287 111.076 114.344V114.346ZM114.35 113.915L156.143 152.551C156.392 152.776 156.594 153.048 156.737 153.352C156.88 153.655 156.962 153.984 156.977 154.319C156.992 154.654 156.941 154.989 156.826 155.305C156.711 155.62 156.534 155.909 156.307 156.156C156.079 156.402 155.805 156.601 155.5 156.741C155.195 156.881 154.865 156.959 154.53 156.97C154.194 156.982 153.86 156.927 153.546 156.808C153.232 156.69 152.945 156.51 152.701 156.28C152.651 156.235 152.601 156.185 152.557 156.139L113.919 114.346C113.864 114.287 113.834 114.209 113.837 114.128C113.839 114.047 113.873 113.971 113.932 113.915C113.989 113.863 114.063 113.834 114.14 113.834C114.218 113.833 114.292 113.862 114.35 113.913V113.915ZM110.646 111.071L68.8461 72.4347C68.6013 72.2083 68.4034 71.9358 68.2639 71.633C68.1244 71.3301 68.046 71.0027 68.033 70.6696C68.02 70.3364 68.0727 70.0039 68.1882 69.6911C68.3038 69.3782 68.4797 69.0913 68.7062 68.8465C68.9326 68.6017 69.205 68.4039 69.5079 68.2643C69.8108 68.1248 70.1381 68.0463 70.4713 68.0333C70.8045 68.0203 71.1371 68.0731 71.4499 68.1886C71.7628 68.3041 72.0498 68.4801 72.2946 68.7065C72.3445 68.7507 72.3881 68.8006 72.4317 68.8474L111.076 110.64C111.13 110.7 111.159 110.779 111.155 110.859C111.152 110.94 111.116 111.016 111.057 111.071C111.001 111.122 110.927 111.15 110.851 111.15C110.774 111.149 110.701 111.12 110.646 111.067V111.071ZM165.472 58.6929L183.674 37.7336C184.119 37.2317 184.743 36.9255 185.412 36.8816C186.081 36.8376 186.74 37.0595 187.246 37.4989C187.753 37.9384 188.065 38.5598 188.115 39.2282C188.166 39.8966 187.95 40.5579 187.516 41.0683C187.437 41.1577 187.351 41.2411 187.26 41.3177L166.301 59.5197C166.189 59.6186 166.043 59.671 165.894 59.6662C165.744 59.6614 165.602 59.5998 165.496 59.494C165.391 59.3881 165.329 59.2459 165.325 59.0964C165.32 58.9469 165.373 58.8013 165.472 58.6892V58.6929ZM59.5234 166.296L41.3146 187.256C41.0956 187.507 40.8292 187.714 40.5305 187.862C40.2318 188.011 39.9067 188.1 39.5738 188.123C39.2409 188.146 38.9067 188.104 38.5903 187.998C38.2738 187.892 37.9813 187.725 37.7295 187.506C37.4777 187.287 37.2715 187.02 37.1227 186.722C36.9738 186.423 36.8852 186.098 36.862 185.765C36.8388 185.432 36.8814 185.098 36.9873 184.781C37.0933 184.465 37.2604 184.173 37.4794 183.921C37.5576 183.832 37.641 183.748 37.7289 183.668L58.6877 165.466C58.8006 165.372 58.9443 165.323 59.0909 165.33C59.2375 165.336 59.3766 165.397 59.4809 165.5C59.5853 165.603 59.6474 165.741 59.6553 165.888C59.6631 166.034 59.6161 166.179 59.5234 166.292V166.296ZM166.301 165.466L187.26 183.668C187.512 183.887 187.719 184.153 187.868 184.452C188.017 184.75 188.106 185.075 188.13 185.408C188.154 185.741 188.112 186.075 188.006 186.392C187.901 186.708 187.734 187.001 187.515 187.253C187.296 187.505 187.03 187.712 186.732 187.861C186.433 188.01 186.108 188.099 185.775 188.123C185.443 188.147 185.108 188.105 184.792 187.999C184.475 187.894 184.182 187.727 183.93 187.508C183.838 187.432 183.753 187.349 183.674 187.259L165.472 166.299C165.361 166.189 165.298 166.04 165.297 165.883C165.296 165.727 165.358 165.577 165.468 165.466C165.578 165.355 165.727 165.292 165.884 165.291C166.04 165.291 166.19 165.352 166.301 165.462V165.466ZM58.6877 59.5247L37.7289 41.3227C37.2289 40.8777 36.9244 40.2536 36.8815 39.5857C36.8386 38.9178 37.0608 38.2599 37.4998 37.7546C37.9388 37.2494 38.5591 36.9375 39.2265 36.8866C39.8939 36.8358 40.5545 37.05 41.065 37.4829C41.1533 37.5608 41.2367 37.6441 41.3146 37.7323L59.5234 58.6917C59.6176 58.8052 59.6658 58.95 59.6586 59.0974C59.6514 59.2448 59.5894 59.3841 59.4846 59.488C59.3798 59.5919 59.2397 59.6528 59.0923 59.6586C58.9448 59.6645 58.8005 59.6149 58.6877 59.5197V59.5247ZM114.867 111.408L174.701 89.6789C175.014 89.5651 175.347 89.5141 175.68 89.5288C176.013 89.5436 176.34 89.6238 176.642 89.7649C176.944 89.906 177.215 90.1051 177.441 90.3511C177.666 90.597 177.84 90.8848 177.954 91.1982C178.068 91.5115 178.119 91.8442 178.104 92.1772C178.089 92.5103 178.009 92.8372 177.868 93.1392C177.727 93.4413 177.528 93.7126 177.282 93.9376C177.036 94.1627 176.748 94.3371 176.434 94.4509C176.378 94.4703 176.316 94.4896 176.26 94.5052L115.054 111.988C114.977 112.012 114.892 112.005 114.82 111.968C114.748 111.931 114.693 111.866 114.668 111.789C114.643 111.711 114.651 111.627 114.688 111.555C114.725 111.482 114.79 111.428 114.867 111.403V111.408ZM110.128 113.585L50.2942 135.313C49.9798 135.431 49.6449 135.487 49.309 135.475C48.9732 135.463 48.643 135.385 48.3376 135.245C48.0322 135.104 47.7576 134.905 47.5299 134.658C47.3022 134.411 47.1258 134.121 47.0111 133.805C46.8963 133.489 46.8455 133.153 46.8614 132.818C46.8773 132.482 46.9598 132.153 47.1039 131.849C47.2481 131.546 47.451 131.274 47.701 131.049C47.9511 130.825 48.2433 130.652 48.5606 130.541C48.6167 130.522 48.6729 130.503 48.729 130.486L109.935 113.004C110.008 112.99 110.083 113.002 110.147 113.04C110.212 113.077 110.26 113.137 110.284 113.207C110.307 113.277 110.305 113.354 110.276 113.423C110.247 113.491 110.195 113.547 110.128 113.58V113.585ZM113.583 114.867L135.315 174.695C135.533 175.325 135.495 176.015 135.208 176.617C134.922 177.219 134.41 177.684 133.783 177.912C133.157 178.139 132.466 178.111 131.86 177.833C131.254 177.556 130.781 177.051 130.544 176.428C130.523 176.372 130.504 176.316 130.488 176.259L113.003 115.054C112.982 114.976 112.993 114.893 113.033 114.823C113.072 114.752 113.137 114.7 113.215 114.677C113.288 114.655 113.367 114.662 113.435 114.696C113.504 114.731 113.556 114.79 113.583 114.862V114.867ZM111.406 110.128L89.6803 50.2987C89.5608 49.9842 89.5051 49.6491 89.5163 49.3129C89.5275 48.9767 89.6053 48.646 89.7454 48.3402C89.8855 48.0344 90.0851 47.7594 90.3325 47.5314C90.5798 47.3034 90.87 47.1268 91.1863 47.0119C91.5025 46.8971 91.8384 46.8462 92.1745 46.8623C92.5105 46.8785 92.84 46.9612 93.1438 47.1058C93.4476 47.2504 93.7195 47.4539 93.9439 47.7046C94.1682 47.9552 94.3406 48.248 94.4508 48.5658C94.4695 48.6201 94.4883 48.6806 94.507 48.7348L111.986 109.939C111.997 109.977 112.001 110.017 111.997 110.057C111.993 110.096 111.98 110.134 111.961 110.169C111.942 110.204 111.916 110.235 111.885 110.259C111.854 110.284 111.819 110.302 111.78 110.313C111.705 110.334 111.625 110.325 111.556 110.29C111.487 110.254 111.433 110.194 111.406 110.121V110.128ZM192.66 85.9127L221.526 74.5117C221.837 74.3893 222.168 74.3292 222.502 74.3349C222.836 74.3406 223.165 74.412 223.471 74.5449C223.777 74.6778 224.054 74.8698 224.286 75.1097C224.518 75.3497 224.7 75.6329 224.823 75.9434C224.945 76.2538 225.005 76.5853 225 76.9189C224.994 77.2526 224.922 77.5819 224.79 77.8879C224.657 78.194 224.465 78.4709 224.225 78.7028C223.985 78.9347 223.701 79.117 223.391 79.2395C223.293 79.2778 223.193 79.3107 223.092 79.338L193.022 87.0294C192.873 87.0774 192.711 87.0642 192.572 86.9928C192.432 86.9213 192.327 86.7975 192.279 86.6485C192.231 86.4995 192.245 86.3375 192.316 86.1982C192.387 86.059 192.511 85.9538 192.66 85.9058V85.9127ZM32.3347 139.083L3.46862 150.476C2.84226 150.721 2.14434 150.707 1.52765 150.439C0.910966 150.171 0.42577 149.669 0.178314 149.043C-0.0691424 148.418 -0.0586647 147.72 0.207393 147.102C0.47345 146.485 0.973395 145.998 1.59784 145.748C1.69738 145.708 1.79961 145.676 1.90355 145.65L31.9731 137.958C32.1245 137.92 32.2849 137.943 32.4192 138.022C32.5536 138.102 32.651 138.231 32.6902 138.382C32.7235 138.521 32.7061 138.668 32.6409 138.795C32.5757 138.922 32.467 139.022 32.3347 139.076V139.083ZM139.081 192.655L150.487 221.52C150.61 221.831 150.67 222.163 150.665 222.497C150.659 222.831 150.588 223.161 150.455 223.467C150.322 223.774 150.13 224.051 149.89 224.284C149.65 224.516 149.366 224.699 149.056 224.822C148.745 224.945 148.413 225.005 148.079 225C147.745 224.994 147.415 224.923 147.108 224.79C146.802 224.657 146.524 224.465 146.292 224.225C146.059 223.985 145.877 223.702 145.754 223.391C145.717 223.291 145.685 223.19 145.66 223.087L137.965 193.02C137.916 192.872 137.927 192.71 137.997 192.571C138.067 192.431 138.189 192.325 138.337 192.276C138.485 192.226 138.647 192.238 138.786 192.308C138.926 192.378 139.032 192.5 139.081 192.648V192.655ZM85.9076 32.3405L74.5084 3.47579C74.3855 3.16549 74.3249 2.83403 74.3302 2.50035C74.3355 2.16667 74.4065 1.8373 74.5391 1.53105C74.6717 1.22479 74.8634 0.947663 75.1032 0.715479C75.3429 0.483295 75.6261 0.300606 75.9364 0.177845C76.2469 0.0551664 76.5786 -0.00514897 76.9124 0.000344137C77.2463 0.00583724 77.5758 0.0770308 77.8821 0.209859C78.1884 0.342688 78.4655 0.534549 78.6977 0.774489C78.9298 1.01443 79.1124 1.29775 79.2351 1.60827C79.2742 1.70747 79.3076 1.80887 79.335 1.91193L87.0239 31.9788C87.0555 32.1221 87.0323 32.2721 86.959 32.3992C86.8858 32.5263 86.7676 32.6214 86.6278 32.6659C86.4879 32.7103 86.3364 32.7009 86.2032 32.6394C86.0699 32.5779 85.9646 32.4689 85.9076 32.3336V32.3405ZM114.998 113.238L174.345 136.259C174.964 136.509 175.458 136.993 175.723 137.606C175.987 138.218 176 138.91 175.758 139.531C175.516 140.153 175.04 140.655 174.431 140.928C173.823 141.201 173.131 141.224 172.506 140.991C172.456 140.971 172.394 140.945 172.344 140.922L114.755 113.797C114.68 113.765 114.621 113.704 114.591 113.628C114.56 113.553 114.562 113.468 114.594 113.393C114.626 113.318 114.687 113.259 114.763 113.228C114.838 113.198 114.923 113.199 114.998 113.232V113.238ZM109.997 111.758L50.6497 88.7367C50.3354 88.6189 50.0476 88.44 49.8029 88.2102C49.5583 87.9804 49.3617 87.7045 49.2244 87.3982C49.0871 87.0919 49.012 86.7615 49.0033 86.426C48.9947 86.0905 49.0526 85.7566 49.1739 85.4437C49.2951 85.1307 49.4772 84.8449 49.7096 84.6028C49.942 84.3607 50.2202 84.1671 50.5279 84.0332C50.8357 83.8993 51.167 83.8278 51.5026 83.8228C51.8382 83.8178 52.1714 83.8794 52.483 84.004C52.5392 84.0252 52.5953 84.0501 52.6452 84.0745L110.234 111.199C110.297 111.237 110.344 111.296 110.367 111.366C110.389 111.436 110.386 111.512 110.357 111.579C110.328 111.647 110.276 111.702 110.209 111.734C110.143 111.766 110.068 111.773 109.997 111.753V111.758ZM111.756 115L88.7325 174.344C88.615 174.659 88.436 174.947 88.2061 175.192C87.9762 175.437 87.6999 175.635 87.3932 175.772C87.0866 175.91 86.7557 175.985 86.4196 175.994C86.0836 176.002 85.7492 175.944 85.4358 175.823C85.1225 175.701 84.8363 175.518 84.5941 175.285C84.3518 175.052 84.1583 174.774 84.0247 174.465C83.8911 174.157 83.82 173.825 83.8157 173.489C83.8113 173.153 83.8738 172.819 83.9994 172.507C84.0181 172.454 84.0492 172.396 84.0679 172.344L111.194 114.76C111.23 114.694 111.29 114.644 111.361 114.619C111.432 114.594 111.509 114.596 111.579 114.625C111.648 114.654 111.704 114.707 111.737 114.775C111.77 114.842 111.776 114.92 111.756 114.992V115ZM113.24 109.998L136.256 50.6454C136.373 50.3295 136.552 50.04 136.781 49.7938C137.011 49.5475 137.288 49.3494 137.595 49.2111C137.902 49.0727 138.233 48.9968 138.57 48.9879C138.907 48.9789 139.242 49.037 139.556 49.1588C139.87 49.2805 140.156 49.4636 140.399 49.6972C140.641 49.9309 140.835 50.2104 140.968 50.5196C141.102 50.8288 141.172 51.1615 141.176 51.4983C141.18 51.835 141.116 52.1691 140.989 52.4811C140.97 52.5368 140.947 52.5914 140.921 52.6445L113.795 110.229C113.761 110.299 113.701 110.353 113.628 110.38C113.555 110.407 113.475 110.405 113.403 110.374C113.332 110.344 113.275 110.287 113.245 110.215C113.214 110.144 113.212 110.063 113.24 109.99V109.998ZM190.347 145.242L219.581 155.658C219.897 155.769 220.189 155.94 220.438 156.164C220.688 156.387 220.891 156.658 221.036 156.96C221.181 157.262 221.264 157.59 221.282 157.924C221.3 158.259 221.251 158.593 221.139 158.909C221.027 159.225 220.853 159.515 220.628 159.763C220.403 160.012 220.132 160.213 219.829 160.356C219.525 160.499 219.197 160.581 218.863 160.596C218.528 160.612 218.193 160.561 217.878 160.447C217.778 160.412 217.68 160.37 217.585 160.322L189.885 146.323C189.816 146.289 189.754 146.241 189.703 146.183C189.652 146.124 189.613 146.056 189.589 145.983C189.564 145.909 189.555 145.832 189.561 145.754C189.567 145.677 189.588 145.602 189.623 145.533C189.687 145.403 189.795 145.302 189.929 145.247C190.062 145.192 190.211 145.187 190.347 145.234V145.242ZM34.6482 79.7476L5.40805 69.3344C4.78202 69.1011 4.27306 68.6307 3.99112 68.0251C3.70918 67.4194 3.67692 66.7271 3.90145 66.0979C4.12597 65.4687 4.58911 64.9532 5.1908 64.6628C5.79249 64.3724 6.48436 64.3305 7.11669 64.5462C7.21023 64.5811 7.31622 64.6272 7.40976 64.6709L35.1098 78.6702C35.1786 78.7052 35.2397 78.7535 35.2898 78.8122C35.3399 78.8709 35.3779 78.939 35.4017 79.0124C35.4254 79.0859 35.4344 79.1633 35.4282 79.2402C35.422 79.3172 35.4007 79.3921 35.3655 79.4608C35.302 79.5883 35.1938 79.6881 35.0616 79.741C34.9293 79.7939 34.7821 79.7962 34.6482 79.7476ZM79.7527 190.336L69.3325 219.57C69.1063 220.205 68.637 220.725 68.0279 221.014C67.4189 221.303 66.7199 221.338 66.0848 221.112C65.4498 220.886 64.9305 220.416 64.6414 219.807C64.3523 219.198 64.3171 218.499 64.5434 217.864C64.5808 217.768 64.6244 217.661 64.6681 217.571L78.6739 189.873C78.7083 189.804 78.756 189.742 78.8141 189.692C78.8723 189.642 78.9398 189.603 79.0128 189.579C79.0858 189.555 79.163 189.546 79.2397 189.552C79.3163 189.557 79.3911 189.578 79.4596 189.613C79.5873 189.678 79.6872 189.787 79.741 189.92C79.7948 190.053 79.799 190.2 79.7527 190.336ZM145.242 34.6464L155.656 5.41129C155.883 4.77632 156.353 4.25732 156.962 3.9683C157.571 3.67928 158.27 3.64388 158.905 3.86988C159.22 3.98172 159.509 4.15446 159.757 4.37823C160.005 4.602 160.206 4.8724 160.349 5.17396C160.492 5.47552 160.574 5.80232 160.591 6.13568C160.607 6.46903 160.558 6.8024 160.446 7.1167C160.411 7.21728 160.369 7.31539 160.321 7.41039L146.321 35.1084C146.254 35.2416 146.138 35.344 145.998 35.395C145.857 35.4459 145.703 35.4416 145.565 35.3828C145.428 35.324 145.318 35.2152 145.258 35.0784C145.198 34.9416 145.193 34.7872 145.242 34.6464Z" fill="#DA1E40"/>
</svg>
