<svg width="55" height="61" viewBox="0 0 55 61" fill="none" xmlns="http://www.w3.org/2000/svg">
<path d="M22.6667 58H2.44446C2.44446 47.0288 10.5573 37.9524 21.1111 36.4428M41.3259 43.1038C39.1488 40.6798 35.5184 40.0278 32.7907 42.2474C30.063 44.4671 29.6789 48.1782 31.821 50.8034C33.0304 52.2855 35.9037 54.8837 38.1768 56.8654C39.2548 57.8053 39.7938 58.2752 40.4458 58.4675C41.0016 58.6314 41.6502 58.6314 42.206 58.4675C42.858 58.2752 43.397 57.8053 44.475 56.8654C46.748 54.8837 49.6214 52.2855 50.8307 50.8034C52.9728 48.1782 52.6357 44.4437 49.8611 42.2474C47.0865 40.0511 43.503 40.6798 41.3259 43.1038ZM36.6667 14.4444C36.6667 21.3173 31.0951 26.8889 24.2222 26.8889C17.3494 26.8889 11.7778 21.3173 11.7778 14.4444C11.7778 7.57157 17.3494 2 24.2222 2C31.0951 2 36.6667 7.57157 36.6667 14.4444Z" stroke="#EE2F4D" stroke-width="4" stroke-linecap="round" stroke-linejoin="round"/>
</svg>
