<svg width="84" height="31" viewBox="0 0 84 31" fill="none" xmlns="http://www.w3.org/2000/svg">
<path d="M0.500488 0.164062H2.34301V8.44685H0.500488V0.164062Z" fill="#E6E6E6"/>
<path d="M8.32492 5.83889V0.164062H10.0139V8.44685H7.91341L5.66554 2.6489V8.44685H3.97656V0.164062H6.1016L8.32492 5.83889Z" fill="#E6E6E6"/>
<path d="M16.9235 1.5352H14.9275V8.44685H13.0849V1.5352H11.0889V0.164062H16.9235V1.5352Z" fill="#E6E6E6"/>
<path d="M23.0647 1.53742H19.8035V3.47939H22.8743V4.85053H19.8035V7.08912H23.1937V8.45466H17.9609V0.171875H23.0647V1.53742Z" fill="#E6E6E6"/>
<path d="M27.8061 0.166922C28.4544 0.130711 29.0934 0.320814 29.5934 0.698585C29.8222 0.907714 29.9984 1.15968 30.1098 1.43703C30.2211 1.71437 30.265 2.01045 30.2383 2.30477C30.2585 2.78139 30.1285 3.25333 29.8636 3.66472C29.7338 3.84422 29.5649 3.99747 29.3673 4.11493C29.1697 4.23239 28.9477 4.31155 28.7151 4.34749C29.0914 4.37346 29.4467 4.5156 29.7224 4.75044C29.9688 5.04155 30.1085 5.39594 30.1216 5.7634C30.1216 5.91264 30.1338 6.08053 30.1584 6.26708C30.1584 6.44616 30.1584 6.65324 30.1584 6.8771C30.1584 7.31362 30.2014 7.64941 30.2383 7.88446C30.2503 7.98148 30.2865 8.07473 30.3439 8.15715C30.4014 8.23957 30.4787 8.30899 30.5699 8.36016V8.42732H28.5923C28.4973 8.31055 28.4361 8.17393 28.4142 8.02997C28.3881 7.87424 28.3717 7.71728 28.365 7.55986L28.3098 5.97046C28.3109 5.69616 28.2186 5.42829 28.0456 5.20375C27.9408 5.10316 27.8123 5.02568 27.6696 4.9772C27.527 4.92871 27.3742 4.91049 27.2227 4.92393H26.24V8.42732H24.3975V0.144531L27.8061 0.166922ZM27.0138 3.78784C27.3807 3.81091 27.744 3.70922 28.0334 3.50242C28.1658 3.37604 28.2667 3.22512 28.3292 3.05997C28.3917 2.89481 28.4144 2.7193 28.3957 2.54542C28.4185 2.38839 28.4009 2.22868 28.3445 2.07887C28.288 1.92905 28.1942 1.79321 28.0704 1.68202C27.9466 1.57083 27.7962 1.48732 27.631 1.43807C27.4657 1.38881 27.2902 1.37514 27.1183 1.39814H26.2461V3.78784H27.0138Z" fill="#E6E6E6"/>
<path d="M36.1289 5.83889V0.164062H37.8179V8.44685H35.7235L33.5064 2.6489V8.44685H31.8174V0.164062H33.9424L36.1289 5.83889Z" fill="#E6E6E6"/>
<path d="M43.443 0.164062L45.8567 8.44685H43.9466L43.5228 6.69515H41.0968L40.6731 8.44685H38.7568L41.1706 0.164062H43.443ZM43.1973 5.32961L42.3191 1.60235H42.2883L41.4101 5.32961H43.1973Z" fill="#E6E6E6"/>
<path d="M51.4089 1.5352H49.4128V8.44685H47.5703V1.5352H45.5742V0.164062H51.4089V1.5352Z" fill="#E6E6E6"/>
<path d="M52.5459 0.164062H54.3884V8.44685H52.5459V0.164062Z" fill="#E6E6E6"/>
<path d="M55.9361 2.57218C55.9867 2.09938 56.1303 1.63873 56.3599 1.21223C56.5728 0.839564 56.8991 0.530649 57.2995 0.322395C57.8111 0.0886599 58.3801 -0.0211995 58.9517 0.003392C59.5213 -0.0212439 60.0883 0.0886436 60.5977 0.322395C61.001 0.527246 61.3282 0.83706 61.5374 1.21223C61.7697 1.63778 61.9133 2.0989 61.9611 2.57218C62.025 3.14862 62.0558 3.72771 62.0533 4.30709C62.0563 4.88833 62.0255 5.46931 61.9611 6.04759C61.9133 6.52088 61.7697 6.98199 61.5374 7.40754C61.3306 7.7786 61.0022 8.08179 60.5977 8.27499C60.0845 8.49721 59.5192 8.60099 58.9517 8.5772C58.3821 8.601 57.8149 8.49724 57.2995 8.27499C56.8977 8.07858 56.5702 7.77625 56.3599 7.40754C56.1303 6.98104 55.9867 6.52039 55.9361 6.04759C55.8717 5.46931 55.841 4.88833 55.8439 4.30709C55.8414 3.72771 55.8722 3.14862 55.9361 2.57218ZM57.7295 5.72859C57.7445 6.05131 57.8043 6.37099 57.9076 6.67999C57.9667 6.89841 58.1 7.09425 58.2884 7.23964C58.4841 7.35887 58.7165 7.41772 58.9517 7.40754C59.1849 7.41771 59.4154 7.35881 59.6088 7.23964C59.7992 7.09582 59.9329 6.89933 59.9896 6.67999C60.0958 6.37164 60.1558 6.0516 60.1678 5.72859C60.1678 5.33684 60.2169 4.86673 60.2169 4.30709C60.2169 3.74744 60.2169 3.28293 60.1678 2.89118C60.1541 2.56833 60.0942 2.24849 59.9896 1.93978C59.9329 1.72044 59.7992 1.52395 59.6088 1.38013C59.4154 1.26096 59.1849 1.20206 58.9517 1.21223C58.7165 1.20205 58.4841 1.2609 58.2884 1.38013C58.1 1.52552 57.9667 1.72136 57.9076 1.93978C57.806 2.24914 57.7462 2.56863 57.7295 2.89118C57.6988 3.28293 57.6865 3.75303 57.6865 4.30709C57.6865 4.86114 57.6988 5.33684 57.7295 5.7174V5.72859Z" fill="#E6E6E6"/>
<path d="M67.7585 5.83889V0.164062H69.4475V8.44685H67.347L65.0991 2.6489V8.44685H63.4102V0.164062H65.5352L67.7585 5.83889Z" fill="#E6E6E6"/>
<path d="M75.0672 0.164062L77.487 8.44685H75.5708L75.147 6.69515H72.6903L72.2727 8.44685H70.3564L72.7702 0.164062H75.0672ZM74.8276 5.32961L73.9432 1.60235L73.0588 5.32961H74.8276Z" fill="#E6E6E6"/>
<path d="M78.3965 0.164062H80.239V7.08131H83.5003V8.44685H78.4026L78.3965 0.164062Z" fill="#E6E6E6"/>
<path d="M5.59814 22.5859V23.9515H2.34302V25.899H5.41389V27.2702H2.34302V30.8687H0.500488V22.5859H5.59814Z" fill="#E6E6E6"/>
<path d="M6.59274 24.9901C6.63772 24.5153 6.77935 24.0522 7.01037 23.6246C7.22345 23.2534 7.54981 22.9463 7.95008 22.7404C8.46191 22.5073 9.03064 22.3975 9.6022 22.4214C10.1719 22.3967 10.7389 22.5066 11.2482 22.7404C11.6511 22.9432 11.9784 23.2511 12.1879 23.6246C12.4238 24.0509 12.5677 24.5144 12.6117 24.9901C12.681 25.5662 12.7138 26.1455 12.7099 26.725C12.714 27.3065 12.6811 27.8876 12.6117 28.4656C12.5669 28.9376 12.423 29.3973 12.1879 29.8199C11.9815 30.1926 11.6531 30.4977 11.2482 30.6929C10.735 30.9152 10.1698 31.0189 9.6022 30.9952C9.03271 31.0183 8.46565 30.9145 7.95008 30.6929C7.54777 30.4945 7.22032 30.1903 7.01037 29.8199C6.78014 29.396 6.63852 28.9367 6.59274 28.4656C6.52326 27.8876 6.49045 27.3065 6.49447 26.725C6.4906 26.1455 6.52342 25.5662 6.59274 24.9901V24.9901ZM8.37999 28.1466C8.39918 28.4689 8.45895 28.7881 8.55811 29.098C8.62007 29.3166 8.75532 29.5123 8.94504 29.6576C9.13845 29.7768 9.36899 29.8357 9.6022 29.8255C9.8354 29.8357 10.066 29.7768 10.2594 29.6576C10.4491 29.5123 10.5843 29.3166 10.6463 29.098C10.7455 28.7881 10.8052 28.4689 10.8244 28.1466C10.8551 27.7548 10.8674 27.2791 10.8674 26.725C10.8674 26.171 10.8674 25.6953 10.8244 25.3091C10.8052 24.9868 10.7455 24.6676 10.6463 24.3577C10.5821 24.1399 10.4473 23.9449 10.2594 23.7981C10.066 23.6789 9.8354 23.62 9.6022 23.6302C9.36899 23.62 9.13845 23.6789 8.94504 23.7981C8.75714 23.9449 8.62227 24.1399 8.55811 24.3577C8.45895 24.6676 8.39918 24.9868 8.37999 25.3091C8.37999 25.6953 8.337 26.1654 8.337 26.725C8.337 27.2847 8.32472 27.7548 8.37999 28.1466V28.1466Z" fill="#E6E6E6"/>
<path d="M15.787 28.3615C15.7878 28.5489 15.8043 28.736 15.8361 28.9211C15.8605 29.0785 15.9167 29.2303 16.0019 29.3689C16.0796 29.4957 16.1944 29.6003 16.3336 29.6711C16.4962 29.7491 16.6781 29.7877 16.8618 29.783C17.0495 29.7891 17.2358 29.7506 17.4023 29.6711C17.5382 29.5984 17.6505 29.4941 17.7278 29.3689C17.813 29.2303 17.8692 29.0785 17.8936 28.9211C17.9233 28.7358 17.9377 28.5488 17.9366 28.3615V22.5859H19.7791V28.3615C19.7963 28.8069 19.7127 29.2508 19.5334 29.6655C19.3963 29.9839 19.1722 30.2651 18.8824 30.4826C18.6106 30.6835 18.2909 30.8234 17.9489 30.8911C17.5915 30.9608 17.2272 30.9965 16.8618 30.9974C16.4969 30.9974 16.1329 30.9655 15.7747 30.9023C15.4365 30.8428 15.1174 30.7147 14.8411 30.5273C14.551 30.3125 14.3267 30.033 14.1901 29.7158C14.0143 29.2829 13.933 28.8228 13.9506 28.3615V22.5859H15.7931L15.787 28.3615Z" fill="#E6E6E6"/>
<path d="M25.5587 28.2552V22.5859H27.2477V30.8687H25.1472L22.8994 25.0652V30.8687H21.2227V22.5859H23.3477L25.5587 28.2552Z" fill="#E6E6E6"/>
<path d="M31.9219 22.5844C32.4548 22.5653 32.9851 22.6612 33.4696 22.8643C33.8562 23.0486 34.1745 23.3328 34.3847 23.6813C34.6156 24.0748 34.7655 24.5035 34.8269 24.9461C34.9073 25.5028 34.9463 26.0637 34.9436 26.6251C34.9511 27.2601 34.9018 27.8946 34.7962 28.5223C34.7239 28.9907 34.5506 29.4415 34.2864 29.8487C34.0596 30.1894 33.7259 30.4604 33.3283 30.6266C32.8496 30.813 32.3316 30.901 31.8113 30.884H28.9062V22.6012L31.9219 22.5844ZM31.5656 29.636C31.8355 29.647 32.104 29.595 32.3456 29.4849C32.5554 29.3683 32.7189 29.1938 32.8124 28.9868C32.9433 28.6944 33.0201 28.3843 33.0396 28.069C33.0826 27.6884 33.1011 27.2183 33.1011 26.6531C33.1011 26.183 33.0826 25.7688 33.0458 25.4106C33.0254 25.108 32.955 24.8099 32.837 24.5264C32.7498 24.2982 32.5839 24.1019 32.3641 23.9668C32.1092 23.8376 31.82 23.7756 31.5288 23.7877H30.7488V29.6136L31.5656 29.636Z" fill="#E6E6E6"/>
<path d="M40.4769 22.5859L42.8906 30.8687H40.9744L40.5506 29.117H38.0939L37.6701 30.8687H35.7539L38.1676 22.5859H40.4769ZM40.2312 27.7459L39.353 24.0242L38.4194 27.7459H40.2312Z" fill="#E6E6E6"/>
<path d="M48.4431 23.9515H46.447V30.8687H44.6045V23.9515H42.6084V22.5859H48.4431V23.9515Z" fill="#E6E6E6"/>
<path d="M49.5918 22.5859H51.4343V30.8687H49.5918V22.5859Z" fill="#E6E6E6"/>
<path d="M52.9756 24.9901C53.0205 24.5153 53.1622 24.0522 53.3932 23.6246C53.6063 23.2534 53.9326 22.9463 54.3329 22.7404C54.8444 22.5066 55.4134 22.3968 55.985 22.4214C56.5547 22.3967 57.1216 22.5066 57.631 22.7404C58.0339 22.9432 58.3612 23.2511 58.5707 23.6246C58.8066 24.0509 58.9505 24.5144 58.9945 24.9901C59.0607 25.5665 59.0935 26.1456 59.0927 26.725C59.0937 27.3064 59.0609 27.8874 58.9945 28.4656C58.9497 28.9376 58.8058 29.3973 58.5707 29.8199C58.3643 30.1926 58.0359 30.4977 57.631 30.6929C57.1178 30.9152 56.5526 31.0189 55.985 30.9952C55.4155 31.019 54.8482 30.9152 54.3329 30.6929C53.9306 30.4945 53.6031 30.1903 53.3932 29.8199C53.163 29.396 53.0213 28.9367 52.9756 28.4656C52.9061 27.8876 52.8733 27.3065 52.8773 26.725C52.8734 26.1455 52.9062 25.5662 52.9756 24.9901V24.9901ZM54.7628 28.1466C54.782 28.4689 54.8417 28.7881 54.9409 29.098C55.0001 29.3177 55.1359 29.5141 55.3278 29.6576C55.5209 29.7775 55.7517 29.8365 55.985 29.8255C56.2182 29.8357 56.4488 29.7768 56.6422 29.6576C56.8322 29.5135 56.9658 29.3171 57.023 29.098C57.1272 28.789 57.1891 28.4694 57.2072 28.1466C57.2072 27.7548 57.2502 27.2791 57.2502 26.725C57.2502 26.171 57.2502 25.6953 57.2072 25.3091C57.1891 24.9863 57.1272 24.6667 57.023 24.3577C56.965 24.1389 56.8316 23.9427 56.6422 23.7981C56.4488 23.6789 56.2182 23.62 55.985 23.6302C55.7517 23.6192 55.5209 23.6782 55.3278 23.7981C55.1365 23.9422 55.0009 24.1383 54.9409 24.3577C54.8417 24.6676 54.782 24.9868 54.7628 25.3091C54.7321 25.6953 54.7198 26.1654 54.7198 26.725C54.7198 27.2847 54.7321 27.7548 54.7628 28.1466Z" fill="#E6E6E6"/>
<path d="M64.7917 28.2552V22.5859H66.4807V30.8687H64.3802L62.1323 25.0652V30.8687H60.4434V22.5859H62.5684L64.7917 28.2552Z" fill="#E6E6E6"/>
<path d="M4.3512 12.8534C4.26834 12.7154 4.14241 12.6029 3.98935 12.5302C3.83628 12.4574 3.66296 12.4277 3.49136 12.4448C3.28531 12.4384 3.08328 12.4978 2.92018 12.6127C2.74583 12.764 2.62408 12.9586 2.5701 13.1724C2.47026 13.4935 2.41051 13.824 2.39198 14.1573C2.35513 14.5659 2.34286 15.064 2.34286 15.6516C2.33506 16.1579 2.3576 16.6642 2.41041 17.1683C2.43775 17.476 2.51005 17.779 2.62537 18.0693C2.69363 18.2472 2.82558 18.399 3.00001 18.5002C3.15948 18.5745 3.3369 18.611 3.51593 18.6065C3.67111 18.6087 3.82532 18.584 3.97042 18.5338C4.12531 18.4734 4.25308 18.3668 4.33278 18.2316C4.45486 18.0336 4.538 17.8177 4.57844 17.5936C4.64492 17.235 4.67372 16.8714 4.66444 16.5079H6.50696C6.50985 16.9355 6.47079 17.3625 6.39027 17.7839C6.32798 18.1587 6.18388 18.5184 5.96649 18.8416C5.75158 19.1487 5.44469 19.3934 5.08207 19.5467C4.61897 19.7346 4.11458 19.8227 3.60806 19.8042C3.03852 19.828 2.47126 19.7242 1.95592 19.502C1.54721 19.2932 1.21908 18.9746 1.01623 18.5898C0.785184 18.1661 0.64352 17.7067 0.598599 17.2354C0.529123 16.6574 0.49631 16.0763 0.500329 15.4949C0.496627 14.9154 0.529439 14.3361 0.598599 13.76C0.643583 13.2851 0.785205 12.8221 1.01623 12.3945C1.231 12.0244 1.55693 11.7177 1.95592 11.5102C2.46748 11.2765 3.03643 11.1666 3.60806 11.1912C4.14473 11.1664 4.6795 11.2665 5.16192 11.4822C5.51202 11.6522 5.80495 11.9056 6.00948 12.2154C6.19772 12.5108 6.31689 12.8385 6.35955 13.178C6.40689 13.5008 6.43152 13.8261 6.43327 14.1518H4.59074C4.61823 13.7081 4.53638 13.2644 4.3512 12.8534V12.8534Z" fill="#121212"/>
<path d="M9.66382 11.375V14.5426H11.8134V11.375H13.656V19.6578H11.8134V15.9809H9.66382V19.6578H7.82129V11.375H9.66382Z" fill="#121212"/>
<path d="M15.29 11.375H17.1326V19.6578H15.29V11.375Z" fill="#121212"/>
<path d="M18.7656 11.375H20.6082V18.2866H23.8694V19.6578H18.7656V11.375Z" fill="#121212"/>
<path d="M28.0647 11.3738C28.5984 11.3533 29.1295 11.4512 29.6124 11.6592C29.9955 11.8435 30.3114 12.1254 30.5214 12.4707C30.7577 12.8641 30.9078 13.2955 30.9636 13.7411C31.0477 14.2973 31.0867 14.8585 31.0803 15.42C31.0878 16.055 31.0385 16.6895 30.9329 17.3172C30.8614 17.7868 30.6904 18.2391 30.4293 18.6492C30.2007 18.9872 29.8673 19.256 29.4712 19.4215C28.9903 19.6079 28.4703 19.6958 27.948 19.6789H25.043V11.3961L28.0647 11.3738ZM27.7023 18.4253C27.9722 18.4364 28.2407 18.3843 28.4824 18.2742C28.6951 18.1609 28.8596 17.9853 28.9491 17.7761C29.0833 17.4844 29.1622 17.1741 29.1825 16.8583C29.2194 16.4833 29.2378 16.0076 29.2378 15.448C29.2378 14.9723 29.2378 14.5581 29.1887 14.2056C29.1671 13.9007 29.0946 13.6006 28.9737 13.3157C28.8893 13.0862 28.7228 12.8891 28.5008 12.7561C28.2471 12.6244 27.957 12.5622 27.6655 12.577H26.8855V18.3973L27.7023 18.4253Z" fill="#121212"/>
<path d="M39.4764 11.375L41.8962 19.6578H39.98L39.5562 17.9061H37.0995L36.6819 19.6578H34.7656L37.1793 11.375H39.4764ZM39.2368 16.5349L38.3524 12.8133L37.468 16.5349H39.2368Z" fill="#121212"/>
<path d="M46.2012 11.3739C46.8504 11.337 47.491 11.5249 47.9946 11.9C48.2159 12.1129 48.3851 12.3661 48.491 12.643C48.5969 12.9199 48.637 13.2141 48.6088 13.5062C48.6327 13.9849 48.5025 14.4596 48.2341 14.8717C48.1045 15.0509 47.9355 15.2036 47.7378 15.3202C47.5401 15.4367 47.318 15.5146 47.0856 15.5489V15.5489C47.4641 15.5778 47.821 15.7217 48.099 15.9575C48.3443 16.2466 48.482 16.5995 48.4921 16.9648C48.4921 17.1215 48.5044 17.2894 48.5289 17.4685C48.5289 17.6532 48.5289 17.8547 48.5596 18.0785C48.564 18.4171 48.5886 18.7553 48.6333 19.0915C48.6463 19.1883 48.6827 19.2812 48.7401 19.3635C48.7975 19.4458 48.8743 19.5154 48.965 19.5672V19.6343H47.0181C46.9253 19.5165 46.8642 19.3804 46.8399 19.237C46.8139 19.0813 46.7975 18.9243 46.7908 18.7669L46.7417 17.1775C46.741 16.9026 46.6465 16.6346 46.4714 16.4108C46.3678 16.3103 46.2403 16.2328 46.0987 16.1843C45.9571 16.1358 45.8052 16.1175 45.6546 16.1309H44.6658V19.6343H42.8232V11.3516L46.2012 11.3739ZM45.4089 14.9949C45.7775 15.0167 46.1422 14.9152 46.4346 14.7094C46.5659 14.5826 46.6657 14.4314 46.7271 14.2663C46.7886 14.1012 46.8103 13.9259 46.7908 13.7524C46.8149 13.5952 46.7982 13.435 46.7422 13.2846C46.6863 13.1342 46.5925 12.9978 46.4684 12.8864C46.3442 12.7749 46.1932 12.6914 46.0274 12.6426C45.8616 12.5938 45.6855 12.581 45.5133 12.6052H44.6412V14.9949H45.4089Z" fill="#121212"/>
<path d="M55.2909 12.7461H53.3009V19.6578H51.4584V12.7461H49.4746V11.375H55.3031L55.2909 12.7461Z" fill="#121212"/>
</svg>
