<svg width="47" height="42" viewBox="0 0 47 42" fill="none" xmlns="http://www.w3.org/2000/svg">
<path d="M25.4827 1.99061C27.8221 0.309839 30.3975 0 33.4621 0C35.1464 0 36.4373 0.0615432 38.4492 0.995306C40.4611 1.90573 42.2666 2.74399 43.4363 3.98123C45.8459 6.96927 46.7795 10.9611 46.4286 14.9296C46.0543 18.8981 44.7081 21.693 42.4389 23.8874L24.4853 41.8029C24.0408 42.2464 24.1429 41.8029 23.4878 41.8029C22.8328 41.8029 21.9375 42.2464 21.493 41.8029C21.2767 41.5904 21.6057 41.0888 21.493 40.8076C21.3803 40.5263 20.4858 40.115 20.4956 39.8123C20.4956 39.1586 21.0485 39.2605 21.493 38.817L32.4647 27.8686C33.0495 27.355 33.0495 26.4616 32.4647 25.878C31.8798 25.2944 30.9845 25.2944 30.4698 25.878L19.4981 36.8263C19.2816 37.044 19.784 36.7138 19.4981 36.8263C19.2123 36.9388 18.8078 37.8332 18.5007 37.8216C17.8457 37.8216 16.9503 37.2699 16.5059 36.8263C16.2896 36.6138 16.6186 36.1123 16.5059 35.831C16.3931 35.5498 16.4961 35.1385 16.5059 34.8357C16.5059 34.1821 16.0614 34.284 16.5059 33.8404L27.4775 22.892C28.1092 22.3084 28.1092 21.485 27.4775 20.9014C26.9395 20.3178 26.0675 20.3178 25.4827 20.9014L15.5084 31.8498C15.2895 32.0641 14.7963 31.7375 14.511 31.8498C14.2257 31.9621 13.8202 32.8526 13.5136 32.8451C12.8586 32.8451 12.01 32.2933 11.5187 31.8498C11.0509 31.4063 10.5213 30.5128 10.5213 29.8592C10.5213 29.2056 11.0041 29.3775 11.5187 28.8639L22.4904 17.9155C23.0753 17.3319 23.0753 16.4385 22.4904 15.9249C21.9056 15.4113 21.0102 15.4113 20.4956 15.9249L9.5239 26.8733C9.00924 27.3402 9.11132 27.8686 8.52648 27.8686C7.87145 27.8686 6.95272 27.3635 6.53163 26.8733C6.08715 26.4064 6.53163 25.5363 6.53163 24.8827C6.53163 24.229 6.08715 24.3309 6.53163 23.8874C13.6901 16.6974 17.8138 11.5638 19.4981 9.95306L28.475 18.9108C29.3873 19.7746 30.1806 19.9061 31.4672 19.9061C33.1048 19.9061 34.4978 19.2228 35.4569 17.9155C36.1119 16.9584 36.6415 16.0968 36.4543 14.9296C36.2672 13.7624 35.2549 12.7607 34.4595 11.9437L25.4827 1.99061ZM29.4724 16.9202L19.4981 6.96714L3.53936 23.8874C1.57428 21.9031 0.804417 18.0662 0.547085 13.9343C0.289754 9.82573 1.05962 6.96927 3.53936 3.98123C6.32321 1.22662 9.65363 0 13.5136 0C17.397 0 20.7976 1.22662 23.4878 3.98123L33.4621 13.9343C33.9066 14.3778 33.4621 14.276 33.4621 14.9296C33.4621 15.5832 33.9066 16.4767 33.4621 16.9202C33.0176 17.3404 32.169 17.9155 31.4672 17.9155C30.8356 17.9155 29.9169 17.3404 29.4724 16.9202Z" fill="white"/>
</svg>
