<svg width="1560" height="956" viewBox="0 0 1560 956" fill="none" xmlns="http://www.w3.org/2000/svg">
<path d="M0 909.2V88.4785C233.572 199.646 649.084 144.207 827.643 102.591C1234.59 7.74622 1457.38 53.0152 1560 88.4785V909.2C1256.55 818.877 945.325 852.748 827.643 880.974C362.941 1001.69 82.2553 950.091 0 909.2Z" fill="#DA1E40"/>
<path d="M-5.88425e-06 888.211L-2.89567e-07 137.837C233.572 239.476 649.084 188.789 827.643 150.741C1234.59 64.0251 1457.38 105.414 1560 137.837L1560 888.211C1256.55 805.631 945.325 836.598 827.643 862.405C362.941 972.777 82.2553 925.598 -5.88425e-06 888.211Z" fill="#2057CC"/>
<path d="M0 863.2V42.4785C233.572 153.646 649.084 98.2069 827.643 56.5914C1234.59 -38.2538 1457.38 7.01519 1560 42.4785V863.2C1256.55 772.877 945.325 806.748 827.643 834.974C362.941 955.694 82.2553 904.091 0 863.2Z" fill="#DEE6F8"/>
</svg>
