<svg width="393" height="657" viewBox="0 0 393 657" fill="none" xmlns="http://www.w3.org/2000/svg">
<g filter="url(#filter0_d_2767_32690)">
<path d="M61.8861 6.06244C54.2948 5.74002 47.2115 6.6067 39.9337 10.0612C36.0952 11.8882 13.751 23.3648 8.00286 59.046C7.54681 61.8863 6.93851 66.67 7.00502 73.0416L22.9704 605.876C23.7115 629.904 36.1262 648.141 50.9099 648.862C66.159 648.924 350.48 649.139 352.257 648.862C373.729 647.695 382.364 612.68 385.185 571.886C386.383 554.598 386.155 537.221 385.185 519.902C376.473 363.652 368.34 224.255 341.281 72.0419C335.532 40.6597 317.043 22.9036 297.376 23.0572C296.103 23.0572 295.655 23.1493 294.382 23.0572C168.788 14.5668 93.059 7.36748 61.8861 6.06244Z" fill="#0286C3"/>
</g>
<defs>
<filter id="filter0_d_2767_32690" x="0" y="0" width="393" height="657" filterUnits="userSpaceOnUse" color-interpolation-filters="sRGB">
<feFlood flood-opacity="0" result="BackgroundImageFix"/>
<feColorMatrix in="SourceAlpha" type="matrix" values="0 0 0 0 0 0 0 0 0 0 0 0 0 0 0 0 0 0 127 0" result="hardAlpha"/>
<feOffset dy="1"/>
<feGaussianBlur stdDeviation="3.5"/>
<feComposite in2="hardAlpha" operator="out"/>
<feColorMatrix type="matrix" values="0 0 0 0 0 0 0 0 0 0 0 0 0 0 0 0 0 0 0.1 0"/>
<feBlend mode="normal" in2="BackgroundImageFix" result="effect1_dropShadow_2767_32690"/>
<feBlend mode="normal" in="SourceGraphic" in2="effect1_dropShadow_2767_32690" result="shape"/>
</filter>
</defs>
</svg>
