<svg width="1461" height="682" viewBox="0 0 1461 682" fill="none" xmlns="http://www.w3.org/2000/svg">
<g filter="url(#filter0_d_2767_31782)">
<path d="M231.945 22.0571C203.767 21.7422 175.991 22.682 148.978 26.0559C134.73 27.8403 51.3608 39.1924 30.0248 74.0413C28.332 76.8154 26.7791 81.814 27.026 88.037L88.0018 607.878C90.7525 631.346 135.087 649.161 189.961 649.866C246.564 649.926 1301.92 650.135 1308.52 649.866C1388.22 648.726 1420 614.731 1430.47 574.888C1434.91 558.004 1435.07 540.819 1431.47 523.904C1399.13 371.298 1370.97 235.7 1270.53 87.0373C1249.2 56.3871 1180.6 38.902 1107.6 39.0519C1102.87 39.0519 1098.33 39.1419 1093.6 39.0519C627.42 30.7596 347.653 23.3317 231.945 22.0571Z" fill="#0286C3"/>
</g>
<defs>
<filter id="filter0_d_2767_31782" x="0" y="0" width="1461" height="682" filterUnits="userSpaceOnUse" color-interpolation-filters="sRGB">
<feFlood flood-opacity="0" result="BackgroundImageFix"/>
<feColorMatrix in="SourceAlpha" type="matrix" values="0 0 0 0 0 0 0 0 0 0 0 0 0 0 0 0 0 0 127 0" result="hardAlpha"/>
<feOffset dy="5"/>
<feGaussianBlur stdDeviation="13.5"/>
<feComposite in2="hardAlpha" operator="out"/>
<feColorMatrix type="matrix" values="0 0 0 0 0 0 0 0 0 0 0 0 0 0 0 0 0 0 0.1 0"/>
<feBlend mode="normal" in2="BackgroundImageFix" result="effect1_dropShadow_2767_31782"/>
<feBlend mode="normal" in="SourceGraphic" in2="effect1_dropShadow_2767_31782" result="shape"/>
</filter>
</defs>
</svg>
