<svg width="53" height="54" viewBox="0 0 53 54" fill="none" xmlns="http://www.w3.org/2000/svg">
<path d="M28.5958 11.9007C28.9972 10.7631 29.12 9.54586 28.9538 8.35102C28.7875 7.15619 28.3371 6.01865 27.6403 5.03388C26.9436 4.0491 26.0208 3.24581 24.9494 2.6914C23.878 2.137 22.6892 1.84766 21.4829 1.84766C20.2765 1.84766 19.0878 2.137 18.0164 2.6914C16.945 3.24581 16.0222 4.0491 15.3254 5.03388C14.6286 6.01865 14.1782 7.15619 14.012 8.35102C13.8457 9.54586 13.9685 10.7631 14.37 11.9007C8.62481 11.9208 5.55989 12.127 3.57864 14.1083C1.59738 16.0895 1.39121 19.1544 1.37109 24.8971C2.50848 24.497 3.7252 24.3753 4.91928 24.5424C6.11335 24.7094 7.24998 25.1603 8.23389 25.8572C9.21779 26.5541 10.0203 27.4767 10.5741 28.5477C11.128 29.6186 11.417 30.8068 11.417 32.0125C11.417 33.2182 11.128 34.4063 10.5741 35.4773C10.0203 36.5483 9.21779 37.4709 8.23389 38.1678C7.24998 38.8647 6.11335 39.3155 4.91928 39.4826C3.7252 39.6497 2.50848 39.528 1.37109 39.1279C1.39121 44.8706 1.59738 47.9355 3.57864 49.9167C5.55989 51.898 8.62481 52.1042 14.3674 52.1243C13.9673 50.9869 13.8457 49.7702 14.0128 48.5761C14.1798 47.382 14.6307 46.2454 15.3276 45.2615C16.0245 44.2776 16.9471 43.4751 18.018 42.9212C19.089 42.3674 20.2772 42.0783 21.4829 42.0783C22.6886 42.0783 23.8767 42.3674 24.9477 42.9212C26.0187 43.4751 26.9413 44.2776 27.6381 45.2615C28.335 46.2454 28.7859 47.382 28.953 48.5761C29.12 49.7702 28.9984 50.9869 28.5983 52.1243C34.3409 52.1042 37.4058 51.898 39.3871 49.9167C41.3684 47.9355 41.5745 44.8706 41.5946 39.1254C42.7322 39.5269 43.9495 39.6496 45.1443 39.4834C46.3392 39.3171 47.4767 38.8667 48.4615 38.17C49.4463 37.4732 50.2496 36.5504 50.804 35.479C51.3584 34.4076 51.6477 33.2188 51.6477 32.0125C51.6477 30.8061 51.3584 29.6174 50.804 28.546C50.2496 27.4746 49.4463 26.5518 48.4615 25.855C47.4767 25.1583 46.3392 24.7079 45.1443 24.5416C43.9495 24.3754 42.7322 24.4981 41.5946 24.8996C41.5745 19.1544 41.3684 16.0895 39.3871 14.1083C37.4058 12.1245 34.3409 11.9208 28.5958 11.9007Z" stroke="#0286C3" stroke-width="1.88571" stroke-linecap="round" stroke-linejoin="round"/>
</svg>
