<svg width="34" height="34" viewBox="0 0 34 34" fill="none" xmlns="http://www.w3.org/2000/svg">
<path d="M12.8596 22.9295L16.9975 20.4199L21.1354 22.9295L20.0358 18.2212L23.6963 15.0799L18.8854 14.6537L16.9975 10.237L15.1096 14.6537L10.2988 15.0799L13.9592 18.2212L12.8596 22.9295ZM17.0038 33.5191L12.1192 28.6666H5.33083V21.8783L0.4375 16.9999L5.33083 12.1216V5.33328H12.1192L17.0038 0.439941L21.8758 5.33328H28.6642V12.1216L33.5575 16.9999L28.6642 21.8783V28.6666H21.8758L17.0038 33.5191ZM17.0038 31.5108L21.2746 27.2562H27.2538V21.292L31.5425 16.9999L27.2504 12.7079V6.74369H21.2858L17.0038 2.45494L12.7092 6.74369H6.74458V12.7079L2.4525 16.9999L6.74125 21.292V27.2562H12.7025L17.0038 31.5108Z" fill="#1C1B1F"/>
</svg>
