<svg width="38" height="38" viewBox="0 0 38 38" fill="none" xmlns="http://www.w3.org/2000/svg">
<path d="M18.9198 37.75C16.3663 37.75 13.9559 37.2566 11.6885 36.2698C9.42083 35.2826 7.44097 33.9431 5.74896 32.251C4.05694 30.559 2.71736 28.5726 1.73021 26.2917C0.743403 24.0108 0.25 21.5802 0.25 19C0.25 16.3851 0.754166 13.9372 1.7625 11.6562C2.77083 9.37535 4.14497 7.3908 5.8849 5.7026C7.62517 4.01476 9.66649 2.68403 12.0089 1.71042C14.3512 0.736804 16.8472 0.25 19.4969 0.25C21.9274 0.25 24.2418 0.660591 26.4401 1.48177C28.638 2.3033 30.5724 3.44254 32.2432 4.89948C33.9137 6.35642 35.2491 8.09254 36.2495 10.1078C37.2498 12.1231 37.75 14.3207 37.75 16.7005C37.75 19.9189 36.8219 22.4957 34.9656 24.4307C33.1094 26.3658 30.5653 27.3333 27.3333 27.3333H23.6396C22.766 27.3333 22.0347 27.6339 21.4458 28.2349C20.8569 28.8359 20.5625 29.5611 20.5625 30.4104C20.5625 31.2809 20.8229 32.02 21.3438 32.6276C21.8646 33.2352 22.125 33.9358 22.125 34.7292C22.125 35.7441 21.8411 36.5014 21.2734 37.001C20.7061 37.5003 19.9215 37.75 18.9198 37.75ZM7.54167 20.0417C8.12396 20.0417 8.61667 19.8399 9.01979 19.4365C9.42326 19.0333 9.625 18.5406 9.625 17.9583C9.625 17.376 9.42326 16.8833 9.01979 16.4802C8.61667 16.0767 8.12396 15.875 7.54167 15.875C6.95937 15.875 6.46667 16.0767 6.06354 16.4802C5.66007 16.8833 5.45833 17.376 5.45833 17.9583C5.45833 18.5406 5.66007 19.0333 6.06354 19.4365C6.46667 19.8399 6.95937 20.0417 7.54167 20.0417ZM13.7917 11.7083C14.374 11.7083 14.8667 11.5066 15.2698 11.1031C15.6733 10.7 15.875 10.2073 15.875 9.625C15.875 9.04271 15.6733 8.55 15.2698 8.14687C14.8667 7.7434 14.374 7.54167 13.7917 7.54167C13.2094 7.54167 12.7167 7.7434 12.3135 8.14687C11.9101 8.55 11.7083 9.04271 11.7083 9.625C11.7083 10.2073 11.9101 10.7 12.3135 11.1031C12.7167 11.5066 13.2094 11.7083 13.7917 11.7083ZM24.2083 11.7083C24.7906 11.7083 25.2833 11.5066 25.6865 11.1031C26.0899 10.7 26.2917 10.2073 26.2917 9.625C26.2917 9.04271 26.0899 8.55 25.6865 8.14687C25.2833 7.7434 24.7906 7.54167 24.2083 7.54167C23.626 7.54167 23.1333 7.7434 22.7302 8.14687C22.3267 8.55 22.125 9.04271 22.125 9.625C22.125 10.2073 22.3267 10.7 22.7302 11.1031C23.1333 11.5066 23.626 11.7083 24.2083 11.7083ZM30.4583 20.0417C31.0406 20.0417 31.5333 19.8399 31.9365 19.4365C32.3399 19.0333 32.5417 18.5406 32.5417 17.9583C32.5417 17.376 32.3399 16.8833 31.9365 16.4802C31.5333 16.0767 31.0406 15.875 30.4583 15.875C29.876 15.875 29.3833 16.0767 28.9802 16.4802C28.5767 16.8833 28.375 17.376 28.375 17.9583C28.375 18.5406 28.5767 19.0333 28.9802 19.4365C29.3833 19.8399 29.876 20.0417 30.4583 20.0417ZM18.9198 35.6667C19.2858 35.6667 19.5642 35.5865 19.7552 35.426C19.9462 35.266 20.0417 35.0337 20.0417 34.7292C20.0417 34.2431 19.7812 33.7236 19.2604 33.1708C18.7396 32.6177 18.4792 31.7082 18.4792 30.4422C18.4792 28.9304 18.9826 27.6872 19.9896 26.7125C20.9965 25.7375 22.2292 25.25 23.6875 25.25H27.3333C29.9455 25.25 31.9875 24.4814 33.4594 22.9443C34.9309 21.4071 35.6667 19.3259 35.6667 16.7005C35.6667 12.4724 34.0408 9.02083 30.7891 6.34583C27.537 3.67083 23.7729 2.33333 19.4969 2.33333C14.6944 2.33333 10.6333 3.94792 7.31354 7.17708C3.9934 10.4062 2.33333 14.3472 2.33333 19C2.33333 23.6181 3.9566 27.5503 7.20312 30.7969C10.4497 34.0434 14.3552 35.6667 18.9198 35.6667Z" fill="#1C1B1F"/>
</svg>
