<svg width="288" height="257" viewBox="0 0 288 257" fill="none" xmlns="http://www.w3.org/2000/svg">
<g opacity="0.4">
<path fill-rule="evenodd" clip-rule="evenodd" d="M164.807 124.291L192.586 136.422L161.098 133.67L173.008 148.016L157.42 138.841L151.17 166.031L146.07 136.502L123.158 144.668L140.322 128.983L108.714 114.111L142.375 119.039L133.5 99.7851L150.707 114.799L168.163 88.0096L160.11 116.918L180.717 110.103L164.807 124.291ZM101.187 129.764C78.9588 137.129 55.3238 140.711 31.5555 140.318C53.784 132.955 77.4188 129.373 101.187 129.764ZM111.33 160.255C102.235 176.491 89.1743 190.787 73.0695 202.134C82.1638 185.898 95.2243 171.602 111.33 160.255ZM163.99 181.47C170.082 198.991 171.77 217.454 168.941 235.597C162.848 218.077 161.16 199.614 163.99 181.47ZM120.228 217.405C120.089 229.005 116.035 240.311 108.574 249.907C107.442 238.158 111.626 226.49 120.228 217.405ZM78.978 9.15503C88.4072 17.3113 94.8663 27.7209 97.5435 39.0754C87.1049 31.6141 80.4378 20.8693 78.978 9.15503ZM185.862 0.898438C185.01 17.1124 180.56 33.0273 172.759 47.758C171.819 31.3573 176.372 15.0729 185.862 0.898438ZM61.8975 157.077C43.5598 168.176 22.2245 174.903 0 176.593C19.4058 167.432 40.2683 160.854 61.8975 157.077ZM118.982 101.219C91.8004 90.6906 66.6079 76.6152 44.2665 59.4745C71.4479 70.0022 96.6405 84.0777 118.982 101.219ZM145.011 31.2342C150.684 47.8657 149.991 65.6603 143.038 81.9167C141.07 65.0223 141.734 47.9728 145.011 31.2342ZM224.469 26.8622C214.717 46.222 201.79 64.2376 186.094 80.3414C194.094 60.2095 207.215 41.9246 224.469 26.8622ZM259.939 70.7939C244.845 82.7928 226.065 90.6738 205.91 93.4668C222.445 83.4773 240.679 75.8259 259.939 70.7939ZM288 130.865C260.74 130.737 233.604 127.641 207.221 121.648C234.586 119.825 262.088 122.963 288 130.865ZM258.78 178.518C237.554 171.514 218.148 160.869 201.703 147.211C222.929 154.215 242.336 164.859 258.78 178.518ZM184.599 168.187C207.188 184.382 226.782 203.527 242.686 224.945C220.096 208.75 200.503 189.605 184.599 168.187ZM46.8 100.73C31.3125 102.828 15.4607 100.91 1.209 95.2125C16.6965 93.1142 32.5484 95.0326 46.8 100.73Z" fill="#2057CC" fill-opacity="0.5"/>
<path fill-rule="evenodd" clip-rule="evenodd" d="M229.64 240.737L235.255 234.734L232.403 242.226L237.731 240.224L233.824 243.445L242.116 246.666L232.366 246.061L233.538 252.149L229.605 246.99L222.875 253.753L226.557 245.868L219.853 246.824L225.725 243.575L218.264 237.651L226.991 241.419L226.106 235.977L229.64 240.737Z" fill="#2057CC" fill-opacity="0.5"/>
<path fill-rule="evenodd" clip-rule="evenodd" d="M160.066 8.34026L155.934 7.87902L160.061 7.01161L157.826 5.65785L160.265 6.21591L159.68 2.53767L161.821 6.07355L164.309 4.15692L162.93 6.80215L167.686 7.46223L163.173 8.13852L165.272 10.2298L162.333 8.99601L161.478 13.0562L161.035 9.09105L158.77 10.7479L160.066 8.34026Z" fill="#2057CC" fill-opacity="0.5"/>
<path fill-rule="evenodd" clip-rule="evenodd" d="M267.738 106.274L271.688 102.05L269.682 107.321L273.43 105.913L270.682 108.179L276.515 110.445L269.656 110.02L270.481 114.303L267.713 110.673L262.978 115.432L265.569 109.884L260.852 110.557L264.984 108.271L259.734 104.102L265.874 106.753L265.252 102.925L267.738 106.274Z" fill="#2057CC" fill-opacity="0.5"/>
</g>
</svg>
