<svg width="188" height="187" viewBox="0 0 188 187" fill="none" xmlns="http://www.w3.org/2000/svg">
<path fill-rule="evenodd" clip-rule="evenodd" d="M107.582 92.5082L125.716 101.603L105.162 99.5392L112.936 110.294L102.761 103.416L98.6804 123.8L95.3513 101.663L80.3945 107.785L91.5991 96.0257L70.9661 84.8758L92.9396 88.5702L87.1458 74.1357L98.3779 85.3916L109.773 65.3075L104.516 86.9804L117.968 81.8712L107.582 92.5082ZM66.0526 96.6113C51.5425 102.132 36.1141 104.818 20.5987 104.524C35.109 99.0034 50.5373 96.3177 66.0526 96.6113ZM72.6737 119.47C66.7365 131.642 58.211 142.36 47.6982 150.867C53.6347 138.694 62.1603 127.977 72.6737 119.47ZM107.049 135.375C111.026 148.511 112.128 162.352 110.281 175.954C106.304 162.819 105.201 148.977 107.049 135.375ZM78.4822 162.316C78.3915 171.012 75.7452 179.489 70.875 186.683C70.136 177.875 72.867 169.127 78.4822 162.316ZM51.5551 6.19C57.7102 12.3048 61.9266 20.1089 63.6742 28.6214C56.8601 23.0277 52.508 14.9723 51.5551 6.19ZM121.327 0C120.771 12.1557 117.866 24.0871 112.774 35.1308C112.16 22.8351 115.132 10.6266 121.327 0ZM40.4053 117.087C28.4349 125.409 14.5076 130.452 0 131.718C12.6677 124.851 26.2863 119.919 40.4053 117.087ZM77.6685 75.2106C59.9253 67.3175 43.4802 56.7651 28.8962 43.9147C46.6396 51.8073 63.0848 62.3598 77.6685 75.2106ZM94.66 22.7428C98.3631 35.2115 97.9111 48.5522 93.3724 60.7397C92.0875 48.0739 92.5207 35.2918 94.66 22.7428ZM146.528 19.4651C140.163 33.9792 131.724 47.4856 121.478 59.5587C126.7 44.4657 135.265 30.7575 146.528 19.4651ZM169.683 52.4008C159.829 61.3965 147.57 67.3049 134.413 69.3988C145.207 61.9097 157.11 56.1734 169.683 52.4008ZM188 97.4366C170.205 97.3407 152.492 95.0194 135.269 90.5264C153.133 89.1594 171.085 91.512 188 97.4366ZM168.926 133.162C155.07 127.911 142.402 119.931 131.668 109.691C145.523 114.942 158.191 122.922 168.926 133.162ZM120.502 125.416C135.248 137.558 148.038 151.911 158.42 167.968C143.674 155.827 130.884 141.474 120.502 125.416ZM30.55 74.8441C20.4401 76.417 10.0924 74.9787 0.789208 70.7076C10.8991 69.1344 21.2469 70.5727 30.55 74.8441Z" fill="#FFB505"/>
</svg>
