<svg width="25" height="24" viewBox="0 0 25 24" fill="none" xmlns="http://www.w3.org/2000/svg">
<path d="M12.5 3L12.8669 2.34589C12.639 2.21804 12.361 2.21804 12.1331 2.34589L12.5 3ZM13.8976 3.784L13.5307 4.43811C13.64 4.49944 13.763 4.53239 13.8883 4.53394L13.8976 3.784ZM15.5 3.80385L16.1448 3.42083C16.0114 3.19616 15.7706 3.05714 15.5093 3.05391L15.5 3.80385ZM16.3184 5.18162L15.6736 5.56464C15.7376 5.67242 15.8276 5.76243 15.9354 5.82645L16.3184 5.18162ZM17.6962 6L18.4461 5.99071C18.4429 5.72941 18.3038 5.48863 18.0792 5.35518L17.6962 6ZM17.716 7.60238L16.9661 7.61167C16.9676 7.73701 17.0006 7.85997 17.0619 7.9693L17.716 7.60238ZM18.5 9L19.1541 9.36693C19.282 9.13901 19.282 8.86099 19.1541 8.63307L18.5 9ZM17.716 10.3976L17.0619 10.0307C17.0006 10.14 16.9676 10.263 16.9661 10.3883L17.716 10.3976ZM17.6962 12L18.0792 12.6448C18.3038 12.5114 18.4429 12.2706 18.4461 12.0093L17.6962 12ZM16.3184 12.8184L15.9354 12.1736C15.8276 12.2376 15.7376 12.3276 15.6736 12.4354L16.3184 12.8184ZM15.5 14.1962L15.5093 14.9461C15.7706 14.9429 16.0114 14.8038 16.1448 14.5792L15.5 14.1962ZM13.8976 14.216L13.8883 13.4661C13.763 13.4676 13.64 13.5006 13.5307 13.5619L13.8976 14.216ZM12.5 15L12.1331 15.6541C12.361 15.782 12.639 15.782 12.8669 15.6541L12.5 15ZM11.1024 14.216L11.4693 13.5619C11.36 13.5006 11.237 13.4676 11.1117 13.4661L11.1024 14.216ZM9.5 14.1962L8.85518 14.5792C8.98863 14.8038 9.22941 14.9429 9.49071 14.9461L9.5 14.1962ZM8.68162 12.8184L9.32645 12.4354C9.26243 12.3276 9.17242 12.2376 9.06464 12.1736L8.68162 12.8184ZM7.30385 12L6.55391 12.0093C6.55714 12.2706 6.69616 12.5114 6.92083 12.6448L7.30385 12ZM7.284 10.3976L8.03394 10.3883C8.03239 10.263 7.99944 10.14 7.93811 10.0307L7.284 10.3976ZM6.5 9L5.84589 8.63307C5.71804 8.86099 5.71804 9.13901 5.84589 9.36693L6.5 9ZM7.284 7.60238L7.93811 7.9693C7.99944 7.85997 8.03239 7.73701 8.03394 7.61167L7.284 7.60238ZM7.30385 6L6.92083 5.35518C6.69616 5.48863 6.55714 5.72941 6.55391 5.99071L7.30385 6ZM8.68162 5.18162L9.06464 5.82645C9.17242 5.76243 9.26243 5.67242 9.32645 5.56464L8.68162 5.18162ZM9.5 3.80385L9.49071 3.05391C9.22941 3.05714 8.98863 3.19616 8.85518 3.42083L9.5 3.80385ZM11.1024 3.784L11.1117 4.53394C11.237 4.53239 11.36 4.49944 11.4693 4.43811L11.1024 3.784ZM9 21H8.25C8.25 21.2674 8.39232 21.5145 8.62355 21.6487C8.85479 21.7829 9.13998 21.7838 9.3721 21.6512L9 21ZM12.5 19L12.8721 18.3488C12.6415 18.2171 12.3585 18.2171 12.1279 18.3488L12.5 19ZM16 21L15.6279 21.6512C15.86 21.7838 16.1452 21.7829 16.3764 21.6487C16.6077 21.5145 16.75 21.2674 16.75 21H16ZM12.5 3L12.1331 3.65411L13.5307 4.43811L13.8976 3.784L14.2646 3.12989L12.8669 2.34589L12.5 3ZM13.8976 3.784L13.8883 4.53394L15.4907 4.55379L15.5 3.80385L15.5093 3.05391L13.9069 3.03406L13.8976 3.784ZM15.5 3.80385L14.8552 4.18686L15.6736 5.56464L16.3184 5.18162L16.9632 4.79861L16.1448 3.42083L15.5 3.80385ZM16.3184 5.18162L15.9354 5.82645L17.3131 6.64482L17.6962 6L18.0792 5.35518L16.7014 4.5368L16.3184 5.18162ZM17.6962 6L16.9462 6.00929L16.9661 7.61167L17.716 7.60238L18.4659 7.59309L18.4461 5.99071L17.6962 6ZM17.716 7.60238L17.0619 7.9693L17.8459 9.36693L18.5 9L19.1541 8.63307L18.3701 7.23545L17.716 7.60238ZM18.5 9L17.8459 8.63307L17.0619 10.0307L17.716 10.3976L18.3701 10.7645L19.1541 9.36693L18.5 9ZM17.716 10.3976L16.9661 10.3883L16.9462 11.9907L17.6962 12L18.4461 12.0093L18.4659 10.4069L17.716 10.3976ZM15.5 14.1962L15.4907 13.4462L13.8883 13.4661L13.8976 14.216L13.9069 14.9659L15.5093 14.9461L15.5 14.1962ZM11.1024 14.216L11.1117 13.4661L9.50929 13.4462L9.5 14.1962L9.49071 14.9461L11.0931 14.9659L11.1024 14.216ZM7.30385 12L8.05379 11.9907L8.03394 10.3883L7.284 10.3976L6.53406 10.4069L6.55391 12.0093L7.30385 12ZM7.284 10.3976L7.93811 10.0307L7.15411 8.63307L6.5 9L5.84589 9.36693L6.62989 10.7646L7.284 10.3976ZM6.5 9L7.15411 9.36693L7.93811 7.9693L7.284 7.60238L6.62989 7.23545L5.84589 8.63307L6.5 9ZM7.284 7.60238L8.03394 7.61167L8.05379 6.00929L7.30385 6L6.55391 5.99071L6.53406 7.59309L7.284 7.60238ZM7.30385 6L7.68686 6.64482L9.06464 5.82645L8.68162 5.18162L8.29861 4.5368L6.92083 5.35518L7.30385 6ZM8.68162 5.18162L9.32645 5.56464L10.1448 4.18686L9.5 3.80385L8.85518 3.42083L8.0368 4.79861L8.68162 5.18162ZM9.5 3.80385L9.50929 4.55379L11.1117 4.53394L11.1024 3.784L11.0931 3.03406L9.49071 3.05391L9.5 3.80385ZM11.1024 3.784L11.4693 4.43811L12.8669 3.65411L12.5 3L12.1331 2.34589L10.7354 3.12989L11.1024 3.784ZM17.6962 12L17.3131 11.3552L15.9354 12.1736L16.3184 12.8184L16.7014 13.4632L18.0792 12.6448L17.6962 12ZM8.68162 12.8184L9.06464 12.1736L7.68686 11.3552L7.30385 12L6.92083 12.6448L8.29861 13.4632L8.68162 12.8184ZM13.8976 14.216L13.5307 13.5619L12.1331 14.3459L12.5 15L12.8669 15.6541L14.2645 14.8701L13.8976 14.216ZM12.5 15L12.8669 14.3459L11.4693 13.5619L11.1024 14.216L10.7355 14.8701L12.1331 15.6541L12.5 15ZM9 21L9.3721 21.6512L12.8721 19.6512L12.5 19L12.1279 18.3488L8.6279 20.3488L9 21ZM12.5 19L12.1279 19.6512L15.6279 21.6512L16 21L16.3721 20.3488L12.8721 18.3488L12.5 19ZM16 21H16.75V13.3544H16H15.25V21H16ZM16.3184 12.8184L15.6736 12.4354L15.3552 12.9714L16 13.3544L16.6448 13.7374L16.9632 13.2014L16.3184 12.8184ZM16 13.3544L15.3552 12.9714L14.8552 13.8131L15.5 14.1962L16.1448 14.5792L16.6448 13.7374L16 13.3544ZM9 13.3544H8.25V21H9H9.75V13.3544H9ZM9.5 14.1962L10.1448 13.8131L9.64482 12.9714L9 13.3544L8.35518 13.7374L8.85518 14.5792L9.5 14.1962ZM9 13.3544L9.64482 12.9714L9.32645 12.4354L8.68162 12.8184L8.0368 13.2014L8.35518 13.7374L9 13.3544ZM14.5 9H13.75C13.75 9.69036 13.1904 10.25 12.5 10.25V11V11.75C14.0188 11.75 15.25 10.5188 15.25 9H14.5ZM12.5 11V10.25C11.8096 10.25 11.25 9.69036 11.25 9H10.5H9.75C9.75 10.5188 10.9812 11.75 12.5 11.75V11ZM10.5 9H11.25C11.25 8.30964 11.8096 7.75 12.5 7.75V7V6.25C10.9812 6.25 9.75 7.48122 9.75 9H10.5ZM12.5 7V7.75C13.1904 7.75 13.75 8.30964 13.75 9H14.5H15.25C15.25 7.48122 14.0188 6.25 12.5 6.25V7Z" fill="#121212"/>
</svg>
