<svg width="24" height="25" viewBox="0 0 24 25" fill="none" xmlns="http://www.w3.org/2000/svg">
<mask id="mask0_2374_37262" style="mask-type:alpha" maskUnits="userSpaceOnUse" x="0" y="0" width="24" height="25">
<rect x="24" y="0.628906" width="24" height="24" transform="rotate(90 24 0.628906)" fill="#D9D9D9"/>
</mask>
<g mask="url(#mask0_2374_37262)">
<path d="M7.48733 11.9622V13.3212L14.036 13.3212L11.236 16.1212L12.154 17.0392L16.5383 12.6546L12.154 8.24424L11.236 9.16224L14.036 11.9622L7.48733 11.9622ZM-1.90735e-06 12.6332C-1.90735e-06 10.9739 0.314884 9.4138 0.944662 7.95291C1.57444 6.49224 2.42911 5.22157 3.50867 4.14091C4.58822 3.06024 5.85778 2.2048 7.31733 1.57457C8.77667 0.944128 10.3361 0.628906 11.9957 0.628906C13.655 0.628906 15.2151 0.943795 16.676 1.57357C18.1367 2.20335 19.4073 3.05802 20.488 4.13757C21.5687 5.21713 22.4241 6.48668 23.0543 7.94624C23.6848 9.40557 24 10.965 24 12.6246C24 14.2839 23.6851 15.844 23.0553 17.3049C22.4256 18.7656 21.5709 20.0362 20.4913 21.1169C19.4118 22.1976 18.1422 23.053 16.6827 23.6832C15.2233 24.3137 13.6639 24.6289 12.0043 24.6289C10.345 24.6289 8.78489 24.314 7.324 23.6842C5.86333 23.0545 4.59266 22.1998 3.512 21.1202C2.43133 20.0407 1.57589 18.7711 0.945663 17.3116C0.31522 15.8522 -1.90735e-06 14.2928 -1.90735e-06 12.6332ZM1.33333 12.6289C1.33333 15.6067 2.36666 18.1289 4.43333 20.1956C6.5 22.2622 9.02222 23.2956 12 23.2956C14.9778 23.2956 17.5 22.2622 19.5667 20.1956C21.6333 18.1289 22.6667 15.6067 22.6667 12.6289C22.6667 9.65113 21.6333 7.12891 19.5667 5.06224C17.5 2.99557 14.9778 1.96224 12 1.96224C9.02222 1.96224 6.5 2.99557 4.43333 5.06224C2.36666 7.12891 1.33333 9.65113 1.33333 12.6289Z" fill="#121212"/>
</g>
</svg>
