<svg width="54" height="39" viewBox="0 0 54 39" fill="none" xmlns="http://www.w3.org/2000/svg">
<path d="M51.6809 9.82188H46.7447M46.7447 9.82188H44.2766C39.3404 4.90263 31.9362 -0.0259117 27 4.89824M46.7447 9.82188V29.5165M27 4.89824L19.5946 12.2877C19.3988 12.4832 19.3009 12.5809 19.222 12.6674C17.5102 14.546 17.5109 17.4149 19.2237 19.2926C19.3026 19.379 19.4007 19.4769 19.5965 19.6721C19.7924 19.8673 19.8903 19.965 19.977 20.0435C21.86 21.7504 24.7352 21.7499 26.6177 20.0425C26.7043 19.9639 26.8023 19.8662 26.9981 19.6709L29.4671 17.2081M27 4.89824C22.0638 -0.0259117 14.6596 4.9028 9.72341 9.82205H7.25532M2.31915 9.82205H7.25532M7.25532 9.82205V29.5165M46.7447 29.5165V36.9019H51.6809M46.7447 29.5165H39.7639M34.4043 22.131L38.1064 25.8237C38.3029 26.0197 38.4013 26.1179 38.4804 26.2047C40.1917 28.0826 40.1917 30.9503 38.4804 32.8282C38.4013 32.915 38.3029 33.0132 38.1064 33.2092C37.9099 33.4052 37.8115 33.5034 37.7245 33.5822C35.8418 35.2892 32.9667 35.2892 31.084 33.5822C30.997 33.5034 30.8986 33.4052 30.7021 33.2092L29.4681 31.9783C28.1224 33.3206 27.4495 33.9917 26.7237 34.3505C25.3426 35.0331 23.7212 35.0331 22.3402 34.3505C21.6143 33.9917 20.9415 33.3206 19.5957 31.9783C17.8949 34.2404 14.402 33.9262 13.1342 31.3971L12.1915 29.5165H7.25532M7.25532 29.5165V36.9019H2.31915" stroke="#EE2F4D" stroke-width="4" stroke-linecap="round" stroke-linejoin="round"/>
</svg>
