<svg width="70" height="70" viewBox="0 0 70 70" fill="none" xmlns="http://www.w3.org/2000/svg">
<path d="M45.75 27.8333V27.5347C45.75 23.7416 42.6751 20.6667 38.8819 20.6667H31.4167C27.4586 20.6667 24.25 23.8753 24.25 27.8333C24.25 31.7914 27.4586 35 31.4167 35H38.5833C42.5414 35 45.75 38.2086 45.75 42.1667C45.75 46.1247 42.5414 49.3333 38.5833 49.3333H31.2674C27.3918 49.3333 24.25 46.1916 24.25 42.316V42.1667M35 54.7083V15.2917M67.25 35C67.25 52.8112 52.8112 67.25 35 67.25C17.1888 67.25 2.75 52.8112 2.75 35C2.75 17.1888 17.1888 2.75 35 2.75C52.8112 2.75 67.25 17.1888 67.25 35Z" stroke="#168C39" stroke-width="5" stroke-linecap="round" stroke-linejoin="round"/>
</svg>
