<svg width="60" height="65" viewBox="0 0 60 65" fill="none" xmlns="http://www.w3.org/2000/svg">
<path fill-rule="evenodd" clip-rule="evenodd" d="M33.7724 0.0672283C40.3367 0.614823 45.8249 4.98276 50.5339 9.58783C54.7036 13.6655 57.3639 18.8723 58.7851 24.5281C60.1268 29.8673 60.8291 35.7251 58.3349 40.633C55.9852 45.2565 49.7941 45.9636 46.0614 49.5647C41.3374 54.1222 40.0332 62.3556 33.7724 64.3295C27.2052 66.4 19.9644 63.3504 14.1791 59.6164C8.17086 55.7385 3.25963 50.0836 1.12661 43.2589C-0.992389 36.4791 0.0948823 29.1746 2.58551 22.5223C4.99215 16.0943 9.27702 10.6218 14.8477 6.61084C20.4 2.61306 26.9539 -0.501587 33.7724 0.0672283Z" fill="#FEF0D5"/>
</svg>
