<svg width="287" height="668" viewBox="0 0 287 668" fill="none" xmlns="http://www.w3.org/2000/svg">
<path fill-rule="evenodd" clip-rule="evenodd" d="M467.756 9.53296C537.726 35.2255 600.925 84.605 633.075 151.852C665.439 219.548 656.512 297.961 640.716 371.313C625.144 443.629 596.357 512.69 544.099 565.047C490.318 618.932 421.788 661.236 345.856 666.738C271.642 672.115 202.562 635.333 140.497 594.29C82.3413 555.831 25.7673 508.136 5.25604 441.499C-14.1252 378.534 25.6762 316.217 34.8218 250.974C44.7713 179.997 10.321 93.4242 61.1337 42.8787C111.821 -7.54193 197.644 23.9716 268.899 18.1282C336.684 12.5695 403.912 -13.9103 467.756 9.53296Z" fill="#FEF0D5"/>
</svg>
