<svg width="241" height="562" viewBox="0 0 241 562" fill="none" xmlns="http://www.w3.org/2000/svg">
<path fill-rule="evenodd" clip-rule="evenodd" d="M-289.693 318.062C-302.266 263.564 -297.18 203.598 -268.128 155.806C-238.882 107.695 -185.96 81.1255 -133.397 60.947C-81.578 41.0538 -29.0806 -0.346645 50.0185 0.0021979C129.118 0.350982 194.019 60.6037 228.634 106.047C262.467 150.462 212.263 227.854 211.948 283.686C211.653 336.001 204.907 391.114 171.462 431.344C139.86 469.358 84.3798 469.927 39.641 490.955C-9.0302 513.831 -49.2783 570.999 -101.883 559.82C-154.357 548.669 -169.779 481.823 -202.69 439.458C-233.998 399.156 -278.221 367.789 -289.693 318.062Z" fill="#2057CC" fill-opacity="0.1"/>
</svg>
