<svg width="295" height="266" viewBox="0 0 295 266" fill="none" xmlns="http://www.w3.org/2000/svg">
<path fill-rule="evenodd" clip-rule="evenodd" d="M147.413 0.739638C173.938 3.22526 199.643 14.5143 218.039 33.8119C234.714 51.3045 230.994 78.9182 242.305 100.285C257.475 128.941 294.683 146.753 294.996 179.186C295.322 213.074 276.133 253.868 243.884 264.138C210.133 274.887 181.442 236.012 147.413 226.185C126.543 220.157 104.975 224.934 84.3646 218.069C55.0164 208.293 15.5609 206.473 3.11306 178.117C-9.15275 150.177 18.0196 121.079 29.3478 92.7446C39.7532 66.7178 44.3903 36.8266 66.4839 19.6097C88.892 2.1477 119.144 -1.90949 147.413 0.739638Z" fill="#DA1E40" fill-opacity="0.1"/>
</svg>
