<svg width="537" height="562" viewBox="0 0 537 562" fill="none" xmlns="http://www.w3.org/2000/svg">
<path fill-rule="evenodd" clip-rule="evenodd" d="M6.45157 318.062C-6.121 263.564 -1.03519 203.598 28.0169 155.806C57.2627 107.695 110.185 81.1255 162.747 60.947C214.567 41.0538 267.064 -0.346645 346.163 0.0021979C425.262 0.350982 490.163 60.6037 524.779 106.047C558.611 150.462 508.407 227.854 508.093 283.686C507.798 336.001 501.051 391.114 467.607 431.344C436.005 469.358 380.524 469.927 335.785 490.955C287.114 513.831 246.866 570.999 194.262 559.82C141.787 548.669 126.366 481.823 93.4544 439.458C62.1463 399.156 17.9235 367.789 6.45157 318.062Z" fill="#2057CC" fill-opacity="0.1"/>
</svg>
