<svg width="88" height="78" viewBox="0 0 88 78" fill="none" xmlns="http://www.w3.org/2000/svg">
<g opacity="0.4">
<path fill-rule="evenodd" clip-rule="evenodd" d="M50.3575 37.5814L58.8459 41.2761L49.2245 40.4378L52.8637 44.807L48.1007 42.0129L46.1908 50.2938L44.6325 41.3004L37.6315 43.7876L42.8762 39.0104L33.2182 34.4808L43.5036 35.9816L40.7917 30.1176L46.0492 34.6904L51.3833 26.5312L48.9225 35.3358L55.2191 33.2602L50.3575 37.5814ZM30.9183 39.2483C24.1263 41.4912 16.9045 42.5823 9.64195 42.4627C16.434 40.2201 23.6557 39.1291 30.9183 39.2483ZM34.0175 48.5347C31.2384 53.4797 27.2477 57.8337 22.3268 61.2898C25.1056 56.3446 29.0963 51.9906 34.0175 48.5347ZM50.1082 54.9963C51.9694 60.3324 52.4853 65.9557 51.6207 71.4815C49.7592 66.1454 49.2432 60.5221 50.1082 54.9963ZM36.7363 65.9408C36.6939 69.4738 35.4552 72.9173 33.1755 75.8399C32.8296 72.2615 34.108 68.7077 36.7363 65.9408ZM24.1322 2.51469C27.0133 4.99881 28.9869 8.16925 29.805 11.6275C26.6154 9.35499 24.5782 6.08248 24.1322 2.51469ZM56.7912 0C56.5309 4.93824 55.1712 9.78538 52.7876 14.2719C52.5003 9.27676 53.8916 4.31707 56.7912 0ZM18.9131 47.5668C13.3099 50.9474 6.79081 52.9961 0 53.5106C5.92956 50.7206 12.3042 48.7173 18.9131 47.5668ZM36.3555 30.5543C28.0501 27.3477 20.3524 23.0608 13.5259 17.8403C21.8313 21.0467 29.529 25.3337 36.3555 30.5543ZM44.3089 9.23928C46.0423 14.3047 45.8307 19.7243 43.7062 24.6755C43.1048 19.53 43.3075 14.3373 44.3089 9.23928ZM68.5877 7.90769C65.6081 13.8041 61.6581 19.291 56.8622 24.1957C59.3065 18.0642 63.3156 12.4952 68.5877 7.90769ZM79.426 21.2878C74.8138 24.9423 69.0753 27.3426 62.9168 28.1933C67.9694 25.1508 73.5407 22.8204 79.426 21.2878ZM88 39.5836C79.6705 39.5447 71.379 38.6016 63.3174 36.7764C71.6791 36.221 80.0825 37.1768 88 39.5836ZM79.0717 54.097C72.586 51.9638 66.6562 48.7218 61.6316 44.5619C68.1173 46.695 74.0471 49.9371 79.0717 54.097ZM56.4053 50.9504C63.3076 55.8831 69.2944 61.7139 74.1542 68.2371C67.2516 63.3048 61.2647 57.4739 56.4053 50.9504ZM14.3 30.4054C9.5677 31.0444 4.72412 30.4601 0.369417 28.7249C5.10172 28.0859 9.94534 28.6702 14.3 30.4054Z" fill="#2057CC" fill-opacity="0.5"/>
<path fill-rule="evenodd" clip-rule="evenodd" d="M70.169 73.0484L71.8845 71.22L71.0131 73.5019L72.641 72.8922L71.4474 73.8731L73.9808 74.8543L71.0018 74.6699L71.36 76.524L70.1581 74.9528L68.1017 77.0128L69.227 74.6112L67.1783 74.9025L68.9727 73.9129L66.6928 72.1085L69.3596 73.2561L69.0891 71.5987L70.169 73.0484Z" fill="#2057CC" fill-opacity="0.5"/>
<path fill-rule="evenodd" clip-rule="evenodd" d="M48.9085 2.26641L47.6458 2.12593L48.9069 1.86175L48.224 1.44944L48.9692 1.6194L48.7904 0.499132L49.4447 1.57605L50.205 0.992303L49.7834 1.79795L51.2368 1.99899L49.8578 2.20497L50.4992 2.84191L49.601 2.46613L49.34 3.70274L49.2043 2.49508L48.5123 2.9997L48.9085 2.26641Z" fill="#2057CC" fill-opacity="0.5"/>
<path fill-rule="evenodd" clip-rule="evenodd" d="M81.809 32.0957L83.016 30.8093L82.4029 32.4148L83.5483 31.9858L82.7085 32.6759L84.4909 33.3663L82.395 33.2366L82.647 34.5411L81.8013 33.4356L80.3545 34.8849L81.1462 33.1952L79.7048 33.4002L80.9674 32.7039L79.3633 31.4344L81.2395 32.2418L81.0492 31.0757L81.809 32.0957Z" fill="#2057CC" fill-opacity="0.5"/>
</g>
</svg>
